<svg width="538" height="402" viewBox="0 0 538 402" fill="none" xmlns="http://www.w3.org/2000/svg">
<path d="M1 101.923H143.036L206.952 165.921H321.764L360.233 125.626H454.923" stroke="#EEEEFF" stroke-width="2" stroke-linecap="round" stroke-linejoin="round"/>
<path d="M65.5081 234.067H159.015L318.214 74.6643H536.594" stroke="#EEEEFF" stroke-width="2" stroke-linecap="round" stroke-linejoin="round"/>
<ellipse cx="177.361" cy="28.4436" rx="28.4072" ry="28.4436" fill="url(#paint0_linear_659:4084)"/>
<ellipse cx="49.5289" cy="101.923" rx="3.5509" ry="3.55545" fill="#EEEEFF"/>
<path d="M35.3253 100.738L49.5289 98.3677V105.479L35.3253 103.108V100.738Z" fill="url(#paint1_linear_659:4084)"/>
<path d="M132.383 112.589L169.076 149.329" stroke="#EEEEFF" stroke-width="2" stroke-linecap="round" stroke-linejoin="round"/>
<path d="M172.627 152.884L182.096 162.365" stroke="#EEEEFF" stroke-width="2" stroke-linecap="round" stroke-linejoin="round"/>
<path d="M356.09 235.845L392.782 272.585" stroke="#EEEEFF" stroke-width="2" stroke-linecap="round" stroke-linejoin="round"/>
<path d="M396.333 276.14L405.802 285.621" stroke="#EEEEFF" stroke-width="2" stroke-linecap="round" stroke-linejoin="round"/>
<path d="M370.293 140.938H475.045" stroke="#EEEEFF" stroke-width="2" stroke-linecap="round" stroke-linejoin="round"/>
<path d="M480.371 140.938H493.763" stroke="#EEEEFF" stroke-width="2" stroke-linecap="round" stroke-linejoin="round"/>
<path d="M499.31 140.938H527.125" stroke="#EEEEFF" stroke-width="2" stroke-linecap="round" stroke-linejoin="round"/>
<path d="M34.7336 218.364H95.0989" stroke="#EEEEFF" stroke-width="2" stroke-linecap="round" stroke-linejoin="round"/>
<path d="M100.425 218.364H113.817" stroke="#EEEEFF" stroke-width="2" stroke-linecap="round" stroke-linejoin="round"/>
<path d="M119.363 218.364H147.179" stroke="#EEEEFF" stroke-width="2" stroke-linecap="round" stroke-linejoin="round"/>
<ellipse cx="411.721" cy="125.626" rx="3.5509" ry="3.55545" fill="#EEEEFF"/>
<path d="M397.517 124.441L411.721 122.071V129.181L397.517 126.811V124.441Z" fill="url(#paint2_linear_659:4084)"/>
<ellipse cx="498.126" cy="74.6646" rx="3.5509" ry="3.55545" fill="#EEEEFF"/>
<path d="M483.922 73.4794L498.126 71.1091V78.22L483.922 75.8497V73.4794Z" fill="url(#paint3_linear_659:4084)"/>
<path d="M17.5708 304.584H151.321L240.686 215.105H357.865L406.986 264.289H505.819" stroke="#EEEEFF" stroke-width="2" stroke-linecap="round" stroke-linejoin="round"/>
<ellipse cx="124.098" cy="304.584" rx="3.5509" ry="3.55545" fill="#EEEEFF"/>
<path d="M109.894 303.399L124.098 301.028V308.139L109.894 305.769V303.399Z" fill="url(#paint4_linear_659:4084)"/>
<path d="M155.573 139.434C155.573 139.434 135.675 181.006 155.097 247.479C155.242 247.976 155.418 248.462 155.573 248.948C170.305 293.094 326.478 281.006 353.514 266C353.514 266 383.081 199.63 356.086 137.117C356.097 137.117 246.568 88.4206 155.573 139.434Z" fill="#315EFB"/>
<g style="mix-blend-mode:soft-light">
<mask id="mask0_659:4084" style="mask-type:alpha" maskUnits="userSpaceOnUse" x="146" y="116" width="222" height="164">
<path d="M155.573 139.434C155.573 139.434 135.675 181.006 155.098 247.479C155.242 247.976 155.418 248.462 155.573 248.948C170.305 293.094 326.478 281.006 353.514 266C353.514 266 383.081 199.63 356.086 137.117C356.097 137.117 246.568 88.4206 155.573 139.434Z" fill="#315EFB"/>
</mask>
<g mask="url(#mask0_659:4084)">
<g style="mix-blend-mode:soft-light">
<path d="M147.838 160.5C147.838 160.5 141.864 194.175 154.954 250.797C154.954 250.797 160.509 280.613 243.83 285.423C317.097 289.656 354.71 269.205 354.71 269.205C354.71 269.205 369.202 244.28 370.838 232.12C370.838 232.12 280.714 268.419 191.838 238.5C141.338 221.5 147.838 160.5 147.838 160.5Z" fill="url(#paint5_linear_659:4084)"/>
</g>
</g>
</g>
<path d="M364.894 225.41L365.838 221.012C365.838 221.012 347.265 224.567 330.613 223.232C313.961 221.896 309.351 216.203 306.841 209C306.841 209 306.119 225.05 329.058 227.311C352.297 229.613 364.894 225.41 364.894 225.41Z" fill="#1642FA"/>
<path d="M369.056 221.223C369.056 221.223 374.221 206.745 370.492 184.439C370.492 184.439 356.225 176.383 329.881 178.741C303.537 181.099 301.337 199.909 306.347 213.849C311.895 229.237 346.875 226.693 369.056 221.223Z" fill="#356BFF"/>
<circle cx="324.838" cy="203" r="14" fill="white"/>
<path d="M337.505 203C337.505 209.996 331.834 215.667 324.838 215.667C317.843 215.667 312.172 209.996 312.172 203C312.172 203 318.838 205.667 327.505 200.334C337.505 194.18 337.505 203 337.505 203Z" fill="url(#paint6_linear_659:4084)"/>
<path fill-rule="evenodd" clip-rule="evenodd" d="M320.494 200.909C321.933 200.909 323.1 199.734 323.1 198.283C323.1 196.833 321.933 195.657 320.494 195.657C319.054 195.657 317.887 196.833 317.887 198.283C317.887 199.734 319.054 200.909 320.494 200.909Z" fill="#315EFB"/>
<path fill-rule="evenodd" clip-rule="evenodd" d="M329.182 209.663C330.622 209.663 331.789 208.488 331.789 207.037C331.789 205.587 330.622 204.411 329.182 204.411C327.743 204.411 326.576 205.587 326.576 207.037C326.576 208.488 327.743 209.663 329.182 209.663Z" fill="#315EFB"/>
<path fill-rule="evenodd" clip-rule="evenodd" d="M329.116 196.533C327.64 196.533 326.443 197.739 326.443 199.227C326.443 200.714 327.64 201.92 329.116 201.92C330.593 201.92 331.79 200.714 331.79 199.227C331.79 197.739 330.593 196.533 329.116 196.533Z" fill="#315EFB"/>
<path fill-rule="evenodd" clip-rule="evenodd" d="M320.562 205.152C319.085 205.152 317.888 206.358 317.888 207.845C317.888 209.333 319.085 210.539 320.562 210.539C322.038 210.539 323.235 209.333 323.235 207.845C323.235 206.358 322.038 205.152 320.562 205.152Z" fill="#315EFB"/>
<circle r="3.55318" transform="matrix(0.706653 0.70756 -0.706653 0.70756 385.215 242.49)" fill="#EEEEFF"/>
<path d="M376.009 231.595L387.726 239.976L382.704 245.004L374.335 233.272L376.009 231.595Z" fill="url(#paint7_linear_659:4084)"/>
<path d="M283.414 329.328L355.272 379.267L239.107 402L283.414 329.328Z" fill="url(#paint8_linear_659:4084)"/>
<path fill-rule="evenodd" clip-rule="evenodd" d="M477.395 309.982C478.361 304.417 483.67 300.614 489.24 301.565C494.811 302.516 498.533 307.86 497.568 313.425C496.602 318.991 491.293 322.793 485.723 321.842C480.152 320.892 476.43 315.548 477.395 309.982ZM486.375 310.665L481.503 309.833L480.619 311.58L485.492 312.413L486.375 310.665ZM493.427 308.7C493.844 308.771 494.361 309.059 494.538 309.629C494.716 310.199 494.595 310.455 494.279 311.125L494.279 311.126C493.963 311.797 492.966 313.8 492.578 314.505C492.19 315.209 491.605 315.756 490.931 316.011L490.871 316.034C490.242 316.273 489.978 316.374 489.15 316.232L480.409 314.74L481.372 312.84L489.593 314.243L491.518 310.439L483.362 309.047L484.326 307.147L493.427 308.7Z" fill="#315EFB"/>
<path fill-rule="evenodd" clip-rule="evenodd" d="M417.406 335.462C422.48 327.614 433.012 325.298 440.869 330.383C448.726 335.468 450.933 346.028 445.859 353.876C440.785 361.724 430.253 364.039 422.396 358.955C414.539 353.87 412.332 343.31 417.406 335.462ZM423.546 344.204L425.214 344.547L421.215 348.325L433.239 356.107L436.219 353.285L429.008 348.618L431.912 345.864L433.59 346.191L435.893 344.023L434.23 343.706L439.405 338.813L434.616 335.714L427.562 342.361L425.862 342.032L423.546 344.204L423.546 344.204Z" fill="#315EFB"/>
<path fill-rule="evenodd" clip-rule="evenodd" d="M113.365 378.377C102.951 367.644 103.197 350.487 113.918 340.059C124.638 329.63 141.772 329.878 152.187 340.611C162.602 351.345 162.355 368.501 151.635 378.93C140.915 389.359 123.78 389.111 113.365 378.377Z" fill="white"/>
<path fill-rule="evenodd" clip-rule="evenodd" d="M111.001 378.376C100.588 367.645 100.829 350.485 111.548 340.057C122.267 329.629 139.404 329.883 149.817 340.613C160.23 351.344 159.989 368.504 149.271 378.932C138.552 389.36 121.414 389.106 111.001 378.376ZM143.593 373.086L123.704 369.579L136.968 366.258L136.969 366.259L140.67 353.074L143.593 373.086ZM117.22 345.907L139.131 351.5L135.352 364.593L122.171 367.999L117.22 345.907Z" fill="#315EFB"/>
<path fill-rule="evenodd" clip-rule="evenodd" d="M453.507 168.503C458.933 161.843 468.729 160.846 475.383 166.28C482.037 171.715 483.029 181.524 477.603 188.184C472.177 194.845 462.381 195.842 455.727 190.408C449.073 184.973 448.08 175.164 453.507 168.503Z" fill="white"/>
<path fill-rule="evenodd" clip-rule="evenodd" d="M451.15 167.325C456.57 160.677 466.378 159.657 473.026 165.088C479.674 170.519 480.644 180.343 475.225 186.992C469.806 193.64 459.997 194.66 453.349 189.229C446.701 183.799 445.731 173.974 451.15 167.325ZM456.311 185.595L457.002 173.996L459.768 181.354L459.767 181.355L467.526 182.592L456.311 185.595ZM470.062 168.72L468.315 181.612L460.604 180.324L457.797 173.019L470.062 168.72Z" fill="#315EFB"/>
<path d="M424.149 171.847H433.618" stroke="#28BC00" stroke-width="2" stroke-linecap="round" stroke-linejoin="round"/>
<path d="M438.944 181.328H414.088" stroke="#28BC00" stroke-width="2" stroke-linecap="round" stroke-linejoin="round"/>
<path d="M77.3442 170.662H93.3233" stroke="#28BC00" stroke-width="2" stroke-linecap="round" stroke-linejoin="round"/>
<path d="M106.343 180.143H81.487" stroke="#28BC00" stroke-width="2" stroke-linecap="round" stroke-linejoin="round"/>
<path fill-rule="evenodd" clip-rule="evenodd" d="M61.6187 66.2936C57.5814 59.4117 59.8506 50.4775 66.7428 46.4332C73.6351 42.389 82.5404 44.7662 86.5778 51.6481C90.6152 58.5299 88.346 67.4642 81.4537 71.5084C74.5615 75.5527 65.6561 73.1755 61.6187 66.2936ZM80.1662 59.5638L75.1821 62.4894C75.3284 61.7871 75.4525 61.0802 75.5543 60.3698C75.8333 58.582 76.1008 56.7924 76.357 55.001C76.3784 54.8547 76.4106 54.7026 76.4436 54.5484C76.5355 54.1127 76.6299 53.6647 76.4981 53.3102C76.2672 52.6652 75.8902 52.0692 75.5026 51.4559C75.3423 51.2054 75.1862 50.9522 75.0344 50.6965L71.9415 52.5119L70.6658 50.3367L68.1869 51.7917L69.495 54.022L66.6572 55.6878L68.2197 58.3522L72.9998 55.5464C72.9422 55.8855 72.8846 56.2031 72.8292 56.5113C72.7585 56.9035 72.6908 57.2801 72.6276 57.6659C72.3488 59.4538 72.0815 61.2435 71.8255 63.0349C71.8081 63.1941 71.7761 63.363 71.7436 63.5337C71.6645 63.9462 71.5831 64.3712 71.7097 64.7109C71.9413 65.357 72.3192 65.9546 72.7019 66.5595C72.8559 66.803 73.0103 67.0472 73.1566 67.2967L76.2242 65.4961L77.5164 67.6995L80.0972 66.1846C79.8549 65.8264 79.6153 65.4664 79.3785 65.1046C79.1443 64.7494 78.9101 64.3943 78.6618 64.029L81.7286 62.2288L80.1658 59.564L80.1662 59.5638Z" fill="#315EFB"/>
<path d="M87.9971 78.22L93.9153 84.1457" stroke="#28BC00" stroke-width="2" stroke-linecap="round" stroke-linejoin="round"/>
<path d="M385.681 62.2206C385.681 44.2437 400.254 29.6289 418.231 29.6289C436.207 29.6289 450.78 44.2437 450.78 62.2206C450.78 80.1974 436.207 94.8122 418.231 94.8122C400.254 94.8122 385.681 80.1974 385.681 62.2206Z" fill="white"/>
<path fill-rule="evenodd" clip-rule="evenodd" d="M417.047 33.1841C400.378 33.1841 386.864 46.736 386.864 63.4054C386.864 80.0748 400.378 93.6268 417.047 93.6268C433.716 93.6268 447.23 80.0748 447.23 63.4054C447.23 46.736 433.716 33.1841 417.047 33.1841ZM424.072 52.1579C428.189 53.5778 431.2 55.7063 430.608 59.6658C430.18 62.5643 428.575 63.9675 426.445 64.4594C429.37 65.9844 430.859 68.3231 429.441 72.3774C427.681 77.4127 423.5 77.8377 417.94 76.7841L416.591 82.1988L413.33 81.3852L414.662 76.043C413.817 75.8328 412.953 75.6097 412.063 75.3679L410.727 80.7352L407.47 79.9215L408.819 74.4966C408.515 74.4186 408.209 74.3386 407.901 74.2581L407.9 74.258L407.9 74.2579C407.436 74.1369 406.968 74.0147 406.495 73.8959L402.252 72.8367L403.87 69.0995C403.87 69.0995 406.273 69.7393 406.24 69.6918C407.163 69.9206 407.573 69.318 407.735 68.9163L409.867 60.3567C409.947 60.376 410.025 60.3957 410.101 60.4147L410.211 60.4423C410.081 60.3902 409.963 60.3567 409.872 60.3335L411.394 54.2232C411.434 53.5295 411.195 52.6544 409.874 52.3243C409.925 52.2899 407.506 51.7348 407.506 51.7348L408.374 48.2477L412.87 49.3719L412.867 49.3887C413.543 49.557 414.239 49.7169 414.949 49.8787L416.285 44.517L419.544 45.3307L418.234 50.5873C419.109 50.7872 419.99 50.989 420.847 51.2029L422.147 45.9806L425.408 46.7943L424.072 52.1579ZM423.158 70.1262C422.234 73.8458 416.419 72.308 413.759 71.6044L413.758 71.6044C413.519 71.5411 413.305 71.4845 413.123 71.4392L414.913 64.2521C415.136 64.3076 415.407 64.3686 415.714 64.4377C418.466 65.0559 424.106 66.323 423.158 70.1262ZM416.267 61.1023C418.486 61.6951 423.324 62.988 424.167 59.6073C425.028 56.1493 420.325 55.1069 418.028 54.5978C417.77 54.5406 417.542 54.4901 417.356 54.4436L415.732 60.9621C415.886 61.0004 416.066 61.0485 416.267 61.1023Z" fill="#315EFB"/>
<path fill-rule="evenodd" clip-rule="evenodd" d="M38.4932 161.553C30.8604 168.304 30.1429 179.977 36.8809 187.615C43.6189 195.252 55.2766 195.98 62.9094 189.229C70.5422 182.478 71.2597 170.805 64.5217 163.167C57.7837 155.53 46.126 154.802 38.4932 161.553ZM49.3742 167.396C51.8328 166.379 54.0712 166.134 55.3997 168.187C56.3744 169.687 56.2064 170.979 55.4297 172.068C57.3852 171.581 59.0115 172.049 59.9998 174.48C61.228 177.498 59.4853 179.386 56.5139 181.155L58.0833 184.181L56.2617 185.129L54.7135 182.144C54.2417 182.39 53.7561 182.637 53.251 182.887L54.8072 185.886L52.9873 186.832L51.4138 183.802C51.2429 183.889 51.0704 183.977 50.8966 184.065L50.8965 184.065L50.8962 184.065L50.8957 184.065C50.635 184.197 50.3715 184.331 50.1068 184.468L47.7361 185.701L46.9677 183.335C46.9677 183.335 48.3262 182.655 48.2921 182.646C48.8072 182.377 48.7513 181.935 48.6631 181.686L46.1818 176.903C46.2262 176.879 46.27 176.857 46.3123 176.835L46.3741 176.803C46.2936 176.831 46.226 176.864 46.175 176.89L44.4033 173.476C44.1414 173.142 43.6787 172.838 42.9406 173.222C42.9501 173.186 41.6182 173.911 41.6182 173.911L40.6068 171.963L43.1198 170.657L43.1249 170.666C43.5024 170.469 43.886 170.261 44.2762 170.047L42.7223 167.051L44.543 166.104L46.0668 169.041C46.5482 168.778 47.0328 168.514 47.5117 168.265L45.9975 165.347L47.8191 164.399L49.3742 167.396ZM56.2137 175.995C57.2941 178.073 54.011 179.723 52.5089 180.477C52.3737 180.545 52.253 180.606 52.1511 180.659L50.0655 176.642C50.1897 176.577 50.3386 176.495 50.5072 176.402C52.0167 175.572 55.11 173.869 56.2137 175.995ZM49.4156 174.652C50.6704 174.026 53.4076 172.66 52.4269 170.77C51.4231 168.837 48.8493 170.263 47.5924 170.96C47.451 171.038 47.3263 171.107 47.2223 171.161L49.1141 174.805C49.1997 174.76 49.3015 174.709 49.4156 174.652Z" fill="#315EFB"/>
<path d="M152.505 328.879L170.851 310.51" stroke="#28BC00" stroke-width="2" stroke-linecap="round" stroke-linejoin="round"/>
<path d="M164.341 330.657L189.789 305.176" stroke="#28BC00" stroke-width="2" stroke-linecap="round" stroke-linejoin="round"/>
<path d="M372.661 106.071L386.272 92.4419" stroke="#28BC00" stroke-width="2" stroke-linecap="round" stroke-linejoin="round"/>
<path d="M395.742 95.9973L373.253 118.515" stroke="#28BC00" stroke-width="2" stroke-linecap="round" stroke-linejoin="round"/>
<path d="M90.956 70.5166L103.976 83.5533" stroke="#28BC00" stroke-width="2" stroke-linecap="round" stroke-linejoin="round"/>
<path d="M405.802 311.695L414.088 319.991" stroke="#28BC00" stroke-width="2" stroke-linecap="round" stroke-linejoin="round"/>
<path d="M390.415 308.732L410.537 328.88" stroke="#28BC00" stroke-width="2" stroke-linecap="round" stroke-linejoin="round"/>
<path d="M473.861 291.547L478.596 296.288" stroke="#28BC00" stroke-width="2" stroke-linecap="round" stroke-linejoin="round"/>
<path d="M462.025 290.362L470.31 298.658" stroke="#28BC00" stroke-width="2" stroke-linecap="round" stroke-linejoin="round"/>
<defs>
<linearGradient id="paint0_linear_659:4084" x1="211.496" y1="79.5963" x2="148.848" y2="-8.22015" gradientUnits="userSpaceOnUse">
<stop stop-color="#28BC00"/>
<stop offset="1" stop-color="#28BC00" stop-opacity="0"/>
</linearGradient>
<linearGradient id="paint1_linear_659:4084" x1="43.0189" y1="101.923" x2="31.1826" y2="101.923" gradientUnits="userSpaceOnUse">
<stop stop-color="#EEEEFF"/>
<stop offset="1" stop-color="#EEEEFF" stop-opacity="0"/>
</linearGradient>
<linearGradient id="paint2_linear_659:4084" x1="405.211" y1="125.626" x2="393.374" y2="125.626" gradientUnits="userSpaceOnUse">
<stop stop-color="#EEEEFF"/>
<stop offset="1" stop-color="#EEEEFF" stop-opacity="0"/>
</linearGradient>
<linearGradient id="paint3_linear_659:4084" x1="491.616" y1="74.6646" x2="479.779" y2="74.6646" gradientUnits="userSpaceOnUse">
<stop stop-color="#EEEEFF"/>
<stop offset="1" stop-color="#EEEEFF" stop-opacity="0"/>
</linearGradient>
<linearGradient id="paint4_linear_659:4084" x1="117.588" y1="304.584" x2="105.751" y2="304.584" gradientUnits="userSpaceOnUse">
<stop stop-color="#EEEEFF"/>
<stop offset="1" stop-color="#EEEEFF" stop-opacity="0"/>
</linearGradient>
<linearGradient id="paint5_linear_659:4084" x1="380.161" y1="263.132" x2="84.263" y2="230.154" gradientUnits="userSpaceOnUse">
<stop/>
<stop offset="1" stop-opacity="0"/>
</linearGradient>
<linearGradient id="paint6_linear_659:4084" x1="338.555" y1="212.463" x2="305.093" y2="209.466" gradientUnits="userSpaceOnUse">
<stop stop-color="#DADAFF"/>
<stop offset="1" stop-color="#EEEEFF" stop-opacity="0"/>
</linearGradient>
<linearGradient id="paint7_linear_659:4084" x1="380.612" y1="237.881" x2="372.232" y2="229.511" gradientUnits="userSpaceOnUse">
<stop stop-color="#EEEEFF"/>
<stop offset="1" stop-color="#EEEEFF" stop-opacity="0"/>
</linearGradient>
<linearGradient id="paint8_linear_659:4084" x1="371.786" y1="401.584" x2="299.726" y2="285.267" gradientUnits="userSpaceOnUse">
<stop stop-color="#28BC00"/>
<stop offset="1" stop-color="#28BC00" stop-opacity="0"/>
</linearGradient>
</defs>
</svg>
