<svg width="30" height="30" viewBox="0 0 30 30" fill="none" xmlns="http://www.w3.org/2000/svg">
<g clip-path="url(#clip0)">
<path d="M28.0756 26.6433H1.66929C0.939712 26.6433 0.348633 27.2344 0.348633 27.9646C0.348633 28.6935 0.939712 29.2846 1.66929 29.2846H28.0749C28.8045 29.2846 29.3956 28.6935 29.3956 27.9646C29.395 27.2344 28.8039 26.6433 28.0756 26.6433Z" fill="url(#paint0_linear)"/>
<path d="M3.31968 23.21C2.5901 23.21 1.99902 23.8011 1.99902 24.5307C1.99902 25.2603 2.5901 25.852 3.31968 25.852H26.4249C27.1545 25.852 27.7456 25.2603 27.7456 24.5307C27.7456 23.8011 27.1545 23.21 26.4249 23.21H26.0954V11.3266H26.4249C26.7903 11.3266 27.0846 11.0311 27.0846 10.6669C27.0846 10.3027 26.7891 10.0072 26.4249 10.0072H3.31968C2.95489 10.0072 2.65997 10.3027 2.65997 10.6669C2.65997 11.0311 2.95551 11.3266 3.31968 11.3266H3.64984V23.2094H3.31968V23.21ZM23.4541 11.3266V23.2094H19.4934V11.3266H23.4541ZM16.852 11.3266V23.2094H12.8913V11.3266H16.852ZM6.28991 11.3266H10.2506V23.2094H6.28991V11.3266Z" fill="url(#paint1_linear)"/>
<path d="M1.66931 8.82024H28.075C28.0793 8.82024 28.0842 8.82024 28.088 8.82024C28.8181 8.82024 29.4086 8.22916 29.4086 7.49958C29.4086 6.91963 29.0352 6.4281 28.5164 6.25003L15.415 0.354698C15.0706 0.200127 14.6768 0.200127 14.3318 0.354698L1.1277 6.29578C0.559493 6.55175 0.247259 7.1688 0.378336 7.77719C0.508793 8.38558 1.0467 8.82024 1.66931 8.82024Z" fill="url(#paint2_linear)"/>
</g>
<defs>
<linearGradient id="paint0_linear" x1="14.8721" y1="26.6433" x2="14.8721" y2="29.2846" gradientUnits="userSpaceOnUse">
<stop stop-color="#FF6600"/>
<stop offset="1" stop-color="#010066"/>
</linearGradient>
<linearGradient id="paint1_linear" x1="14.8723" y1="10.0072" x2="14.8723" y2="25.852" gradientUnits="userSpaceOnUse">
<stop stop-color="#FF6600"/>
<stop offset="1" stop-color="#010066"/>
</linearGradient>
<linearGradient id="paint2_linear" x1="14.8786" y1="0.23877" x2="14.8786" y2="8.82024" gradientUnits="userSpaceOnUse">
<stop stop-color="#FF6600"/>
<stop offset="1" stop-color="#010066"/>
</linearGradient>
<clipPath id="clip0">
<rect width="29.0599" height="29.0599" fill="white" transform="translate(0.348633 0.231567)"/>
</clipPath>
</defs>
</svg>
