<svg width="59" height="59" viewBox="0 0 59 59" fill="none" xmlns="http://www.w3.org/2000/svg">
<g clip-path="url(#clip0)">
<path d="M29.0498 0.358317C13.0325 0.344837 0.0408347 13.3186 0.0273542 29.3359C0.0138738 45.3532 12.9876 58.3448 29.0049 58.3583C45.0201 58.3448 58.0027 45.3735 58.0274 29.3583C58.0274 13.35 45.0581 0.371798 29.0498 0.358317ZM29.0049 53.5325C15.6542 53.5325 4.83082 42.7091 4.83082 29.3583C4.83082 16.0076 15.6542 5.18421 29.0049 5.18421C42.3512 5.19769 53.1656 16.0121 53.179 29.3583C53.179 42.7091 42.3557 53.5325 29.0049 53.5325Z" fill="url(#paint0_linear)"/>
<path d="M36.8381 27.9442C38.7774 26.851 39.8256 24.6626 39.4643 22.4673C39.0153 19.0781 34.9752 17.7986 31.7878 17.5293V12.4341H28.6453V17.4844H26.5355V12.4341H23.393V17.4844H17.0632V20.7391H19.4201C20.475 20.7391 20.9913 21.0534 20.9913 21.9063V35.89C20.9913 37.0572 20.4076 37.4164 19.7792 37.4164H17.3775V40.7384H23.4828V45.9009H26.6476V40.7384H28.7575V45.9009H31.8326V40.7384H32.506C38.9704 40.7384 41.1252 37.5735 41.1252 33.264C41.0735 30.7229 39.3116 28.5367 36.8381 27.9442ZM26.5354 20.9411H28.7799C30.3511 20.9411 33.4487 21.2105 33.4487 23.7693C33.5564 25.4393 32.3466 26.9028 30.6878 27.1137H26.5354V20.9411ZM30.0145 37.102V37.0796H26.5354V30.3458H30.5756C31.5184 30.3458 35.0648 30.6601 35.0648 33.174C35.0648 35.6879 33.3814 37.102 30.0145 37.102Z" fill="url(#paint1_linear)"/>
</g>
<defs>
<linearGradient id="paint0_linear" x1="29.0274" y1="0.358307" x2="29.0274" y2="58.3583" gradientUnits="userSpaceOnUse">
<stop stop-color="#FF6600"/>
<stop offset="1" stop-color="#010066"/>
</linearGradient>
<linearGradient id="paint1_linear" x1="29.0942" y1="12.4341" x2="29.0942" y2="45.9009" gradientUnits="userSpaceOnUse">
<stop stop-color="#FF6600"/>
<stop offset="1" stop-color="#010066"/>
</linearGradient>
<clipPath id="clip0">
<rect width="58" height="58" fill="white" transform="translate(0.0273438 0.358398)"/>
</clipPath>
</defs>
</svg>
