<svg width="1438" height="380" viewBox="0 0 1438 380" fill="none" xmlns="http://www.w3.org/2000/svg">
<path d="M2 245C479.988 245 957.976 245 1435.96 245" stroke="url(#paint0_linear_658:4082)" stroke-miterlimit="10"/>
<path d="M2 238.156C244.041 238.207 485.963 236.983 727.945 235.599C832.644 234.996 938.06 235.194 1042.75 236.463C1173.8 238.05 1304.91 236.555 1435.92 238.156" stroke="url(#paint1_linear_658:4082)" stroke-miterlimit="10"/>
<path d="M2 231.414C70.5813 231.414 139.183 231.657 207.754 231.538C269.036 231.432 330.179 229.137 391.441 228.741C505.561 228.005 619.66 228.861 733.77 227.992C835.054 227.219 937.383 225.172 1038.6 228.295C1097.59 230.135 1155.97 230.972 1215.01 231.731C1288.7 232.678 1362.3 230.107 1435.96 231.414" stroke="url(#paint2_linear_658:4082)" stroke-miterlimit="10"/>
<path d="M2 224.762C69.5955 224.762 137.37 225.287 204.946 224.721C268.449 224.188 331.583 220.448 395.036 219.487C509.374 217.753 622.817 222.707 737.036 221.823C837.543 221.06 936.626 214.86 1037.24 220.407C1096.06 223.649 1153.05 226.188 1212.29 226.929C1286.97 227.849 1361.29 223.373 1435.96 224.762" stroke="url(#paint3_linear_658:4082)" stroke-miterlimit="10"/>
<path d="M2 218.24C68.3706 218.24 135.229 219.078 201.55 217.923C267.871 216.769 333.246 211.456 399.367 209.741C459.475 208.181 518.735 208.6 578.523 211.994C632.108 215.039 684.159 217.238 738.181 216.907C785.532 216.612 829.895 213.291 876.659 210.196C930.173 206.65 985.271 208.306 1038.29 212.822C1096.64 217.799 1151.68 222.559 1211.27 223.102C1286.43 223.792 1360.75 217.049 1435.96 218.24" stroke="url(#paint4_linear_658:4082)" stroke-miterlimit="10"/>
<path d="M2 211.81C66.9367 211.81 132.859 212.937 197.686 211.134C266.955 209.212 335.048 202.248 404.167 199.636C463.513 197.364 523.255 198.921 581.67 204.263C633.821 208.963 684.238 213.163 737.544 212.97C786.906 212.79 831.568 207.018 879.487 202.349C933.878 197.051 987.701 199.061 1041.27 205.486C1098.67 212.385 1151.67 219.818 1211.67 220.016C1286.96 220.269 1360.54 211.038 1435.96 211.815" stroke="url(#paint5_linear_658:4082)" stroke-miterlimit="10"/>
<path d="M2 205.482C65.4031 205.454 130.36 206.862 193.544 204.401C266.079 201.6 336.94 192.957 409.206 189.347C469.851 186.32 525.895 189.135 584.389 196.738C634.468 203.251 682.974 209.773 735.503 209.787C787.444 209.787 833.65 201.117 882.942 194.788C939.096 187.581 990.878 189.678 1045.75 198.385C1101.59 207.243 1152.87 217.702 1213.19 217.472C1288.38 217.16 1360.57 205.27 1435.96 205.482" stroke="url(#paint6_linear_658:4082)" stroke-miterlimit="10"/>
<path d="M2 199.254C63.7999 199.213 127.781 200.777 189.212 197.75C265.073 194.015 338.583 183.704 414.175 179.049C475.666 175.264 529.042 179.311 586.589 189.439C634.07 197.796 680.703 206.852 732.376 207.138C786.986 207.441 836.219 195.533 886.726 187.516C945.051 178.258 994.851 180.226 1051.21 191.509C1104.89 202.253 1154.94 216.047 1215.52 215.274C1290.44 214.317 1360.73 199.696 1435.94 199.254" stroke="url(#paint7_linear_658:4082)" stroke-miterlimit="10"/>
<path d="M2 193.128C62.2165 193.072 125.201 194.737 184.97 191.21C264.077 186.541 340.246 174.61 418.985 168.916C481.721 164.376 532.069 169.574 588.402 182.369C632.954 192.488 677.706 204.175 728.661 204.792C785.94 205.477 839.126 190.009 890.799 180.502C917.865 175.548 946.395 170.908 975.901 171.975C1004.78 173.023 1032.12 178.639 1057.38 184.853C1108.28 197.35 1157.87 214.552 1218.45 213.236C1293.04 211.613 1360.98 194.268 1435.97 193.141" stroke="url(#paint8_linear_658:4082)" stroke-miterlimit="10"/>
<path d="M2.04944 187.107C60.8021 187.038 122.761 188.744 180.897 184.807C263.021 179.26 341.57 165.788 423.227 159.11C487.397 153.857 534.837 160.108 589.646 175.539C631.201 187.24 674.081 201.54 724.578 202.51C784.327 203.655 842.084 184.549 894.742 173.736C922.326 168.07 952.748 162.095 983.558 163.41C1012.44 164.643 1039.49 171.377 1063.64 178.359C1111.79 192.286 1160.87 212.96 1221.6 211.116C1295.86 208.853 1361.19 188.873 1435.98 187.107" stroke="url(#paint9_linear_658:4082)" stroke-miterlimit="10"/>
<path d="M2.05933 181.192C59.4079 181.109 120.451 182.816 177.103 178.589C261.906 172.255 342.566 157.362 426.752 149.792C458.807 146.912 489.189 145.247 520.587 150.298C546.169 154.414 568.674 161.64 590.383 168.944C629.22 182.001 670.217 198.748 720.595 200.059C782.534 201.673 844.932 179.104 898.446 167.187C926.508 160.936 958.802 153.697 990.788 155.228C1019.8 156.608 1046.49 164.367 1069.61 172.03C1115.19 187.134 1163.69 211.042 1224.74 208.729C1298.74 205.919 1361.36 183.464 1436.02 181.169" stroke="url(#paint10_linear_658:4082)" stroke-miterlimit="10"/>
<path d="M2.06885 175.374C58.2125 175.287 118.429 176.984 173.776 172.564C260.73 165.619 342.924 149.447 429.231 141.163C461.396 138.077 491.688 136.164 522.927 141.895C548.27 146.572 569.869 154.598 590.522 162.62C627.078 176.8 666.363 195.648 716.99 197.235C749.344 198.252 781.877 190.456 809.819 183.855C840.819 176.533 870.623 168.19 901.613 160.858C930.093 154.125 963.95 145.864 997.011 147.589C1026.23 149.111 1052.51 157.662 1074.79 165.895C1118.29 181.993 1165.87 208.605 1227.51 205.91C1301.38 202.69 1361.38 178 1436.03 175.356" stroke="url(#paint11_linear_658:4082)" stroke-miterlimit="10"/>
<path d="M2.078 169.661C57.2159 169.574 116.795 171.275 171.077 166.773C259.564 159.437 342.714 142.161 430.465 133.362C462.48 130.143 493.002 128.087 523.922 134.227C549.235 139.254 570.187 147.97 590.093 156.543C625.126 171.625 662.926 192.037 714.171 193.799C747.411 194.93 780.89 186.486 809.271 179.504C841.306 171.616 872.007 162.638 904.042 154.741C932.92 147.616 967.773 138.707 1001.72 140.524C1031.25 142.106 1057.08 151.19 1078.76 159.896C1120.91 176.818 1167.03 205.339 1229.66 202.464C1303.53 199.074 1361.24 172.402 1436.04 169.679" stroke="url(#paint12_linear_658:4082)" stroke-miterlimit="10"/>
<path d="M2.09949 164.05C56.4607 163.976 115.671 165.71 169.156 161.244C258.391 153.793 341.77 135.611 430.198 126.574C461.775 123.354 492.864 121.257 523.346 127.438C548.868 132.613 569.531 141.798 589.069 150.734C623.544 166.529 660.229 187.76 712.549 189.471C746.526 190.584 780.095 182.052 808.874 174.753C841.586 166.474 872.854 157.036 905.557 148.747C934.804 141.333 969.806 132.282 1004.45 134.084C1034.32 135.639 1059.72 144.889 1081.13 153.968C1122.95 171.699 1166.88 200.942 1230.97 198.095C1305.03 194.806 1360.99 166.492 1436.1 164.059" stroke="url(#paint13_linear_658:4082)" stroke-miterlimit="10"/>
<path d="M2.1095 158.531C56.2715 158.374 115.293 160.324 168.549 155.771C257.176 148.177 339.489 129.453 427.22 120.203C458.708 116.887 489.777 114.9 520.239 121.008C546.13 126.21 567.201 135.506 587.028 144.553C622.14 160.577 659.214 182.08 712.221 184.085C746.437 185.377 779.806 176.951 808.715 169.537C841.477 161.129 872.685 151.507 905.437 143.095C934.824 135.543 969.647 126.615 1004.55 128.547C1034.62 130.212 1059.87 139.48 1081.32 148.66C1123.31 166.639 1166.4 195.496 1231 192.815C1305.26 189.742 1360.65 160.655 1436.07 158.531" stroke="url(#paint14_linear_658:4082)" stroke-miterlimit="10"/>
<path d="M2.11853 153.136C56.5096 152.85 115.352 155.311 168.797 150.44C255.851 142.506 336.312 123.474 422.439 113.898C454.305 110.352 484.558 108.507 515.458 114.657C541.817 119.895 563.635 129.094 584.189 138.063C620.466 153.913 659.103 175.631 712.11 178.368C746.117 180.125 779.606 171.676 808.265 164.266C840.629 155.9 871.37 146.269 903.724 137.893C933.05 130.299 967.874 121.441 1002.73 123.736C1032.71 125.709 1058.32 135.11 1080.07 144.19C1122.28 161.806 1166.62 190.12 1230.44 187.516C1304.89 184.476 1360.45 155.224 1436.05 153.136" stroke="url(#paint15_linear_658:4082)" stroke-miterlimit="10"/>
<path d="M2.13867 147.832C56.8384 147.492 115.521 150.638 169.295 145.482C254.576 137.304 332.936 118.023 417.251 108.227C449.386 104.483 478.932 102.813 510.18 108.884C536.948 114.086 559.642 123.046 580.962 131.946C618.455 147.584 658.874 169.224 711.832 172.623C745.53 174.79 778.76 166.515 807.16 159.138C838.976 150.859 869.07 141.287 900.866 133.013C930.103 125.405 964.598 116.8 999.292 119.422C1029.31 121.694 1055.38 131.136 1077.61 140.119C1120.38 157.367 1166.17 184.973 1229.5 182.406C1304.28 179.38 1360.15 149.939 1436.08 147.86" stroke="url(#paint16_linear_658:4082)" stroke-miterlimit="10"/>
<path d="M2.15845 142.63C57.2366 142.304 115.89 146.282 170.042 140.864C253.371 132.535 329.451 113.056 411.784 103.089C444.049 99.1841 473.037 97.7169 504.544 103.613C531.789 108.71 555.33 117.412 577.477 126.151C616.533 141.508 658.367 162.836 711.473 166.86C744.773 169.381 777.415 161.465 805.537 154.138C836.656 146.025 865.983 136.536 897.082 128.414C926.209 120.801 960.037 112.624 994.522 115.535C1024.67 118.088 1051.28 127.494 1074.19 136.352C1117.81 153.218 1165.23 179.978 1228.23 177.425C1303.46 174.376 1359.76 144.737 1436.15 142.644" stroke="url(#paint17_linear_658:4082)" stroke-miterlimit="10"/>
<path d="M2.16919 137.53C57.6955 137.272 116.329 142.207 170.969 136.555C252.207 128.151 325.867 108.498 406.079 98.4759C438.323 94.4376 466.913 93.182 498.58 98.8209C526.313 103.761 550.681 112.159 573.734 120.631C614.562 135.639 657.67 156.456 710.976 161.06C775.305 166.621 840.311 137.682 892.442 124.04C921.46 116.441 954.371 108.829 988.558 112.017C1018.95 114.855 1046.12 124.168 1069.81 132.894C1114.54 149.364 1163.73 175.167 1226.57 172.6C1302.36 169.51 1359.2 139.655 1436.13 137.53" stroke="url(#paint18_linear_658:4082)" stroke-miterlimit="10"/>
<path d="M2.18921 132.535C58.2034 132.392 116.847 138.385 172.054 132.535C251.112 124.127 322.232 104.381 400.214 94.3271C432.349 90.1876 460.66 89.1573 492.416 94.4697C520.657 99.2025 545.871 107.229 569.83 115.434C612.431 130.014 656.824 150.137 710.398 155.311C773.752 161.419 835.96 133.317 887.125 119.895C915.415 112.486 948.397 105.016 981.647 108.834C1012.52 112.375 1039.71 120.962 1064.75 129.701C1110.76 145.753 1161.85 170.512 1224.68 167.918C1301.12 164.767 1358.57 134.687 1436.15 132.502" stroke="url(#paint19_linear_658:4082)" stroke-miterlimit="10"/>
<path d="M2.20911 127.636C58.7511 127.636 117.454 134.779 173.279 128.713C250.086 120.365 318.597 100.536 394.279 90.5373C525.726 73.1561 594.297 137.323 709.761 149.603C771.999 156.231 831.06 129.14 881.299 115.991C909.46 108.631 941.167 101.93 973.999 105.964C1005.26 109.804 1033.09 118.203 1059.13 126.776C1106.58 142.414 1159.65 166.046 1222.61 163.411C1299.76 160.191 1357.88 129.876 1436.18 127.636" stroke="url(#paint20_linear_658:4082)" stroke-miterlimit="10"/>
<path d="M2.229 122.844C59.3187 123.037 118.121 131.353 174.613 125.107C249.13 116.869 315.022 96.9948 388.344 87.083C517.072 69.688 595.472 130.778 709.074 143.937C770.236 151.029 825.753 125.139 875.075 112.242C903.117 104.91 933.439 99.0922 965.803 103.31C997.48 107.449 1026.02 115.636 1053.11 124.03C1102.08 139.208 1157.17 161.704 1220.4 159.009C1298.3 155.693 1357.16 125.157 1436.21 122.844" stroke="url(#paint21_linear_658:4082)" stroke-miterlimit="10"/>
<path d="M2.24963 118.152C59.907 118.543 118.829 128.073 176.028 121.671C248.264 113.585 311.458 93.6877 382.509 83.9093C508.509 66.5649 596.608 124.315 708.368 138.353C768.435 145.896 820.177 121.28 868.633 108.636C896.575 101.346 925.394 96.4612 957.26 100.817C989.375 105.228 1018.65 113.235 1046.81 121.422C1097.36 136.141 1154.48 157.464 1218.03 154.708C1296.7 151.291 1356.33 120.525 1436.17 118.134" stroke="url(#paint22_linear_658:4082)" stroke-miterlimit="10"/>
<path d="M2.26953 113.562C60.4845 114.155 119.576 124.904 177.532 118.368C247.537 110.467 308.122 90.5602 376.883 80.9474C500.204 63.7041 597.723 117.987 707.651 132.866C766.632 140.85 814.491 117.545 862.12 105.145C889.943 97.9009 917.358 93.9776 948.696 98.4896C981.259 103.181 1011.3 110.986 1040.52 118.971C1092.65 133.229 1151.78 153.375 1215.73 150.551C1295.23 147.037 1355.59 116.055 1436.23 113.562" stroke="url(#paint23_linear_658:4082)" stroke-miterlimit="10"/>
<path d="M2.28943 109.077C61.0421 109.869 120.333 121.809 178.956 115.162C246.81 107.468 304.836 87.5659 371.406 78.1416C492.287 61.0318 598.849 111.782 706.993 127.494C764.9 135.911 808.865 113.916 855.717 101.737C883.421 94.5386 909.491 91.5766 940.232 96.2174C973.243 101.194 1004.04 108.82 1034.31 116.584C1087.97 130.354 1149.07 149.364 1213.46 146.48C1293.75 142.869 1354.87 111.635 1436.29 109.087" stroke="url(#paint24_linear_658:4082)" stroke-miterlimit="10"/>
<path d="M2.30957 104.69C61.6498 105.669 121.08 118.755 180.42 112.017C246.233 104.542 301.809 84.6545 366.307 75.4327C484.868 58.4791 599.954 105.706 706.287 122.25C763.227 131.109 803.258 110.333 849.464 98.3976C877.078 91.2685 901.784 89.1988 932.006 93.973C965.446 99.2347 996.993 106.709 1028.24 114.247C1083.38 127.544 1146.36 145.436 1211.2 142.479C1292.25 138.776 1354.08 107.316 1436.25 104.69" stroke="url(#paint25_linear_658:4082)" stroke-miterlimit="10"/>
<path d="M2.32959 100.407C62.2275 101.548 121.827 115.71 181.834 108.903C245.765 101.654 299.041 81.766 361.607 72.7603C422.302 64.0213 486.87 73.8871 543.562 84.429C598.231 94.5984 650.203 107.937 705.689 117.159C761.913 126.505 797.772 106.709 843.629 95.0813C904.522 79.6502 966.89 99.2208 1022.63 111.911C1079.1 124.752 1143.85 141.577 1209.12 138.555C1290.89 134.774 1353.39 103.094 1436.29 100.403" stroke="url(#paint26_linear_658:4082)" stroke-miterlimit="10"/>
<path d="M2.34949 96.2222C62.805 97.4963 122.414 112.638 183.188 105.78C245.416 98.7519 296.571 78.8777 357.455 70.0698C417.592 61.3585 483.863 70.8195 540.823 80.4737C596.598 89.9302 649.685 102.418 705.161 112.242C760.638 122.066 793.041 103.241 838.311 91.7792C897.82 76.716 962.787 97.7584 1017.56 109.556C1075.21 121.974 1141.61 137.778 1207.24 134.715C1289.64 130.865 1352.77 98.9727 1436.27 96.2222" stroke="url(#paint27_linear_658:4082)" stroke-miterlimit="10"/>
<path d="M2.36853 92.1424C63.3917 93.5223 122.951 109.51 184.432 102.611C245.177 95.799 294.449 75.934 353.72 67.2963C413.399 58.6263 481.183 67.701 538.402 76.5549C595.163 85.3445 649.316 97.0822 704.702 107.509C730.832 112.426 749.982 112.628 775.246 106.286C795.779 101.13 813.146 93.6418 833.65 88.4491C861.005 81.5131 882.793 81.7063 911.442 86.8623C945.867 93.0669 979.406 100.201 1013.18 107.132C1071.81 119.127 1139.65 134.011 1205.57 130.92C1288.55 127.029 1352.2 94.9251 1436.3 92.1424" stroke="url(#paint28_linear_658:4082)" stroke-miterlimit="10"/>
<path d="M2.38831 88.1593C63.9791 89.5392 123.359 106.29 185.557 99.3682C245.097 92.7404 292.686 72.8018 350.762 64.3849C410.132 55.7793 479.162 64.4768 536.61 72.6638C594.058 80.8508 649.216 91.9815 704.423 103.02C729.936 108.121 748.588 108.843 773.632 102.533C793.489 97.5284 810.059 90.1417 829.865 85.1007C857.071 78.174 878.521 78.9099 906.672 84.236C941.267 90.781 975.323 97.9009 1009.74 104.639C1069.1 116.257 1138.27 130.313 1204.29 127.213C1287.72 123.299 1351.8 91.0018 1436.31 88.2007" stroke="url(#paint29_linear_658:4082)" stroke-miterlimit="10"/>
<path d="M2.4082 84.2867C64.5765 85.6297 123.618 102.96 186.513 96.0198C245.166 89.5392 291.272 69.4489 348.541 61.2803C407.832 52.8127 477.608 61.1147 535.415 68.7176C593.689 76.3756 649.325 87.0417 704.304 98.6875C729.299 103.977 747.741 105.09 772.597 98.7795C791.915 93.8811 807.818 86.5404 827.077 81.596C854.153 74.6462 875.583 75.7731 903.306 81.3016C937.95 88.2008 972.405 95.3391 1007.35 101.935C1067.1 113.217 1137.42 126.546 1203.39 123.469C1287.15 119.56 1351.54 87.0785 1436.41 84.2867" stroke="url(#paint30_linear_658:4082)" stroke-miterlimit="10"/>
<path d="M2.42822 80.5104C65.1642 81.7293 123.698 99.4785 187.29 92.5196C245.336 86.1677 290.446 65.99 347.028 57.918C406.129 49.4919 476.822 57.6145 534.778 64.7436C593.65 71.9877 649.535 82.364 704.254 94.6399C728.841 100.159 747.383 101.493 772.109 95.1412C791.029 90.2796 806.434 82.9343 825.325 78.0267C852.301 71.0172 874.03 72.3418 901.424 78.1233C935.999 85.418 970.713 92.607 1006.04 99.0922C1065.97 110.089 1137.11 122.821 1202.82 119.79C1286.77 115.921 1351.32 83.2655 1436.39 80.5104" stroke="url(#paint31_linear_658:4082)" stroke-miterlimit="10"/>
<path d="M2.45825 76.8308C65.5129 77.9254 123.638 95.8678 187.619 88.8445C245.465 82.4973 290.307 62.3379 346.709 54.3119C405.751 45.9134 476.762 54.2015 534.738 61.1789C593.819 68.2896 649.525 78.5877 704.314 90.9188C728.811 96.4382 747.612 97.588 772.169 91.2776C790.959 86.4482 806.265 79.1673 825.056 74.3241C851.943 67.3973 874.07 68.6852 901.205 74.6322C935.631 82.1753 970.384 89.4194 1005.86 95.8402C1065.5 106.635 1137.57 119.224 1202.77 116.078C1286.6 112.039 1351.57 79.9354 1436.42 76.8446" stroke="url(#paint32_linear_658:4082)" stroke-miterlimit="10"/>
<path d="M2.47791 73.211C65.6719 74.2505 123.628 92.3125 187.758 85.2063C245.515 78.8039 290.585 58.8148 347.028 50.8394C406.069 42.496 476.921 51.1475 534.807 58.1709C593.699 65.3184 649.166 75.5981 704.334 87.3451C756.554 98.4619 782.435 81.3658 825.444 70.7043C852.331 64.0397 874.597 65.254 901.484 71.224C935.76 78.8361 970.454 86.0618 1005.92 92.409C1065.21 103.015 1138.22 115.664 1202.95 112.251C1286.42 107.845 1352.19 77.0469 1436.47 73.28" stroke="url(#paint33_linear_658:4082)" stroke-miterlimit="10"/>
<path d="M2.49792 69.6466C65.8811 70.6493 123.698 88.8446 188.027 81.6787C245.784 75.2395 291.033 55.4619 347.506 47.5601C406.547 39.2811 477.19 48.2638 534.987 55.3102C593.65 62.4623 648.907 72.696 704.394 83.8497C756.176 94.2628 782.983 77.4702 826.022 67.2917C852.909 60.9169 875.374 62.0943 902.022 68.0736C936.138 75.7271 970.733 82.8976 1006.19 89.1344C1065.24 99.5245 1138.97 112.04 1203.16 108.397C1286.22 103.687 1352.79 74.2276 1436.46 69.8628" stroke="url(#paint34_linear_658:4082)" stroke-miterlimit="10"/>
<path d="M2.51782 66.1463C66.1201 67.1214 123.847 85.4639 188.415 78.2658C246.103 71.8358 291.621 52.2836 348.133 44.4646C407.175 36.3236 477.588 45.5317 535.275 52.5826C593.66 59.7117 648.798 69.8673 704.483 80.4046C755.897 90.1232 783.62 73.7032 826.768 63.9984C853.725 57.9409 876.36 59.1184 902.808 65.0931C936.736 72.7603 971.26 79.848 1006.66 85.9377C1065.56 96.0794 1139.74 108.286 1203.49 104.455C1286.15 99.4922 1353.48 71.4173 1436.51 66.5143" stroke="url(#paint35_linear_658:4082)" stroke-miterlimit="10"/>
<path d="M2.5376 62.7058C66.4088 63.6717 124.026 82.1568 188.923 74.9541C246.561 68.5609 292.358 49.2295 348.92 41.5668C407.941 33.5684 477.996 42.9834 535.664 50.0114C593.729 57.0945 648.698 67.1443 704.613 77.0468C755.638 86.0847 784.337 70.0971 827.685 60.9166C854.731 55.1857 877.545 56.4046 903.824 62.3609C937.486 70.067 972.028 76.9241 1007.3 82.9019C1066.15 92.7631 1140.54 104.519 1203.92 100.513C1286.04 95.348 1354.2 68.6897 1436.5 63.3221" stroke="url(#paint36_linear_658:4082)" stroke-miterlimit="10"/>
<path d="M2.56787 59.33C66.7278 60.2959 124.325 78.942 189.541 71.7485C247.129 65.4058 293.234 46.332 349.866 38.8257C408.868 31.0067 478.624 40.5689 536.182 47.5646C593.939 54.5742 648.758 64.486 704.802 73.7446C755.449 82.1156 785.184 66.6017 828.79 57.9778C855.966 52.601 878.949 53.8889 905.079 59.8175C938.539 67.4727 972.955 74.2013 1008.15 79.9677C1067.03 89.5207 1141.4 100.638 1204.45 96.5256C1286.04 91.2041 1354.98 66.0038 1436.56 60.2177" stroke="url(#paint37_linear_658:4082)" stroke-miterlimit="10"/>
<path d="M2.58752 56.0277C67.0761 56.9982 124.664 75.8053 190.248 68.667C247.795 62.4025 294.23 43.6047 350.882 36.2778C409.853 28.6519 479.241 38.3291 536.749 45.2651C594.078 52.1642 648.877 61.9196 704.981 70.5205C755.269 78.2338 786.1 63.2488 830.005 55.209C857.33 50.2048 880.492 51.5893 906.513 57.5087C939.743 65.0907 974.005 71.668 1009.08 77.1989C1068.06 86.3978 1142.21 96.7741 1204.99 92.5656C1286.01 87.1383 1355.69 63.4236 1436.54 57.2834" stroke="url(#paint38_linear_658:4082)" stroke-miterlimit="10"/>
<path d="M2.60742 52.7895C67.4545 53.783 125.092 72.7695 191.054 65.668C248.562 59.5139 295.335 41.015 352.047 33.8859C410.979 26.4808 479.988 36.227 537.367 43.0847C594.297 49.8919 649.037 59.4265 705.16 67.3651C755.1 74.4253 787.086 60.0061 831.319 52.5826C858.814 47.9831 882.155 49.4733 908.096 55.3422C941.107 62.8343 975.226 69.2359 1010.2 74.4989C1069.37 83.3436 1143.1 92.8414 1205.64 88.5593C1286.08 83.04 1356.48 60.8661 1436.57 54.4085" stroke="url(#paint39_linear_658:4082)" stroke-miterlimit="10"/>
<path d="M2.62732 49.6251C67.8627 50.6462 125.49 69.8167 191.94 62.8117C249.409 56.7497 296.55 38.5635 353.321 31.6552C412.203 24.4938 480.785 34.2722 538.084 41.0426C594.616 47.7256 649.305 57.021 705.379 64.2881C754.981 70.7274 788.191 56.8968 832.773 50.1127C860.457 45.9042 883.978 47.5554 909.859 53.3323C942.639 60.7108 976.596 66.9168 1011.43 71.8956C1070.83 80.3356 1143.96 88.8537 1206.33 84.5211C1286.16 79.0017 1357.24 58.3503 1436.57 51.6259" stroke="url(#paint40_linear_658:4082)" stroke-miterlimit="10"/>
<path d="M2.64734 46.5391C68.291 47.597 125.978 66.9514 192.847 60.043C250.345 54.1236 297.855 36.2502 354.696 29.581C413.518 22.6818 481.621 32.4556 538.92 39.1248C595.034 45.6652 649.684 54.6939 705.698 61.2849C754.961 67.0848 789.466 53.8982 834.416 47.7855C862.299 43.9956 885.989 45.8078 911.85 51.5571C944.392 58.806 978.179 64.7951 1012.87 69.4627C1072.49 77.4703 1144.89 84.9398 1207.12 80.5565C1286.32 75.005 1358.03 55.9633 1436.61 49.009" stroke="url(#paint41_linear_658:4082)" stroke-miterlimit="10"/>
<path d="M2.66724 43.5448C68.7192 44.6349 126.476 64.1733 193.932 57.3799C251.341 51.5938 299.249 34.07 356.149 27.6538C414.902 21.026 482.537 30.7768 539.707 37.3126C595.412 43.6966 650.023 52.4263 705.917 58.3458C754.871 63.534 790.74 50.9867 836.04 45.5778C864.121 42.2156 888.001 44.198 913.872 49.9059C946.167 57.0098 979.774 62.7652 1014.29 67.1031C1074.31 74.6462 1145.81 80.9474 1207.93 76.5734C1286.52 71.0541 1358.8 53.613 1436.63 46.4609" stroke="url(#paint42_linear_658:4082)" stroke-miterlimit="10"/>
<path d="M2.68713 40.6012C69.2171 41.7556 127.084 61.4826 195.018 54.818C252.416 49.1929 300.743 32.0186 357.683 25.8692C416.386 19.5358 483.513 29.2314 540.603 35.6568C595.89 41.8798 650.461 50.2784 706.206 55.5264C754.871 60.1258 792.154 48.2546 837.792 43.5678C866.083 40.6472 890.142 42.8411 916.053 48.4708C948.103 55.4155 981.523 60.9218 1015.85 64.9138C1076.24 71.9601 1146.74 77.0517 1208.79 72.673C1286.76 67.1767 1359.56 51.4007 1436.65 44.083" stroke="url(#paint43_linear_658:4082)" stroke-miterlimit="10"/>
<path d="M2.70703 37.754C69.715 38.9682 127.681 58.8838 196.183 52.3664C253.531 46.9069 302.246 30.0959 359.286 24.2271C417.909 18.1926 484.519 27.8192 541.519 34.102C596.408 40.1503 650.909 48.1947 706.475 52.7711C754.891 56.7589 793.618 45.6052 839.605 41.6175C868.095 39.1476 892.323 41.5577 918.323 47.1368C950.123 53.9088 983.35 59.1492 1017.48 62.7749C1078.22 69.2877 1147.65 73.1144 1209.67 68.7542C1287.03 63.3222 1360.28 49.2112 1436.67 41.7463" stroke="url(#paint44_linear_658:4082)" stroke-miterlimit="10"/>
<path d="M2.72693 34.9942C70.2029 36.2729 128.318 56.377 197.348 50.016C254.706 44.7312 303.83 28.2929 360.939 22.7138C419.483 16.9967 485.565 26.5267 542.525 32.6623C597.026 38.5358 651.446 46.1939 706.833 50.1034C755.04 53.5024 795.241 43.0755 841.556 39.8237C870.256 37.8045 894.653 40.4446 920.753 45.9409C952.306 52.5377 985.337 57.5075 1019.25 60.7603C1080.4 66.7073 1148.64 69.2278 1210.64 64.8998C1287.32 59.5368 1361.01 47.1276 1436.69 39.5385" stroke="url(#paint45_linear_658:4082)" stroke-miterlimit="10"/>
<path d="M2.7467 32.3223C70.7106 33.6699 128.975 53.9396 198.572 47.7718C255.931 42.671 305.463 26.6052 362.642 21.3296C421.106 15.9483 486.65 25.3587 543.54 31.338C597.673 37.0275 651.994 44.2762 707.142 47.5234C755.18 50.3521 796.844 40.6657 843.458 38.1498C872.337 36.5906 896.923 39.4698 923.123 44.8971C954.431 51.3063 987.262 55.9916 1020.94 58.8564C1082.48 64.2056 1149.52 65.3968 1211.52 61.101C1287.64 55.83 1361.62 45.1363 1436.64 37.4369" stroke="url(#paint46_linear_658:4082)" stroke-miterlimit="10"/>
<path d="M2.76685 29.7465C71.2287 31.1631 129.663 51.6398 199.817 45.6329C257.166 40.7161 307.136 25.0366 364.385 20.0876C422.749 15.0283 487.746 24.3329 544.626 30.1466C598.4 35.6659 652.602 42.4685 707.521 45.058C755.469 47.3209 798.557 38.3888 845.53 36.6134C874.617 35.5142 899.303 38.6464 925.752 44.0001C956.818 50.2183 989.45 54.6129 1022.88 57.0809C1163.29 67.793 1300.88 49.7218 1436.78 35.4636" stroke="url(#paint47_linear_658:4082)" stroke-miterlimit="10"/>
<path d="M2.78662 27.2534C71.7563 28.7482 130.36 49.4043 201.092 43.586C258.441 38.867 308.838 23.5784 366.157 18.9192C424.422 14.1818 488.871 23.3715 545.632 29.015C599.097 34.3457 653.139 40.7067 707.809 42.6247C755.747 44.3219 800.19 36.1855 847.511 35.1276C876.768 34.4837 901.663 37.8873 928.261 43.1628C958.972 49.2939 991.585 53.2034 1024.7 55.3651C1161.53 64.3018 1304.25 47.7117 1436.75 33.55" stroke="url(#paint48_linear_658:4082)" stroke-miterlimit="10"/>
<path d="M2.80652 24.8619C72.2841 26.4349 131.067 47.2704 202.377 41.6453C259.735 37.1056 310.551 22.2264 367.94 17.88C426.105 13.4783 489.996 22.5438 546.697 27.9987C599.873 33.1271 653.727 39.0374 708.148 40.3298C756.176 41.4705 801.873 34.1022 849.553 33.794C878.979 33.6054 904.033 37.2758 930.84 42.487C961.352 48.4156 993.746 51.9894 1026.58 53.7648C1089.12 57.1454 1152.55 54.2661 1214.58 50.1312C1289 45.1684 1363.54 39.7227 1436.77 31.7335" stroke="url(#paint49_linear_658:4082)" stroke-miterlimit="10"/>
<path d="M2.82666 22.5669C72.2146 24.1905 130.918 45.0627 202.158 39.9205C259.287 35.7811 310.203 21.4814 367.143 17.1441C424.701 12.7609 487.307 21.4584 543.511 26.711C597.842 31.7703 652.881 37.423 708.496 38.1314C757.869 38.7615 805.976 31.7979 855.239 32.612C884.974 33.1042 909.759 37.5932 937.015 42.579C965.325 47.758 995.22 50.7246 1025.45 52.1274C1089.8 55.1125 1153.62 50.7108 1217.21 46.5575C1290.6 41.7649 1364.64 38.0762 1436.82 30.064" stroke="url(#paint50_linear_658:4082)" stroke-miterlimit="10"/>
<path d="M2.83655 20.3729C72.7025 22.0747 131.644 43.1217 203.412 38.1773C260.552 34.2402 311.876 20.3177 368.906 16.2978C426.344 12.2687 488.453 20.842 544.576 25.9244C598.649 30.8274 653.478 36.0432 708.805 36.0432C758.466 36.0432 807.639 30.0041 857.31 31.5449C887.085 32.4648 912.08 37.2114 939.544 42.0914C967.666 47.0864 997.361 49.7403 1027.33 50.789C1091.89 53.0473 1154.61 47.2382 1218.18 43.1999C1291.09 38.5683 1365.13 36.5951 1436.8 28.4817" stroke="url(#paint51_linear_658:4082)" stroke-miterlimit="10"/>
<path d="M2.85632 18.2847C73.25 20.0647 132.311 41.2819 204.687 36.5307C261.846 32.7775 313.569 19.246 370.678 15.5388C427.997 11.8087 489.618 20.3222 545.711 25.239C599.485 29.9627 654.105 34.7093 709.143 34.0378C759.163 33.426 809.302 28.2931 859.391 30.5514C889.206 31.899 914.4 36.8986 942.043 41.6728C969.926 46.4884 999.481 48.8295 1029.18 49.5241C1093.9 51.0465 1155.58 43.8576 1219.14 39.9296C1291.59 35.4498 1365.52 35.2014 1436.77 26.9868" stroke="url(#paint52_linear_658:4082)" stroke-miterlimit="10"/>
<path d="M2.87634 16.3023C73.758 18.1421 133.068 39.5387 205.952 34.9852C263.121 31.4115 315.242 18.2479 372.441 14.8719C429.64 11.4959 490.763 19.8945 546.707 24.6411C600.352 29.1945 654.713 33.495 709.452 32.1474C759.91 30.9055 810.905 26.6925 861.413 29.6591C891.287 31.4115 916.66 36.6824 944.563 41.3462C972.465 46.0101 1001.64 48.0154 1031.06 48.365C1095.79 49.1423 1156.65 40.6057 1220.13 36.7882C1292.17 32.4555 1366.04 33.9274 1436.81 25.5932" stroke="url(#paint53_linear_658:4082)" stroke-miterlimit="10"/>
<path d="M2.88623 14.4258C74.2558 16.3576 133.775 37.8829 207.176 33.5411C264.376 30.1421 316.875 17.3786 374.154 14.2878C431.193 11.2108 491.938 19.5542 547.783 24.1398C601.268 28.5277 655.33 32.3774 709.801 30.3674C760.756 28.4863 812.509 25.1885 863.464 28.8496C893.249 30.993 918.921 36.5399 947.022 41.0979C974.606 45.5686 1003.78 47.2888 1032.88 47.3026C1097.61 47.3394 1157.7 37.4966 1221.09 33.7802C1292.79 29.5763 1366.48 32.7637 1436.81 24.2962" stroke="url(#paint54_linear_658:4082)" stroke-miterlimit="10"/>
<path d="M2.89624 12.6641C74.7438 14.6602 134.443 36.3649 208.371 32.1887C265.601 28.9691 318.478 16.5506 375.827 13.7909C432.807 11.0313 492.944 19.3102 548.798 23.7349C602.174 27.948 655.967 31.3654 710.119 28.7023C761.623 26.1726 814.042 23.7901 865.466 28.132C895.24 30.6387 921.131 36.4661 949.442 40.9184C976.897 45.2327 1005.82 46.6447 1034.65 46.3319C1099.28 45.6374 1158.74 34.5344 1222.04 30.9054C1293.33 26.8211 1366.84 31.7241 1436.84 23.0864" stroke="url(#paint55_linear_658:4082)" stroke-miterlimit="10"/>
<path d="M2.91614 11.0129C75.2118 13.0781 135.12 34.93 209.536 30.9377C266.795 27.8607 320.071 15.8423 377.45 13.3449C434.31 10.8704 493.959 19.1355 549.784 23.3946C603.06 27.4467 656.585 30.4364 710.428 27.134C762.509 23.942 815.576 22.4609 867.358 27.4697C897.102 30.3444 923.213 36.4478 951.772 40.8081C979.058 44.9476 1007.84 46.0882 1036.42 45.4581C1100.87 44.0461 1159.83 31.738 1223.02 28.1872C1293.97 24.1995 1367.25 30.8043 1436.92 21.9964" stroke="url(#paint56_linear_658:4082)" stroke-miterlimit="10"/>
<path d="M2.92615 9.47681C75.6202 11.6063 135.747 33.6146 210.642 29.7833C267.931 26.8489 321.505 15.1939 379.013 12.9724C435.774 10.783 494.985 19.0344 550.72 23.1463C603.927 27.0788 657.182 29.6177 710.707 25.6898C763.395 21.8263 816.94 21.2284 869.17 26.8857C898.855 30.1053 925.214 36.4847 953.963 40.7438C981.109 44.7637 1009.73 45.5962 1038.01 44.6671C1102.24 42.5559 1160.78 29.1118 1223.86 25.607C1294.56 21.6929 1367.54 29.9903 1436.9 20.9708" stroke="url(#paint57_linear_658:4082)" stroke-miterlimit="10"/>
<path d="M2.93591 8.0647C76.088 10.2448 136.374 32.4003 211.687 28.7208C269.026 25.9243 322.929 14.6143 380.497 12.6641C437.168 10.7462 495.921 18.9976 551.607 22.9807C604.763 26.7844 657.76 28.9001 710.986 24.3605C764.212 19.8209 818.284 20.0876 870.923 26.3704C900.538 29.9074 927.156 36.4892 956.064 40.7299C982.951 44.6808 1011.61 45.1775 1039.54 43.9495C1103.51 41.1898 1161.73 26.6602 1224.67 23.2014C1295.07 19.3333 1367.84 29.3095 1436.9 20.0462" stroke="url(#paint58_linear_658:4082)" stroke-miterlimit="10"/>
<path d="M2.99585 6.74927C76.5463 8.97539 136.962 31.2781 212.723 27.7411C270.042 25.078 324.264 14.1084 381.901 12.4112C438.443 10.7462 496.817 19.0252 552.443 22.8933C605.57 26.5728 658.318 28.2884 711.235 23.1509C765.148 17.9213 819.539 19.0114 872.556 25.9105C902.111 29.7464 928.958 36.5766 958.036 40.7575C984.813 44.6072 1013.32 44.828 1040.97 43.3516C1071.13 41.7372 1100.54 38.0392 1129.49 33.9365C1160.74 29.5165 1192.9 22.7737 1225.45 20.9891C1295.61 17.1394 1368.13 28.7714 1436.91 19.2321" stroke="url(#paint59_linear_658:4082)" stroke-miterlimit="10"/>
<path d="M2.99585 5.59937C76.9048 7.86229 137.43 30.3075 213.629 26.8901C270.998 24.3145 325.508 13.6484 383.216 12.2042C439.668 10.7737 497.624 19.1033 553.2 22.8748C606.326 26.4716 658.865 27.7824 711.474 22.0653C765.975 16.1413 820.724 18.0224 874.129 25.5195C903.555 29.659 930.631 36.6961 959.858 40.8172C986.526 44.575 1014.91 44.5474 1042.28 42.818C1072.38 40.923 1101.62 36.9031 1130.41 32.5383C1161.43 27.8376 1193.63 20.7453 1226.18 18.9469C1296.11 15.088 1368.41 28.3528 1436.92 18.487" stroke="url(#paint60_linear_658:4082)" stroke-miterlimit="10"/>
<path d="M2.99585 4.55542C77.2433 6.85514 137.928 29.4338 214.456 26.1176C271.864 23.6247 326.634 13.2805 384.391 12.0433C440.763 10.8336 498.331 19.2598 553.867 22.9348C607.004 26.4441 659.353 27.387 711.653 21.095C766.781 14.4856 821.779 17.1073 875.563 25.1793C904.88 29.5763 932.155 36.8297 961.531 40.9047C988.089 44.5843 1016.3 44.3267 1043.48 42.372C1073.51 40.2102 1102.6 35.8868 1131.24 31.2827C1162.05 26.3291 1194.29 18.9241 1226.83 17.0981C1296.54 13.1886 1368.67 28.0677 1436.95 17.8478" stroke="url(#paint61_linear_658:4082)" stroke-miterlimit="10"/>
<path d="M2.99585 3.64014C77.552 5.93985 138.336 28.6749 215.193 25.4369C272.671 23.013 327.719 12.954 385.536 11.9191C441.849 10.9072 499.058 19.4576 554.534 23.0589C607.691 26.5039 659.891 27.0973 711.872 20.2671C767.568 12.9494 822.706 16.261 876.868 24.8665C906.085 29.5166 933.539 36.9584 963.035 40.9967C989.504 44.6165 1017.62 44.1566 1044.53 41.9948C1074.53 39.5847 1103.45 34.9853 1131.96 30.1605C1162.6 24.9677 1194.87 17.3097 1227.45 15.4423C1297.02 11.45 1368.97 27.9068 1436.95 17.2821" stroke="url(#paint62_linear_658:4082)" stroke-miterlimit="10"/>
<path d="M2.99585 2.85815C77.8408 5.15787 138.685 28.0355 215.84 24.848C273.328 22.4747 328.625 12.6825 386.492 11.8087C442.745 10.9762 499.576 19.6783 555.052 23.229C608.238 26.6326 660.339 26.9086 712.022 19.5495C768.295 11.5327 823.463 15.4698 878.023 24.6089C907.11 29.4843 934.724 37.0963 964.33 41.107C990.719 44.6854 1018.69 44.0507 1045.42 41.705C1075.37 39.0695 1104.17 34.2217 1132.56 29.1945C1163.06 23.7902 1195.3 15.9343 1227.97 14.0164C1297.39 9.89989 1369.25 27.9067 1436.96 16.8128" stroke="url(#paint63_linear_658:4082)" stroke-miterlimit="10"/>
<path d="M2.99585 2.20508C77.4724 4.5048 138.117 27.3824 214.824 24.4158C275.439 22.0746 334.032 11.5005 395.195 11.7167C447.485 11.9007 499.954 19.8347 551.607 23.2475C606.486 26.8718 659.015 26.7707 712.161 19.0114C771.093 10.4289 826.31 14.9409 883.111 25.1471C908.574 29.7189 932.832 35.9557 958.484 40.2378C985.63 44.7682 1015.43 44.3267 1043.37 41.8108C1075.06 38.9592 1105.41 33.5318 1135.3 28.0125C1165.43 22.4288 1197.47 14.5684 1229.96 12.7286C1298.67 8.86046 1370.13 27.9573 1436.95 16.4403" stroke="url(#paint64_linear_658:4082)" stroke-miterlimit="10"/>
<path d="M2.99585 1.6897C77.6815 3.95722 138.326 26.9866 215.243 24.0154C275.877 21.6696 334.74 11.3439 395.882 11.6889C448.132 11.9878 500.333 20.1426 551.955 23.56C606.874 27.1936 659.393 26.8348 712.281 18.5696C771.81 9.26037 826.739 14.3013 884.008 25.0088C909.351 29.7462 933.679 36.0383 959.4 40.3249C986.486 44.86 1016.16 44.3265 1043.93 41.668C1075.61 38.637 1105.83 32.9751 1135.64 27.3085C1165.73 21.5869 1197.76 13.639 1230.33 11.7073C1298.91 7.66896 1370.45 28.1962 1436.96 16.1227" stroke="url(#paint65_linear_658:4082)" stroke-miterlimit="10"/>
<path d="M2.99585 1.32202C77.8309 3.55275 138.426 26.7201 215.561 23.7029C276.206 21.3296 335.198 11.2246 396.42 11.6799C448.65 12.0663 500.601 20.4833 552.204 23.9282C607.153 27.6078 659.752 27.0237 712.3 18.2617C772.407 8.24417 826.898 13.7083 884.655 24.8665C909.939 29.7465 934.326 36.1029 960.068 40.4402C987.134 44.9983 1016.55 44.4233 1044.3 41.6407C1108.42 35.2015 1165.87 15.0421 1230.61 10.9762C1299.07 6.67576 1370.8 28.5875 1436.96 15.9068" stroke="url(#paint66_linear_658:4082)" stroke-miterlimit="10"/>
<path d="M2.99585 1.08813C77.9504 3.27287 138.525 26.5782 215.75 23.4874C276.405 21.0543 335.596 11.1471 396.788 11.676C449.029 12.136 500.751 20.8473 552.334 24.3521C607.302 28.0868 660.08 27.3325 712.33 18.0968C772.965 7.37556 826.848 13.157 885.153 24.766C910.227 29.7472 934.674 36.3474 960.476 40.5145C987.88 44.9345 1016.41 44.5758 1044.46 41.6689C1108.69 35.009 1165.82 14.8312 1230.79 10.471C1299.16 5.87155 1371.2 29.1217 1436.92 15.7695" stroke="url(#paint67_linear_658:4082)" stroke-miterlimit="10"/>
<path d="M2.99585 1C78.03 3.12034 138.496 26.5637 215.8 23.3578C276.455 20.842 335.725 11.1004 397.037 11.6707C449.287 12.1582 500.811 21.2375 552.383 24.8251C607.352 28.6472 660.409 27.7687 712.35 18.0685C773.453 6.64811 826.579 12.6366 885.442 24.6871C939.215 35.6889 983.519 48.2132 1044.41 41.7648C1108.81 34.9438 1165.67 14.9363 1230.87 10.2265C1299.16 5.29127 1371.58 29.7971 1437 15.7458" stroke="url(#paint68_linear_658:4082)" stroke-miterlimit="10"/>
<path d="M1.6992 209.153C1.6992 209.153 -26.9382 251.89 224.273 227.635C475.485 203.38 678.361 41.7829 992.066 183.171C1305.77 324.56 1434 233.5 1434 233.5V312.5V380L1.6992 359.336" fill="white"/>
<defs>
<linearGradient id="paint0_linear_658:4082" x1="1.0338e+06" y1="346.67" x2="1.0338e+06" y2="272.45" gradientUnits="userSpaceOnUse">
<stop stop-color="#592CB8"/>
<stop offset="1" stop-color="#2C66B8"/>
</linearGradient>
<linearGradient id="paint1_linear_658:4082" x1="1.03378e+06" y1="528.668" x2="1.03378e+06" y2="314.486" gradientUnits="userSpaceOnUse">
<stop stop-color="#592CB8"/>
<stop offset="1" stop-color="#2C66B8"/>
</linearGradient>
<linearGradient id="paint2_linear_658:4082" x1="1.0338e+06" y1="768.447" x2="1.0338e+06" y2="372.906" gradientUnits="userSpaceOnUse">
<stop stop-color="#592CB8"/>
<stop offset="1" stop-color="#2C66B8"/>
</linearGradient>
<linearGradient id="paint3_linear_658:4082" x1="1.0338e+06" y1="1126.29" x2="1.0338e+06" y2="463.319" gradientUnits="userSpaceOnUse">
<stop stop-color="#592CB8"/>
<stop offset="1" stop-color="#2C66B8"/>
</linearGradient>
<linearGradient id="paint4_linear_658:4082" x1="1.0338e+06" y1="1720.53" x2="1.0338e+06" y2="616.573" gradientUnits="userSpaceOnUse">
<stop stop-color="#592CB8"/>
<stop offset="1" stop-color="#2C66B8"/>
</linearGradient>
<linearGradient id="paint5_linear_658:4082" x1="1.0338e+06" y1="2374.1" x2="1.0338e+06" y2="785.983" gradientUnits="userSpaceOnUse">
<stop stop-color="#592CB8"/>
<stop offset="1" stop-color="#2C66B8"/>
</linearGradient>
<linearGradient id="paint6_linear_658:4082" x1="1.0338e+06" y1="3169.55" x2="1.0338e+06" y2="993.103" gradientUnits="userSpaceOnUse">
<stop stop-color="#592CB8"/>
<stop offset="1" stop-color="#2C66B8"/>
</linearGradient>
<linearGradient id="paint7_linear_658:4082" x1="1.03379e+06" y1="4005.93" x2="1.03379e+06" y2="1211.25" gradientUnits="userSpaceOnUse">
<stop stop-color="#592CB8"/>
<stop offset="1" stop-color="#2C66B8"/>
</linearGradient>
<linearGradient id="paint8_linear_658:4082" x1="1.03381e+06" y1="4844.82" x2="1.03381e+06" y2="1430.19" gradientUnits="userSpaceOnUse">
<stop stop-color="#592CB8"/>
<stop offset="1" stop-color="#2C66B8"/>
</linearGradient>
<linearGradient id="paint9_linear_658:4082" x1="1.03378e+06" y1="5642.24" x2="1.03378e+06" y2="1638.17" gradientUnits="userSpaceOnUse">
<stop stop-color="#592CB8"/>
<stop offset="1" stop-color="#2C66B8"/>
</linearGradient>
<linearGradient id="paint10_linear_658:4082" x1="1.0338e+06" y1="6433.27" x2="1.0338e+06" y2="1844.28" gradientUnits="userSpaceOnUse">
<stop stop-color="#592CB8"/>
<stop offset="1" stop-color="#2C66B8"/>
</linearGradient>
<linearGradient id="paint11_linear_658:4082" x1="1.0338e+06" y1="7040.75" x2="1.0338e+06" y2="2001.83" gradientUnits="userSpaceOnUse">
<stop stop-color="#592CB8"/>
<stop offset="1" stop-color="#2C66B8"/>
</linearGradient>
<linearGradient id="paint12_linear_658:4082" x1="1.0338e+06" y1="7490.69" x2="1.0338e+06" y2="2117.52" gradientUnits="userSpaceOnUse">
<stop stop-color="#592CB8"/>
<stop offset="1" stop-color="#2C66B8"/>
</linearGradient>
<linearGradient id="paint13_linear_658:4082" x1="1.03383e+06" y1="7730.69" x2="1.03383e+06" y2="2177.35" gradientUnits="userSpaceOnUse">
<stop stop-color="#592CB8"/>
<stop offset="1" stop-color="#2C66B8"/>
</linearGradient>
<linearGradient id="paint14_linear_658:4082" x1="1.0338e+06" y1="7836.96" x2="1.0338e+06" y2="2201.36" gradientUnits="userSpaceOnUse">
<stop stop-color="#592CB8"/>
<stop offset="1" stop-color="#2C66B8"/>
</linearGradient>
<linearGradient id="paint15_linear_658:4082" x1="1.03378e+06" y1="7944.69" x2="1.03378e+06" y2="2225.76" gradientUnits="userSpaceOnUse">
<stop stop-color="#592CB8"/>
<stop offset="1" stop-color="#2C66B8"/>
</linearGradient>
<linearGradient id="paint16_linear_658:4082" x1="1.03379e+06" y1="8005.46" x2="1.03379e+06" y2="2237.95" gradientUnits="userSpaceOnUse">
<stop stop-color="#592CB8"/>
<stop offset="1" stop-color="#2C66B8"/>
</linearGradient>
<linearGradient id="paint17_linear_658:4082" x1="1.03383e+06" y1="8022.6" x2="1.03383e+06" y2="2238.79" gradientUnits="userSpaceOnUse">
<stop stop-color="#592CB8"/>
<stop offset="1" stop-color="#2C66B8"/>
</linearGradient>
<linearGradient id="paint18_linear_658:4082" x1="1.0338e+06" y1="8001.56" x2="1.0338e+06" y2="2229.71" gradientUnits="userSpaceOnUse">
<stop stop-color="#592CB8"/>
<stop offset="1" stop-color="#2C66B8"/>
</linearGradient>
<linearGradient id="paint19_linear_658:4082" x1="1.0338e+06" y1="7945.91" x2="1.0338e+06" y2="2211.64" gradientUnits="userSpaceOnUse">
<stop stop-color="#592CB8"/>
<stop offset="1" stop-color="#2C66B8"/>
</linearGradient>
<linearGradient id="paint20_linear_658:4082" x1="1.03381e+06" y1="7818.77" x2="1.03381e+06" y2="2174.93" gradientUnits="userSpaceOnUse">
<stop stop-color="#592CB8"/>
<stop offset="1" stop-color="#2C66B8"/>
</linearGradient>
<linearGradient id="paint21_linear_658:4082" x1="1.03382e+06" y1="7733.57" x2="1.03382e+06" y2="2149.31" gradientUnits="userSpaceOnUse">
<stop stop-color="#592CB8"/>
<stop offset="1" stop-color="#2C66B8"/>
</linearGradient>
<linearGradient id="paint22_linear_658:4082" x1="1.03378e+06" y1="7630.71" x2="1.03378e+06" y2="2119.13" gradientUnits="userSpaceOnUse">
<stop stop-color="#592CB8"/>
<stop offset="1" stop-color="#2C66B8"/>
</linearGradient>
<linearGradient id="paint23_linear_658:4082" x1="1.0338e+06" y1="7521.53" x2="1.0338e+06" y2="2087.4" gradientUnits="userSpaceOnUse">
<stop stop-color="#592CB8"/>
<stop offset="1" stop-color="#2C66B8"/>
</linearGradient>
<linearGradient id="paint24_linear_658:4082" x1="1.03383e+06" y1="7406.1" x2="1.03383e+06" y2="2054.09" gradientUnits="userSpaceOnUse">
<stop stop-color="#592CB8"/>
<stop offset="1" stop-color="#2C66B8"/>
</linearGradient>
<linearGradient id="paint25_linear_658:4082" x1="1.03379e+06" y1="7289.14" x2="1.03379e+06" y2="2020.43" gradientUnits="userSpaceOnUse">
<stop stop-color="#592CB8"/>
<stop offset="1" stop-color="#2C66B8"/>
</linearGradient>
<linearGradient id="paint26_linear_658:4082" x1="1.0338e+06" y1="7136.87" x2="1.0338e+06" y2="1977.55" gradientUnits="userSpaceOnUse">
<stop stop-color="#592CB8"/>
<stop offset="1" stop-color="#2C66B8"/>
</linearGradient>
<linearGradient id="paint27_linear_658:4082" x1="1.03378e+06" y1="7027.89" x2="1.03378e+06" y2="1946.11" gradientUnits="userSpaceOnUse">
<stop stop-color="#592CB8"/>
<stop offset="1" stop-color="#2C66B8"/>
</linearGradient>
<linearGradient id="paint28_linear_658:4082" x1="1.03378e+06" y1="6930.76" x2="1.03378e+06" y2="1917.81" gradientUnits="userSpaceOnUse">
<stop stop-color="#592CB8"/>
<stop offset="1" stop-color="#2C66B8"/>
</linearGradient>
<linearGradient id="paint29_linear_658:4082" x1="1.03378e+06" y1="6854.43" x2="1.03378e+06" y2="1895.04" gradientUnits="userSpaceOnUse">
<stop stop-color="#592CB8"/>
<stop offset="1" stop-color="#2C66B8"/>
</linearGradient>
<linearGradient id="paint30_linear_658:4082" x1="1.03383e+06" y1="6788.58" x2="1.03383e+06" y2="1874.99" gradientUnits="userSpaceOnUse">
<stop stop-color="#592CB8"/>
<stop offset="1" stop-color="#2C66B8"/>
</linearGradient>
<linearGradient id="paint31_linear_658:4082" x1="1.0338e+06" y1="6755.91" x2="1.0338e+06" y2="1863.7" gradientUnits="userSpaceOnUse">
<stop stop-color="#592CB8"/>
<stop offset="1" stop-color="#2C66B8"/>
</linearGradient>
<linearGradient id="paint32_linear_658:4082" x1="1.0338e+06" y1="6740.25" x2="1.0338e+06" y2="1856.87" gradientUnits="userSpaceOnUse">
<stop stop-color="#592CB8"/>
<stop offset="1" stop-color="#2C66B8"/>
</linearGradient>
<linearGradient id="paint33_linear_658:4082" x1="1.03383e+06" y1="6697.11" x2="1.03383e+06" y2="1842.77" gradientUnits="userSpaceOnUse">
<stop stop-color="#592CB8"/>
<stop offset="1" stop-color="#2C66B8"/>
</linearGradient>
<linearGradient id="paint34_linear_658:4082" x1="1.0338e+06" y1="6632.3" x2="1.0338e+06" y2="1822.96" gradientUnits="userSpaceOnUse">
<stop stop-color="#592CB8"/>
<stop offset="1" stop-color="#2C66B8"/>
</linearGradient>
<linearGradient id="paint35_linear_658:4082" x1="1.03383e+06" y1="6537.75" x2="1.03383e+06" y2="1795.27" gradientUnits="userSpaceOnUse">
<stop stop-color="#592CB8"/>
<stop offset="1" stop-color="#2C66B8"/>
</linearGradient>
<linearGradient id="paint36_linear_658:4082" x1="1.0338e+06" y1="6424.5" x2="1.0338e+06" y2="1762.67" gradientUnits="userSpaceOnUse">
<stop stop-color="#592CB8"/>
<stop offset="1" stop-color="#2C66B8"/>
</linearGradient>
<linearGradient id="paint37_linear_658:4082" x1="1.03383e+06" y1="6289.11" x2="1.03383e+06" y2="1724.21" gradientUnits="userSpaceOnUse">
<stop stop-color="#592CB8"/>
<stop offset="1" stop-color="#2C66B8"/>
</linearGradient>
<linearGradient id="paint38_linear_658:4082" x1="1.0338e+06" y1="6138.16" x2="1.0338e+06" y2="1681.69" gradientUnits="userSpaceOnUse">
<stop stop-color="#592CB8"/>
<stop offset="1" stop-color="#2C66B8"/>
</linearGradient>
<linearGradient id="paint39_linear_658:4082" x1="1.0338e+06" y1="5967.24" x2="1.0338e+06" y2="1633.9" gradientUnits="userSpaceOnUse">
<stop stop-color="#592CB8"/>
<stop offset="1" stop-color="#2C66B8"/>
</linearGradient>
<linearGradient id="paint40_linear_658:4082" x1="1.03379e+06" y1="5777.54" x2="1.03379e+06" y2="1581.16" gradientUnits="userSpaceOnUse">
<stop stop-color="#592CB8"/>
<stop offset="1" stop-color="#2C66B8"/>
</linearGradient>
<linearGradient id="paint41_linear_658:4082" x1="1.0338e+06" y1="5581.88" x2="1.0338e+06" y2="1526.93" gradientUnits="userSpaceOnUse">
<stop stop-color="#592CB8"/>
<stop offset="1" stop-color="#2C66B8"/>
</linearGradient>
<linearGradient id="paint42_linear_658:4082" x1="1.0338e+06" y1="5370.41" x2="1.0338e+06" y2="1468.54" gradientUnits="userSpaceOnUse">
<stop stop-color="#592CB8"/>
<stop offset="1" stop-color="#2C66B8"/>
</linearGradient>
<linearGradient id="paint43_linear_658:4082" x1="1.03381e+06" y1="5157.33" x2="1.03381e+06" y2="1409.81" gradientUnits="userSpaceOnUse">
<stop stop-color="#592CB8"/>
<stop offset="1" stop-color="#2C66B8"/>
</linearGradient>
<linearGradient id="paint44_linear_658:4082" x1="1.03381e+06" y1="4933.09" x2="1.03381e+06" y2="1348.18" gradientUnits="userSpaceOnUse">
<stop stop-color="#592CB8"/>
<stop offset="1" stop-color="#2C66B8"/>
</linearGradient>
<linearGradient id="paint45_linear_658:4082" x1="1.03381e+06" y1="4709.88" x2="1.03381e+06" y2="1286.92" gradientUnits="userSpaceOnUse">
<stop stop-color="#592CB8"/>
<stop offset="1" stop-color="#2C66B8"/>
</linearGradient>
<linearGradient id="paint46_linear_658:4082" x1="1.03375e+06" y1="4491.36" x2="1.03375e+06" y2="1227.03" gradientUnits="userSpaceOnUse">
<stop stop-color="#592CB8"/>
<stop offset="1" stop-color="#2C66B8"/>
</linearGradient>
<linearGradient id="paint47_linear_658:4082" x1="1.03384e+06" y1="4257.32" x2="1.03384e+06" y2="1163.04" gradientUnits="userSpaceOnUse">
<stop stop-color="#592CB8"/>
<stop offset="1" stop-color="#2C66B8"/>
</linearGradient>
<linearGradient id="paint48_linear_658:4082" x1="1.03381e+06" y1="4113.03" x2="1.03381e+06" y2="1123.34" gradientUnits="userSpaceOnUse">
<stop stop-color="#592CB8"/>
<stop offset="1" stop-color="#2C66B8"/>
</linearGradient>
<linearGradient id="paint49_linear_658:4082" x1="1.03381e+06" y1="3935.22" x2="1.03381e+06" y2="1074.68" gradientUnits="userSpaceOnUse">
<stop stop-color="#592CB8"/>
<stop offset="1" stop-color="#2C66B8"/>
</linearGradient>
<linearGradient id="paint50_linear_658:4082" x1="1.03383e+06" y1="3793.88" x2="1.03383e+06" y2="1035.96" gradientUnits="userSpaceOnUse">
<stop stop-color="#592CB8"/>
<stop offset="1" stop-color="#2C66B8"/>
</linearGradient>
<linearGradient id="paint51_linear_658:4082" x1="1.03381e+06" y1="3679.55" x2="1.03381e+06" y2="1004.58" gradientUnits="userSpaceOnUse">
<stop stop-color="#592CB8"/>
<stop offset="1" stop-color="#2C66B8"/>
</linearGradient>
<linearGradient id="paint52_linear_658:4082" x1="1.03377e+06" y1="3584.49" x2="1.03377e+06" y2="978.452" gradientUnits="userSpaceOnUse">
<stop stop-color="#592CB8"/>
<stop offset="1" stop-color="#2C66B8"/>
</linearGradient>
<linearGradient id="paint53_linear_658:4082" x1="1.03378e+06" y1="3503.63" x2="1.03378e+06" y2="956.236" gradientUnits="userSpaceOnUse">
<stop stop-color="#592CB8"/>
<stop offset="1" stop-color="#2C66B8"/>
</linearGradient>
<linearGradient id="paint54_linear_658:4082" x1="1.03378e+06" y1="3437.85" x2="1.03378e+06" y2="938.135" gradientUnits="userSpaceOnUse">
<stop stop-color="#592CB8"/>
<stop offset="1" stop-color="#2C66B8"/>
</linearGradient>
<linearGradient id="paint55_linear_658:4082" x1="1.03379e+06" y1="3439.91" x2="1.03379e+06" y2="937.991" gradientUnits="userSpaceOnUse">
<stop stop-color="#592CB8"/>
<stop offset="1" stop-color="#2C66B8"/>
</linearGradient>
<linearGradient id="paint56_linear_658:4082" x1="1.03383e+06" y1="3529.51" x2="1.03383e+06" y2="960.975" gradientUnits="userSpaceOnUse">
<stop stop-color="#592CB8"/>
<stop offset="1" stop-color="#2C66B8"/>
</linearGradient>
<linearGradient id="paint57_linear_658:4082" x1="1.03381e+06" y1="3622.33" x2="1.03381e+06" y2="984.915" gradientUnits="userSpaceOnUse">
<stop stop-color="#592CB8"/>
<stop offset="1" stop-color="#2C66B8"/>
</linearGradient>
<linearGradient id="paint58_linear_658:4082" x1="1.03381e+06" y1="3716.79" x2="1.03381e+06" y2="1009.39" gradientUnits="userSpaceOnUse">
<stop stop-color="#592CB8"/>
<stop offset="1" stop-color="#2C66B8"/>
</linearGradient>
<linearGradient id="paint59_linear_658:4082" x1="1.03377e+06" y1="3813.97" x2="1.03377e+06" y2="1034.66" gradientUnits="userSpaceOnUse">
<stop stop-color="#592CB8"/>
<stop offset="1" stop-color="#2C66B8"/>
</linearGradient>
<linearGradient id="paint60_linear_658:4082" x1="1.03378e+06" y1="3904.04" x2="1.03378e+06" y2="1058.14" gradientUnits="userSpaceOnUse">
<stop stop-color="#592CB8"/>
<stop offset="1" stop-color="#2C66B8"/>
</linearGradient>
<linearGradient id="paint61_linear_658:4082" x1="1.0338e+06" y1="3992.1" x2="1.0338e+06" y2="1081.16" gradientUnits="userSpaceOnUse">
<stop stop-color="#592CB8"/>
<stop offset="1" stop-color="#2C66B8"/>
</linearGradient>
<linearGradient id="paint62_linear_658:4082" x1="1.0338e+06" y1="4073.33" x2="1.0338e+06" y2="1102.42" gradientUnits="userSpaceOnUse">
<stop stop-color="#592CB8"/>
<stop offset="1" stop-color="#2C66B8"/>
</linearGradient>
<linearGradient id="paint63_linear_658:4082" x1="1.03381e+06" y1="4147.88" x2="1.03381e+06" y2="1121.98" gradientUnits="userSpaceOnUse">
<stop stop-color="#592CB8"/>
<stop offset="1" stop-color="#2C66B8"/>
</linearGradient>
<linearGradient id="paint64_linear_658:4082" x1="1.0338e+06" y1="4219.36" x2="1.0338e+06" y2="1140.8" gradientUnits="userSpaceOnUse">
<stop stop-color="#592CB8"/>
<stop offset="1" stop-color="#2C66B8"/>
</linearGradient>
<linearGradient id="paint65_linear_658:4082" x1="1.03381e+06" y1="4273.15" x2="1.03381e+06" y2="1154.94" gradientUnits="userSpaceOnUse">
<stop stop-color="#592CB8"/>
<stop offset="1" stop-color="#2C66B8"/>
</linearGradient>
<linearGradient id="paint66_linear_658:4082" x1="1.03381e+06" y1="4319.88" x2="1.03381e+06" y2="1167.29" gradientUnits="userSpaceOnUse">
<stop stop-color="#592CB8"/>
<stop offset="1" stop-color="#2C66B8"/>
</linearGradient>
<linearGradient id="paint67_linear_658:4082" x1="1.03378e+06" y1="4348.43" x2="1.03378e+06" y2="1174.83" gradientUnits="userSpaceOnUse">
<stop stop-color="#592CB8"/>
<stop offset="1" stop-color="#2C66B8"/>
</linearGradient>
<linearGradient id="paint68_linear_658:4082" x1="1.03383e+06" y1="4324.64" x2="1.03383e+06" y2="1168.34" gradientUnits="userSpaceOnUse">
<stop stop-color="#592CB8"/>
<stop offset="1" stop-color="#2C66B8"/>
</linearGradient>
</defs>
</svg>
