<svg width="417" height="341" viewBox="0 0 417 341" fill="none" xmlns="http://www.w3.org/2000/svg">
<path d="M341.677 265.68C329.896 263.467 317.168 226.002 339.104 213.464C361.04 200.926 368.487 194.288 372.956 165.083C377.424 135.877 393.132 149.742 389.611 166.853C386.09 183.963 409.516 181.751 414.391 190.011C422.921 204.171 404.1 206.384 393.403 214.349C382.705 222.314 401.798 227.919 394.215 241.489C386.632 255.06 361.717 269.515 341.677 265.68Z" fill="#32B5C6"/>
<path d="M340.458 265.385L344.656 257.42L348.853 249.455C351.697 244.144 354.676 238.982 357.655 233.819C360.634 228.657 363.748 223.494 366.998 218.479C368.623 215.971 370.248 213.464 372.008 210.956C373.768 208.449 375.393 206.089 377.289 203.729C376.477 205.056 375.799 206.236 374.987 207.564L372.685 211.399C371.196 213.906 369.571 216.561 368.081 219.069L359.009 234.557C356.03 239.719 352.916 244.882 349.801 250.045C346.822 255.207 343.843 260.37 340.458 265.385Z" fill="white"/>
<path d="M352.645 244.144C357.249 242.227 361.988 240.899 366.863 239.719C371.602 238.539 376.477 237.507 381.351 236.917C376.747 238.834 372.008 240.162 367.133 241.342C362.394 242.522 357.519 243.554 352.645 244.144Z" fill="white"/>
<path d="M364.29 224.231C363.748 221.134 363.748 217.889 363.748 214.791C363.884 211.694 364.154 208.596 364.832 205.499C365.373 208.596 365.373 211.841 365.373 214.939C365.238 218.036 365.102 221.134 364.29 224.231Z" fill="white"/>
<path d="M345.333 284.413C345.333 284.413 338.698 270.4 350.072 261.402C361.311 252.405 366.321 240.752 359.957 230.132C353.457 219.511 336.938 226.149 330.032 220.987C322.991 215.971 326.105 205.056 320.282 193.256C312.564 177.473 297.805 181.603 294.284 184.111C290.764 186.618 284.67 193.993 292.659 208.301C300.784 222.609 294.826 227.624 288.326 238.834C281.962 250.045 293.201 254.47 311.481 258.157C329.761 261.992 332.875 286.331 332.875 286.331L345.333 284.413Z" fill="#4DD0E1"/>
<path d="M340.729 298.573C340.593 293.853 340.187 289.281 339.646 284.708C338.969 280.136 338.291 275.563 337.344 270.99C336.396 266.418 335.313 261.993 333.958 257.567L331.927 250.93L329.625 244.44C328.948 242.227 328 240.162 327.053 238.097C326.105 236.032 325.428 233.819 324.344 231.902L321.366 225.707C320.959 224.674 320.282 223.642 319.741 222.757L318.116 219.807C313.783 211.841 308.637 204.466 303.492 197.091C304.981 198.861 306.335 200.484 307.825 202.254C309.179 204.024 310.804 205.646 312.022 207.564C314.595 211.251 317.303 214.939 319.605 218.922C324.48 226.592 328.271 235.147 331.521 243.702C334.771 252.405 337.208 261.403 338.833 270.548C339.646 275.12 340.187 279.84 340.593 284.413C340.864 289.281 341.135 293.853 340.729 298.573Z" fill="white"/>
<path d="M333.011 252.848C330.574 250.487 328.001 248.422 325.157 246.8C322.314 245.177 319.47 243.85 316.491 242.817C315.002 242.375 313.512 241.785 311.887 241.637C311.075 241.49 310.398 241.195 309.585 241.195C308.773 241.047 307.961 240.9 307.284 240.9C306.471 240.752 305.659 240.752 304.846 240.605L302.409 240.31C300.784 240.162 299.159 240.162 297.534 240.015C299.159 239.72 300.784 239.425 302.409 239.13C304.034 239.13 305.659 238.835 307.284 238.982C310.533 238.982 313.919 239.72 317.033 240.605C320.147 241.785 323.262 243.26 325.97 245.325C328.813 247.242 331.386 249.75 333.011 252.848Z" fill="white"/>
<path d="M335.854 261.55C334.771 258.6 334.5 255.207 334.636 251.962C334.771 248.717 335.719 245.472 337.208 242.522L337.75 241.49C337.885 241.195 338.156 240.752 338.427 240.457C338.969 239.867 339.24 239.13 339.917 238.54L341.541 236.77C342.083 236.179 342.76 235.737 343.437 235.294C344.656 234.262 346.145 233.672 347.364 233.082C348.718 232.492 350.207 232.197 351.697 231.754C350.478 232.639 349.124 233.229 347.906 234.114C346.687 234.999 345.468 235.737 344.52 236.77C342.354 238.687 340.594 241.047 339.24 243.555C337.885 246.21 336.938 249.012 336.531 252.11C335.854 255.207 335.719 258.453 335.854 261.55Z" fill="white"/>
<path d="M384.872 277.186C405.725 282.938 406.267 263.025 393.538 251.963C385.549 245.03 401.934 241.342 408.162 234.557C418.995 223.052 401.527 208.449 392.59 218.627C383.518 228.805 377.966 231.902 371.331 232.787C364.696 233.672 346.146 233.82 347.771 246.8C348.718 254.765 342.354 261.698 343.302 269.811C362.53 262.583 374.04 274.088 384.872 277.186Z" fill="#60E3F4"/>
<path d="M343.167 269.81C350.749 262.583 359.009 256.24 367.404 250.192C371.602 247.242 375.935 244.44 380.404 241.785C384.872 239.13 389.341 236.77 394.08 234.852C389.747 237.655 385.414 240.457 381.216 243.407C377.018 246.357 372.685 249.16 368.488 252.11L355.895 260.96C351.697 263.91 347.5 266.86 343.167 269.81Z" fill="white"/>
<path d="M364.696 253.437C364.561 251.962 364.561 250.34 364.561 248.865C364.561 247.39 364.831 245.915 364.967 244.44C365.238 242.965 365.508 241.49 365.779 240.015C366.185 238.54 366.592 237.212 367.269 235.737C367.404 237.212 367.404 238.835 367.404 240.31C367.404 241.785 367.133 243.26 366.998 244.735C366.727 246.21 366.456 247.685 366.185 249.012C365.779 250.635 365.373 252.11 364.696 253.437Z" fill="white"/>
<path d="M359.009 257.567C361.447 257.125 364.019 256.83 366.457 256.682C368.894 256.535 371.467 256.535 373.904 256.535C376.341 256.535 378.914 256.682 381.352 256.83C383.789 256.977 386.362 257.272 388.799 257.715C386.362 258.157 383.789 258.452 381.352 258.6C378.914 258.747 376.341 258.747 373.904 258.747C371.467 258.747 368.894 258.6 366.457 258.452C363.884 258.305 361.447 258.157 359.009 257.567Z" fill="white"/>
<path d="M365.508 306.833H334.906L327.729 273.498H372.549L365.508 306.833Z" fill="#39306C"/>
<path d="M377.425 265.09H322.991V278.513H377.425V265.09Z" fill="#4B4583"/>
<g opacity="0.74">
<path opacity="0.74" d="M65.5809 269.22C67.7474 263.32 73.0284 261.55 75.6011 256.24C80.205 246.8 72.4867 244.292 71.5389 237.949C70.3202 229.542 75.7365 230.279 78.5801 225.117C81.8298 219.069 76.2782 211.989 79.6633 206.236C88.194 192.076 102.006 207.564 110.942 210.956C116.494 213.021 124.754 213.759 129.087 209.924C134.774 204.909 140.461 193.256 134.503 186.471C125.973 177.03 129.087 172.163 138.295 169.655C142.357 168.623 144.253 165.23 139.784 161.248C146.69 172.163 123.671 162.28 119.609 169.655C116.765 174.818 120.286 177.768 121.233 181.751C123.806 191.781 117.442 200.483 104.172 190.453C96.5893 184.701 97.1309 174.375 89.1419 171.72C81.5591 169.213 72.7575 176.588 70.0494 186.471C67.3412 196.206 64.0915 201.221 54.3421 200.188C42.8325 198.861 34.0309 206.679 39.1764 217.889C43.7803 227.772 56.3732 222.166 62.7374 227.919C69.914 234.262 67.612 242.964 58.4043 251.077C55.5608 253.585 51.0923 257.42 52.311 261.697C52.988 264.5 57.5919 268.925 60.5709 269.073L65.5809 269.22Z" fill="white"/>
</g>
<path d="M82.6418 273.055H80.2045V269.368C80.2045 267.892 79.1212 266.565 77.6317 266.565H48.5191C47.165 266.565 45.9463 267.745 45.9463 269.368V291.493C45.9463 299.901 52.1751 306.686 59.8933 306.686H66.2574C72.3508 306.686 77.6317 302.408 79.392 296.361H82.6418C85.0791 296.361 87.1103 294.148 87.1103 291.493V277.775C87.1103 275.268 85.0791 273.055 82.6418 273.055ZM84.2667 291.788C84.2667 292.821 83.5896 293.558 82.6418 293.558H80.069C80.069 292.968 80.2045 292.378 80.2045 291.788V276.3H82.6418C83.5896 276.3 84.2667 277.038 84.2667 278.07V291.788Z" fill="#E02D76"/>
<path d="M76.413 274.53C76.413 271.728 75.8714 269.073 74.9235 266.713H48.5191C47.165 266.713 45.9463 267.893 45.9463 269.515V291.641C45.9463 294.296 46.6234 296.803 47.7066 299.016C48.1128 299.016 48.519 299.016 48.9253 299.016C64.0909 299.163 76.413 288.101 76.413 274.53Z" fill="#F7327A"/>
<path d="M388.122 340.317H19.5423C15.6155 340.317 12.3657 336.777 12.3657 332.499C12.3657 328.221 15.6155 324.681 19.5423 324.681H388.122C392.049 324.681 395.299 328.221 395.299 332.499C395.299 336.777 392.049 340.317 388.122 340.317Z" fill="#39306C"/>
<path d="M397.194 328.812H10.47C4.91827 328.812 0.449829 323.944 0.449829 317.896C0.449829 311.849 4.91827 306.981 10.47 306.981H397.194C402.746 306.981 407.214 311.849 407.214 317.896C407.214 323.944 402.746 328.812 397.194 328.812Z" fill="#221B4C"/>
<path d="M334.636 126.437C349.069 126.437 360.77 113.691 360.77 97.9686C360.77 82.2461 349.069 69.5005 334.636 69.5005C320.203 69.5005 308.502 82.2461 308.502 97.9686C308.502 113.691 320.203 126.437 334.636 126.437Z" fill="#4B4583"/>
<path d="M334.635 120.241C345.928 120.241 355.082 110.269 355.082 97.9683C355.082 85.6673 345.928 75.6953 334.635 75.6953C323.343 75.6953 314.189 85.6673 314.189 97.9683C314.189 110.269 323.343 120.241 334.635 120.241Z" fill="white"/>
<path d="M334.636 97.9687V84.5459" stroke="#4B4583" stroke-width="0.9782" stroke-miterlimit="10" stroke-linecap="round" stroke-linejoin="round"/>
<path d="M334.636 97.9688L342.083 106.081" stroke="#4B4583" stroke-width="0.9782" stroke-miterlimit="10" stroke-linecap="round" stroke-linejoin="round"/>
<path d="M334.636 117.734V115.079" stroke="#4B4583" stroke-width="0.6843" stroke-miterlimit="10" stroke-linecap="round" stroke-linejoin="round"/>
<path d="M343.573 115.079L342.354 112.719" stroke="#4B4583" stroke-width="0.6843" stroke-miterlimit="10" stroke-linecap="round" stroke-linejoin="round"/>
<path d="M350.208 107.851L348.177 106.524" stroke="#4B4583" stroke-width="0.6843" stroke-miterlimit="10" stroke-linecap="round" stroke-linejoin="round"/>
<path d="M352.645 97.9683H350.208" stroke="#4B4583" stroke-width="0.6843" stroke-miterlimit="10" stroke-linecap="round" stroke-linejoin="round"/>
<path d="M350.208 88.0857L348.177 89.4132" stroke="#4B4583" stroke-width="0.6843" stroke-miterlimit="10" stroke-linecap="round" stroke-linejoin="round"/>
<path d="M343.573 80.8582L342.354 83.2182" stroke="#4B4583" stroke-width="0.6843" stroke-miterlimit="10" stroke-linecap="round" stroke-linejoin="round"/>
<path d="M334.636 80.8582V78.2031" stroke="#4B4583" stroke-width="0.6843" stroke-miterlimit="10" stroke-linecap="round" stroke-linejoin="round"/>
<path d="M326.782 83.2182L325.563 80.8582" stroke="#4B4583" stroke-width="0.6843" stroke-miterlimit="10" stroke-linecap="round" stroke-linejoin="round"/>
<path d="M320.96 89.4132L318.928 88.0857" stroke="#4B4583" stroke-width="0.6843" stroke-miterlimit="10" stroke-linecap="round" stroke-linejoin="round"/>
<path d="M318.928 97.9683H316.491" stroke="#4B4583" stroke-width="0.6843" stroke-miterlimit="10" stroke-linecap="round" stroke-linejoin="round"/>
<path d="M320.96 106.524L318.928 107.851" stroke="#4B4583" stroke-width="0.6843" stroke-miterlimit="10" stroke-linecap="round" stroke-linejoin="round"/>
<path d="M326.782 112.719L325.563 115.079" stroke="#4B4583" stroke-width="0.6843" stroke-miterlimit="10" stroke-linecap="round" stroke-linejoin="round"/>
<path d="M334.636 99.2962C335.309 99.2962 335.854 98.7018 335.854 97.9686C335.854 97.2355 335.309 96.6411 334.636 96.6411C333.963 96.6411 333.417 97.2355 333.417 97.9686C333.417 98.7018 333.963 99.2962 334.636 99.2962Z" fill="#4B4583"/>
<path d="M145.065 67.2881C133.962 55.1928 115.817 55.3403 104.849 67.7306C94.8287 79.0884 94.2871 97.3788 103.901 109.179C113.244 120.684 128.274 122.749 139.649 115.374C140.597 114.784 141.815 114.637 143.034 114.932L150.21 117.292C150.752 117.439 151.294 116.849 151.158 116.259L148.992 108.442C148.721 107.262 148.856 105.934 149.398 104.754C155.762 92.9537 154.408 77.4658 145.065 67.2881Z" fill="#F7327A"/>
<path d="M109.182 75.5483H141.139" stroke="white" stroke-width="1.6653" stroke-miterlimit="10" stroke-linecap="round" stroke-linejoin="round"/>
<path d="M133.42 84.5461H141.138" stroke="white" stroke-width="1.6653" stroke-miterlimit="10" stroke-linecap="round" stroke-linejoin="round"/>
<path d="M109.182 84.5461H125.837" stroke="white" stroke-width="1.6653" stroke-miterlimit="10" stroke-linecap="round" stroke-linejoin="round"/>
<path d="M123.806 93.5437H141.138" stroke="white" stroke-width="1.6653" stroke-miterlimit="10" stroke-linecap="round" stroke-linejoin="round"/>
<path d="M109.182 93.5437H117.442" stroke="white" stroke-width="1.6653" stroke-miterlimit="10" stroke-linecap="round" stroke-linejoin="round"/>
<path d="M133.42 102.394H141.138" stroke="white" stroke-width="1.6653" stroke-miterlimit="10" stroke-linecap="round" stroke-linejoin="round"/>
<path d="M109.182 102.394H125.431" stroke="white" stroke-width="1.6653" stroke-miterlimit="10" stroke-linecap="round" stroke-linejoin="round"/>
<path d="M203.968 81.8909C203.968 81.8909 201.124 68.1731 213.175 56.3728C225.227 44.5725 244.048 45.605 254.204 51.8002C267.474 59.7654 280.608 80.8584 268.557 110.949C256.641 141.04 311.346 128.649 292.93 169.36C274.65 210.071 242.83 181.898 231.455 198.861C220.081 215.676 180.542 171.425 214.259 140.597C248.246 109.474 206.54 109.622 203.968 81.8909Z" fill="#221B4C"/>
<path d="M200.853 171.573C187.042 178.063 175.532 216.119 174.449 297.689H204.238C204.374 297.689 222.518 161.543 200.853 171.573Z" fill="#1700D0"/>
<path d="M237.955 159.478C254.339 157.708 281.015 160.658 290.493 172.163C292.66 174.671 292.66 179.538 291.441 186.028C287.379 209.334 269.099 255.355 278.848 306.834H193.812C193.812 306.834 201.937 266.713 197.333 254.027C192.187 239.572 187.719 226.444 192.729 214.349C204.239 186.766 193.948 175.408 201.26 171.426C211.415 165.82 224.144 160.953 237.955 159.478Z" fill="#0011D0"/>
<path d="M273.026 227.624C269.505 250.192 245.538 252.847 233.487 248.57C233.487 248.57 250.954 260.075 263.547 253.585C263.547 253.585 266.797 264.648 261.922 299.164H277.629C277.629 299.164 277.629 299.164 277.629 299.016C275.192 280.873 275.869 263.615 278.036 247.98C278.442 243.997 278.984 240.457 279.661 237.507C279.661 237.507 279.661 237.507 279.661 237.36C281.692 226.297 284.129 216.267 286.296 207.416C287.243 201.516 287.65 196.206 287.65 189.716C287.785 189.716 276.546 205.204 273.026 227.624Z" fill="#0016A2"/>
<path d="M273.974 276.005C273.974 276.005 259.079 295.918 251.902 290.46C242.424 283.38 234.57 283.38 228.206 287.51C221.706 291.788 219.134 299.163 219.134 299.163H270.182L285.077 285.15L273.974 276.005Z" fill="#F4AE98"/>
<path d="M291.035 173.048C291.035 173.048 304.169 210.366 315.408 240.9C324.481 265.533 269.776 299.163 269.776 299.163L260.704 285.888L292.254 247.832L273.026 203.581C273.026 203.581 261.787 179.391 278.848 170.835C288.191 165.968 291.035 173.048 291.035 173.048Z" fill="#0034D0"/>
<path d="M249.058 123.192C249.058 123.192 247.027 151.512 253.256 158.887C261.245 168.328 247.163 188.831 226.039 204.466C226.039 204.466 214.259 190.158 223.466 166.853C232.674 143.547 223.737 130.419 223.737 130.419L249.058 123.192Z" fill="#F4AE98"/>
<path d="M253.256 110.949C253.256 130.272 240.663 146.055 230.102 146.055C219.54 146.055 206.27 133.222 204.509 109.327C203.02 90.0036 212.634 75.8433 227.123 75.8433C241.611 75.8433 253.256 91.4786 253.256 110.949Z" fill="#FFB99F"/>
<path d="M209.113 71.2705C207.624 72.1555 204.374 74.5156 200.582 77.1706C196.52 80.1207 192.187 85.2833 190.562 90.8885C187.99 100.476 194.489 112.719 207.488 108.441C220.487 104.164 226.716 81.4482 237.143 94.576C250.277 110.801 255.016 101.804 255.016 101.804C255.016 101.804 252.444 81.4482 239.174 72.4505C232.132 67.4354 221.435 63.4528 209.113 71.2705Z" fill="#221B4C"/>
<path d="M262.057 103.869C262.057 110.211 258.672 115.374 254.339 115.374C250.142 115.374 246.621 110.211 246.621 103.869C246.621 97.5261 250.006 92.3635 254.339 92.3635C258.537 92.511 262.057 97.5261 262.057 103.869Z" fill="#F7327A"/>
<path d="M230.237 65.6655C218.456 63.158 207.082 68.0256 200.718 77.1708C207.759 71.8607 217.102 69.6481 226.581 71.5657C242.288 74.8107 253.391 88.6761 253.662 104.164C253.933 103.131 254.204 102.099 254.339 101.066C257.183 84.9885 246.35 69.0581 230.237 65.6655Z" fill="#F7327A"/>
<path d="M252.714 107.704C252.714 107.704 254.881 133.664 232.945 136.025" stroke="#F7327A" stroke-width="1.0522" stroke-miterlimit="10"/>
<path d="M231.591 138.532H228.206C227.122 138.532 226.175 137.499 226.175 136.319C226.175 135.139 227.122 134.107 228.206 134.107H231.591C232.674 134.107 233.622 135.139 233.622 136.319C233.622 137.647 232.674 138.532 231.591 138.532Z" fill="#F7327A"/>
<path d="M282.64 306.834H158.606C156.846 306.834 155.492 305.359 155.492 303.441V302.556C155.492 300.639 156.846 299.164 158.606 299.164H282.64C284.4 299.164 285.754 300.639 285.754 302.556V303.441C285.754 305.359 284.265 306.834 282.64 306.834Z" fill="#39306C"/>
<path d="M225.227 306.834H110.672C107.557 306.834 104.714 304.769 103.766 301.524L77.0905 221.577C75.3302 216.267 78.8508 210.809 83.9963 210.809H198.551C201.666 210.809 204.509 212.874 205.457 216.119L232.132 296.066C234.028 301.229 230.372 306.834 225.227 306.834Z" fill="#47417F"/>
<path d="M81.4236 211.399C81.8298 258.6 139.92 296.804 211.55 296.804C218.592 296.804 225.497 296.361 232.132 295.771L205.592 216.119C204.509 212.874 201.801 210.809 198.687 210.809H84.1317C83.0485 210.809 82.236 210.957 81.4236 211.399Z" fill="#4B4583"/>
<path d="M161.585 257.273C161.585 262.435 157.658 266.713 152.919 266.713C148.18 266.713 144.253 262.435 144.253 257.273C144.253 252.11 148.18 247.833 152.919 247.833C157.793 247.833 161.585 251.963 161.585 257.273Z" fill="#5E5896"/>
<path d="M285.889 6.81163C294.014 -2.03858 307.148 -1.89107 315.002 7.10664C322.314 15.3668 322.585 28.6421 315.679 37.1973C308.908 45.605 297.94 47.0801 289.681 41.6224C289.003 41.1799 288.056 41.0324 287.243 41.3274L282.098 42.95C281.691 43.0975 281.285 42.655 281.421 42.2125L282.91 36.6073C283.181 35.7223 283.046 34.6898 282.639 33.9523C278.035 25.5446 279.119 14.1868 285.889 6.81163Z" fill="#F7327A"/>
<path d="M288.868 26.1346C290.663 26.1346 292.118 24.5497 292.118 22.5945C292.118 20.6394 290.663 19.0544 288.868 19.0544C287.073 19.0544 285.618 20.6394 285.618 22.5945C285.618 24.5497 287.073 26.1346 288.868 26.1346Z" fill="white"/>
<path d="M300.242 26.1346C302.037 26.1346 303.492 24.5497 303.492 22.5945C303.492 20.6394 302.037 19.0544 300.242 19.0544C298.447 19.0544 296.992 20.6394 296.992 22.5945C296.992 24.5497 298.447 26.1346 300.242 26.1346Z" fill="white"/>
<path d="M311.617 26.1346C313.411 26.1346 314.866 24.5497 314.866 22.5945C314.866 20.6394 313.411 19.0544 311.617 19.0544C309.822 19.0544 308.367 20.6394 308.367 22.5945C308.367 24.5497 309.822 26.1346 311.617 26.1346Z" fill="white"/>
<g opacity="0.07">
<g opacity="0.07">
<path opacity="0.07" d="M377.595 16.7417L380.042 19.5038" stroke="#4B4583" stroke-miterlimit="10" stroke-linecap="round" stroke-linejoin="round"/>
<path opacity="0.07" d="M380.042 16.7417L377.595 19.5038" stroke="#4B4583" stroke-miterlimit="10" stroke-linecap="round" stroke-linejoin="round"/>
</g>
<g opacity="0.07">
<path opacity="0.07" d="M64.219 167.871L69.2302 173.658" stroke="#4B4583" stroke-width="2" stroke-miterlimit="10" stroke-linecap="round" stroke-linejoin="round"/>
<path opacity="0.07" d="M69.2302 167.871L64.219 173.658" stroke="#4B4583" stroke-width="2" stroke-miterlimit="10" stroke-linecap="round" stroke-linejoin="round"/>
</g>
<g opacity="0.07">
<path opacity="0.07" d="M202.785 134.725L206.281 138.802" stroke="#4B4583" stroke-width="1.398" stroke-miterlimit="10" stroke-linecap="round" stroke-linejoin="round"/>
<path opacity="0.07" d="M206.281 134.725L202.785 138.802" stroke="#4B4583" stroke-width="1.398" stroke-miterlimit="10" stroke-linecap="round" stroke-linejoin="round"/>
</g>
<g opacity="0.07">
<path opacity="0.07" d="M401.136 273.621L404.749 277.699" stroke="#4B4583" stroke-width="1.398" stroke-miterlimit="10" stroke-linecap="round" stroke-linejoin="round"/>
<path opacity="0.07" d="M404.749 273.621L401.136 277.699" stroke="#4B4583" stroke-width="1.398" stroke-miterlimit="10" stroke-linecap="round" stroke-linejoin="round"/>
</g>
<path opacity="0.07" d="M263.852 31.3417C263.852 32.657 262.92 33.7092 261.754 33.7092C260.589 33.7092 259.656 32.657 259.656 31.3417C259.656 30.0264 260.589 28.9741 261.754 28.9741C262.92 28.9741 263.852 30.0264 263.852 31.3417Z" stroke="#4B4583" stroke-width="1.398" stroke-miterlimit="10" stroke-linecap="round" stroke-linejoin="round"/>
<path opacity="0.07" d="M143.816 130.91C143.816 132.226 142.883 133.278 141.718 133.278C140.553 133.278 139.62 132.226 139.62 130.91C139.62 129.595 140.553 128.543 141.718 128.543C142.883 128.411 143.816 129.464 143.816 130.91Z" stroke="#4B4583" stroke-width="1.398" stroke-miterlimit="10" stroke-linecap="round" stroke-linejoin="round"/>
<path opacity="0.07" d="M405.098 100.132C405.098 101.448 404.166 102.5 403.001 102.5C401.835 102.5 400.903 101.448 400.903 100.132C400.903 98.8169 401.835 97.7647 403.001 97.7647C404.166 97.6331 405.098 98.8169 405.098 100.132Z" stroke="#4B4583" stroke-width="1.398" stroke-miterlimit="10" stroke-linecap="round" stroke-linejoin="round"/>
<path opacity="0.07" d="M75.5233 236.661C75.5233 239.818 73.1925 242.449 70.3956 242.449C67.5986 242.449 65.2678 239.818 65.2678 236.661C65.2678 233.504 67.5986 230.874 70.3956 230.874C73.1925 230.874 75.5233 233.504 75.5233 236.661Z" stroke="#4B4583" stroke-width="1.398" stroke-miterlimit="10" stroke-linecap="round" stroke-linejoin="round"/>
<path opacity="0.07" d="M356.618 163.925C356.618 167.081 354.287 169.712 351.49 169.712C348.693 169.712 346.362 167.081 346.362 163.925C346.362 160.768 348.693 158.137 351.49 158.137C354.287 158.137 356.618 160.768 356.618 163.925Z" stroke="#4B4583" stroke-width="1.398" stroke-miterlimit="10" stroke-linecap="round" stroke-linejoin="round"/>
</g>
</svg>
