<svg width="1440" height="1543" viewBox="0 0 1440 1543" fill="none" xmlns="http://www.w3.org/2000/svg">
<rect x="-1.44189" y="43.7292" width="1440" height="1415.35" fill="#010066"/>
<mask id="mask0" mask-type="alpha" maskUnits="userSpaceOnUse" x="-1" y="44" width="1440" height="1391">
<rect opacity="0.5" x="-1" y="44" width="1440" height="1391" fill="white"/>
</mask>
<g mask="url(#mask0)">
</g>
<path d="M-58.3981 340.211C-58.3981 340.211 -51.8581 286.086 213.667 317.788C479.193 349.489 692.398 525.007 1023.98 340.211C1355.56 155.414 1517.1 235.055 1517.1 235.055L1484.4 0L-79.9802 42.5264" fill="white"/>
<path d="M1495.49 1341.87C1495.49 1341.87 1488.95 1373.73 1223.43 1355.07C957.903 1336.41 744.698 1233.08 413.118 1341.87C81.538 1450.66 -80.0009 1403.78 -80.0009 1403.78L-47.3008 1542.15L1517.08 1517.12" fill="white"/>
</svg>
