<svg width="16" height="12" viewBox="0 0 16 12" fill="none" xmlns="http://www.w3.org/2000/svg">
<path d="M0.61955 4.389H12.0082V6.04435C12.0082 6.11909 12.0343 6.18365 12.0867 6.23834C12.1392 6.29299 12.2013 6.32026 12.273 6.32026C12.3503 6.32026 12.4137 6.29444 12.4632 6.24268L15.1118 3.48382C15.1613 3.43209 15.1861 3.36596 15.1861 3.28557C15.1861 3.20504 15.1613 3.13887 15.1116 3.08727L12.4716 0.336975C12.4053 0.27942 12.339 0.250732 12.2728 0.250732C12.1956 0.250732 12.1321 0.276581 12.0825 0.328279C12.0329 0.380067 12.0081 0.446077 12.0081 0.526583V2.18193H0.61955C0.547831 2.18193 0.485766 2.2092 0.433354 2.26382C0.380942 2.31845 0.354736 2.38307 0.354736 2.45778V4.11312C0.354736 4.18783 0.380913 4.25248 0.433354 4.30708C0.485795 4.36168 0.547831 4.389 0.61955 4.389Z" fill="#219653"/>
<path d="M14.9208 7.69977H3.53235V6.0444C3.53235 5.96969 3.50611 5.90504 3.45373 5.85045C3.40129 5.79582 3.3392 5.76855 3.26751 5.76855C3.19019 5.76855 3.1268 5.7944 3.07714 5.8461L0.428691 8.60476C0.379149 8.65664 0.354248 8.72259 0.354248 8.80321C0.354248 8.87783 0.379033 8.94115 0.428691 8.99269L3.0689 11.7516C3.13514 11.809 3.20135 11.8377 3.26759 11.8377C3.33928 11.8377 3.40138 11.8104 3.45379 11.7559C3.50617 11.7012 3.53241 11.6367 3.53241 11.5619V9.90662H14.9208C14.9927 9.90662 15.0546 9.87948 15.1071 9.82479C15.1595 9.7701 15.1856 9.70554 15.1856 9.63072V7.97547C15.1856 7.90073 15.1594 7.83617 15.1071 7.7816C15.0546 7.72704 14.9926 7.69977 14.9208 7.69977Z" fill="#219653"/>
</svg>
