<svg width="1025" height="389" viewBox="0 0 1025 389" fill="none" xmlns="http://www.w3.org/2000/svg">
<path d="M777.744 164.604C800.116 164.604 818.251 145.712 818.251 122.408C818.251 99.1044 800.116 80.2129 777.744 80.2129C755.372 80.2129 737.236 99.1044 737.236 122.408C737.236 145.712 755.372 164.604 777.744 164.604Z" fill="#D8D8D8"/>
<path d="M151.281 218.079C187.829 218.079 217.457 187.217 217.457 149.146C217.457 111.075 187.829 80.2129 151.281 80.2129C114.734 80.2129 85.1057 111.075 85.1057 149.146C85.1057 187.217 114.734 218.079 151.281 218.079Z" fill="#D8D8D8"/>
<path d="M464.915 302.47C487.287 302.47 505.423 283.578 505.423 260.274C505.423 236.971 487.287 218.079 464.915 218.079C442.544 218.079 424.408 236.971 424.408 260.274C424.408 283.578 442.544 302.47 464.915 302.47Z" fill="#D8D8D8"/>
<path d="M40.5876 313.332C62.9593 313.332 81.0952 294.441 81.0952 271.137C81.0952 247.833 62.9593 228.941 40.5876 228.941C18.2159 228.941 0.0800781 247.833 0.0800781 271.137C0.0800781 294.441 18.2159 313.332 40.5876 313.332Z" fill="#D8D8D8"/>
<path d="M887.638 267.377C910.009 267.377 928.145 248.485 928.145 225.182C928.145 201.878 910.009 182.986 887.638 182.986C865.266 182.986 847.13 201.878 847.13 225.182C847.13 248.485 865.266 267.377 887.638 267.377Z" fill="#D8D8D8"/>
<path d="M788.975 388.531C811.347 388.531 829.483 369.64 829.483 346.336C829.483 323.032 811.347 304.141 788.975 304.141C766.603 304.141 748.468 323.032 748.468 346.336C748.468 369.64 766.603 388.531 788.975 388.531Z" fill="#D8D8D8"/>
<path d="M983.893 84.3906C1006.26 84.3906 1024.4 65.4991 1024.4 42.1953C1024.4 18.8915 1006.26 0 983.893 0C961.521 0 943.385 18.8915 943.385 42.1953C943.385 65.4991 961.521 84.3906 983.893 84.3906Z" fill="#D8D8D8"/>
<path d="M634.967 233.119C657.338 233.119 675.474 214.228 675.474 190.924C675.474 167.62 657.338 148.729 634.967 148.729C612.595 148.729 594.459 167.62 594.459 190.924C594.459 214.228 612.595 233.119 634.967 233.119Z" fill="#D8D8D8"/>
<path d="M296.068 167.111C314.231 167.111 328.955 151.773 328.955 132.853C328.955 113.933 314.231 98.5957 296.068 98.5957C277.904 98.5957 263.18 113.933 263.18 132.853C263.18 151.773 277.904 167.111 296.068 167.111Z" fill="#D8D8D8"/>
<path d="M737.238 251.5C749.199 251.5 758.895 241.4 758.895 228.941C758.895 216.481 749.199 206.381 737.238 206.381C725.276 206.381 715.58 216.481 715.58 228.941C715.58 241.4 725.276 251.5 737.238 251.5Z" fill="#D8D8D8"/>
<path d="M485.368 172.124C502.645 172.124 516.651 157.535 516.651 139.538C516.651 121.541 502.645 106.951 485.368 106.951C468.091 106.951 454.085 121.541 454.085 139.538C454.085 157.535 468.091 172.124 485.368 172.124Z" fill="#D8D8D8"/>
<path d="M252.751 289.936C264.712 289.936 274.408 279.836 274.408 267.376C274.408 254.917 264.712 244.816 252.751 244.816C240.79 244.816 231.093 254.917 231.093 267.376C231.093 279.836 240.79 289.936 252.751 289.936Z" fill="#D8D8D8"/>
<path d="M361.841 235.625C377.346 235.625 389.915 222.532 389.915 206.381C389.915 190.23 377.346 177.137 361.841 177.137C346.336 177.137 333.766 190.23 333.766 206.381C333.766 222.532 346.336 235.625 361.841 235.625Z" fill="#D8D8D8"/>
</svg>
