<svg width="103" height="13" viewBox="0 0 103 13" fill="none" xmlns="http://www.w3.org/2000/svg">
<path opacity="0.8" fill-rule="evenodd" clip-rule="evenodd" d="M101.191 0H92.4094C91.6531 0 91.04 0.690014 91.04 1.54172V11.4583C91.04 12.3096 91.6531 13 92.4094 13H101.191C101.947 13 102.56 12.3096 102.56 11.4583V1.54172C102.56 0.690014 101.947 0 101.191 0ZM99.3202 2.03104C99.3202 1.80692 99.4814 1.625 99.68 1.625H100.76C100.959 1.625 101.12 1.80692 101.12 2.03104V3.25021C101.12 3.47433 100.959 3.65625 100.76 3.65625H99.68C99.4814 3.65625 99.3202 3.47433 99.3202 3.25021V2.03104ZM96.8134 4.021C98.0369 4.021 99.0289 5.13793 99.0289 6.51514C99.0289 7.89269 98.0369 9.00928 96.8134 9.00928C95.5902 9.00928 94.5982 7.89269 94.5982 6.51514C94.5982 5.13793 95.5902 4.021 96.8134 4.021ZM101.48 11.3749C101.48 11.599 101.319 11.7812 101.12 11.7812H92.4801C92.2812 11.7812 92.12 11.599 92.12 11.3749V5.28125H93.56C93.3724 5.58583 93.309 6.1542 93.309 6.51516C93.309 8.69045 94.8813 10.4605 96.8134 10.4605C98.7458 10.4605 100.318 8.69045 100.318 6.51516C100.318 6.1542 100.273 5.59469 100.04 5.28125H101.48V11.3749Z" fill="white"/>
<path opacity="0.8" fill-rule="evenodd" clip-rule="evenodd" d="M72.4559 1.20336C71.9607 1.52126 71.4135 1.75246 70.8287 1.87617C70.3629 1.33693 69.6971 1 68.9601 1C67.5472 1 66.4006 2.24341 66.4006 3.77687C66.4006 3.99468 66.4226 4.20579 66.4666 4.40915C64.3387 4.2932 62.4523 3.189 61.1888 1.50681C60.9682 1.91846 60.8422 2.39601 60.8422 2.90458C60.8422 3.86745 61.2941 4.71754 61.9815 5.21553C61.5623 5.20214 61.1668 5.07597 60.8209 4.86944V4.90327C60.8209 6.24924 61.7036 7.37211 62.8758 7.62622C62.6613 7.69142 62.4347 7.7242 62.2011 7.7242C62.0361 7.7242 61.8752 7.70728 61.7192 7.67486C62.0451 8.77764 62.9901 9.58085 64.1108 9.60235C63.2347 10.3474 62.1301 10.7915 60.9309 10.7915C60.7243 10.7915 60.52 10.7788 60.3201 10.7534C61.453 11.5401 62.7995 12 64.245 12C68.9551 12 71.5298 7.76931 71.5298 4.09936C71.5298 3.97847 71.5278 3.85793 71.5235 3.73951C72.0237 3.34795 72.4582 2.85912 72.8001 2.30227C72.3416 2.52289 71.8477 2.67233 71.3299 2.73929C71.8587 2.39601 72.2646 1.85185 72.4559 1.20336Z" fill="white"/>
<path opacity="0.8" fill-rule="evenodd" clip-rule="evenodd" d="M43.04 12.2822C43.04 12.6785 42.7554 13 42.4043 13H39.4686V7.96565H40.9661L41.1905 6.0039H39.4686V4.75106C39.4686 4.18307 39.6086 3.79603 40.3303 3.79603L41.251 3.79568V2.04072C41.0916 2.017 40.5453 1.96353 39.9095 1.96353C38.5821 1.96353 37.6734 2.87783 37.6734 4.55701V6.0039H36.1721V7.96565H37.6734V13H32.1558C31.8046 13 31.52 12.6785 31.52 12.2822V0.717776C31.52 0.321176 31.8046 0 32.1558 0H42.4043C42.7554 0 43.04 0.321176 43.04 0.717776V12.2822Z" fill="white"/>
<path opacity="0.8" fill-rule="evenodd" clip-rule="evenodd" d="M5.06889 7.3911V5.6089H9.16853C9.45397 7.76541 8.59267 11 5.06889 11C2.71148 11 0.800049 8.98508 0.800049 6.49982C0.800049 4.01456 2.71148 2 5.06889 2C6.17498 2 7.18283 2.44336 7.94121 3.17096C7.35375 3.75594 7.16531 3.97911 7.00529 4.16861C6.92198 4.26727 6.84638 4.3568 6.7262 4.48351C6.28756 4.10113 5.80928 3.82671 5.06889 3.82671C3.66837 3.82671 2.57526 5.0236 2.57526 6.49982C2.57526 7.9764 3.66837 9.17329 5.06889 9.17329C6.45276 9.17329 7.01496 8.54418 7.37667 7.38864C6.70888 7.38864 5.06889 7.3911 5.06889 7.3911ZM12.7609 4.13867V5.69799H14.2401V6.81184H12.7609V8.41602H11.7045V6.81184H10.1827V5.69799H11.7045V4.13867H12.7609Z" fill="white"/>
</svg>
