<svg width="96" height="96" viewBox="0 0 96 96" fill="none" xmlns="http://www.w3.org/2000/svg">
<g clip-path="url(#clip0_1164:5881)">
<path d="M44.3616 3.6925C46.2949 1.87523 49.3082 1.87523 51.2415 3.6925V3.6925C52.7822 5.14069 55.0648 5.46889 56.9511 4.51341V4.51341C59.318 3.31443 62.2093 4.16338 63.5523 6.45171V6.45171C64.6226 8.27529 66.7203 9.2333 68.7993 8.84794V8.84794C71.4082 8.36437 73.9432 9.9935 74.5871 12.5675V12.5675C75.1002 14.6187 76.8431 16.1289 78.9464 16.3449V16.3449C81.5859 16.6159 83.5592 18.8933 83.4518 21.5444V21.5444C83.3663 23.6571 84.6131 25.5972 86.5704 26.397V26.397C89.0266 27.4007 90.2783 30.1417 89.4284 32.6552V32.6552C88.7511 34.6582 89.4008 36.8709 91.0535 38.1898V38.1898C93.1274 39.8448 93.5563 42.8275 92.0326 44.9997V44.9997C90.8184 46.7308 90.8184 49.0369 92.0326 50.768V50.768C93.5563 52.9402 93.1274 55.9229 91.0535 57.5779V57.5779C89.4008 58.8967 88.7511 61.1094 89.4284 63.1125V63.1125C90.2783 65.626 89.0266 68.367 86.5704 69.3707V69.3707C84.6131 70.1705 83.3663 72.1105 83.4518 74.2232V74.2232C83.5592 76.8744 81.5859 79.1517 78.9464 79.4227V79.4227C76.8431 79.6387 75.1002 81.1489 74.5871 83.2002V83.2002C73.9432 85.7742 71.4082 87.4033 68.7993 86.9197V86.9197C66.7203 86.5344 64.6226 87.4924 63.5523 89.3159V89.3159C62.2093 91.6043 59.318 92.4532 56.9511 91.2542V91.2542C55.0648 90.2988 52.7822 90.627 51.2415 92.0752V92.0752C49.3082 93.8924 46.2949 93.8924 44.3616 92.0752V92.0752C42.8209 90.627 40.5383 90.2988 38.652 91.2542V91.2542C36.2851 92.4532 33.3938 91.6043 32.0508 89.3159V89.3159C30.9806 87.4924 28.8828 86.5344 26.8038 86.9197V86.9197C24.1949 87.4033 21.6599 85.7742 21.016 83.2002V83.2002C20.5029 81.1489 18.7601 79.6387 16.6567 79.4227V79.4227C14.0172 79.1517 12.0439 76.8744 12.1513 74.2232V74.2232C12.2368 72.1105 10.9901 70.1705 9.03272 69.3707V69.3707C6.57656 68.367 5.32477 65.626 6.1747 63.1125V63.1125C6.85201 61.1094 6.2023 58.8967 4.54959 57.5779V57.5779C2.47568 55.9229 2.04684 52.9402 3.57047 50.768V50.768C4.78467 49.0369 4.78467 46.7308 3.57047 44.9997V44.9997C2.04684 42.8275 2.47568 39.8448 4.54959 38.1898V38.1898C6.2023 36.8709 6.85201 34.6582 6.1747 32.6552V32.6552C5.32477 30.1417 6.57655 27.4007 9.03272 26.397V26.397C10.9901 25.5972 12.2368 23.6571 12.1513 21.5444V21.5444C12.0439 18.8933 14.0172 16.6159 16.6567 16.3449V16.3449C18.7601 16.1289 20.5029 14.6187 21.016 12.5675V12.5675C21.6599 9.9935 24.1949 8.36437 26.8038 8.84794V8.84794C28.8828 9.2333 30.9806 8.27529 32.0508 6.45171V6.45171C33.3938 4.16338 36.2851 3.31443 38.652 4.51341V4.51341C40.5383 5.46889 42.8209 5.14069 44.3616 3.6925V3.6925Z" fill="#010066"/>
<path d="M52.6961 38.5397H50.944C50.944 39.5073 51.7285 40.2918 52.6961 40.2918V38.5397ZM52.6961 32.31H54.4483H52.6961ZM48.0239 27.6377V25.8856C47.3315 25.8856 46.704 26.2934 46.4228 26.9261L48.0239 27.6377ZM59.3619 58.7861L59.3817 57.0341C59.3751 57.0341 59.3685 57.034 59.3619 57.034V58.7861ZM62.4768 56.1385L60.7449 55.873L60.7445 55.8758L62.4768 56.1385ZM64.626 42.1217L66.3579 42.3873L66.3583 42.3847L64.626 42.1217ZM61.5112 38.5397V40.2918C61.5178 40.2918 61.5244 40.2917 61.531 40.2917L61.5112 38.5397ZM34.0071 55.6713H32.255H34.0071ZM37.1219 41.6545V43.4066V41.6545ZM54.4483 38.5397V32.31H50.944V38.5397H54.4483ZM54.4483 32.31C54.4483 30.6061 53.7714 28.972 52.5666 27.7672L50.0887 30.2451C50.6364 30.7927 50.944 31.5355 50.944 32.31H54.4483ZM52.5666 27.7672C51.3618 26.5624 49.7277 25.8856 48.0239 25.8856V29.3898C48.7984 29.3898 49.5411 29.6975 50.0887 30.2451L52.5666 27.7672ZM46.4228 26.9261L40.1931 40.9429L43.3953 42.3661L49.625 28.3493L46.4228 26.9261ZM40.0421 41.6545V58.7861H43.5463V41.6545H40.0421ZM41.7942 60.5383H59.3619V57.034H41.7942V60.5383ZM59.3421 60.5381C60.5158 60.5514 61.6548 60.14 62.5492 59.3798L60.2797 56.7098C60.0293 56.9227 59.7104 57.0379 59.3817 57.0341L59.3421 60.5381ZM62.5492 59.3798C63.4436 58.6196 64.0331 57.5618 64.2091 56.4012L60.7445 55.8758C60.6952 56.2008 60.5301 56.497 60.2797 56.7098L62.5492 59.3798ZM64.2086 56.4041L66.3579 42.3873L62.8941 41.8562L60.7449 55.873L64.2086 56.4041ZM66.3583 42.3847C66.4641 41.6871 66.4171 40.9749 66.2204 40.2973L62.8551 41.2744C62.9102 41.4641 62.9234 41.6635 62.8937 41.8588L66.3583 42.3847ZM66.2204 40.2973C66.0237 39.6198 65.682 38.9931 65.2191 38.4607L62.5748 40.7601C62.7044 40.9092 62.8001 41.0846 62.8551 41.2744L66.2204 40.2973ZM65.2191 38.4607C64.7561 37.9283 64.1829 37.5029 63.5393 37.214L62.1044 40.411C62.2846 40.4919 62.4451 40.611 62.5748 40.7601L65.2191 38.4607ZM63.5393 37.214C62.8956 36.9252 62.1968 36.7797 61.4913 36.7877L61.531 40.2917C61.7285 40.2894 61.9242 40.3302 62.1044 40.411L63.5393 37.214ZM61.5112 36.7875H52.6961V40.2918H61.5112V36.7875ZM41.7942 57.034H37.1219V60.5383H41.7942V57.034ZM37.1219 57.034C36.7605 57.034 36.4139 56.8905 36.1583 56.6349L33.6805 59.1128C34.5932 60.0255 35.8311 60.5383 37.1219 60.5383V57.034ZM36.1583 56.6349C35.9028 56.3793 35.7592 56.0327 35.7592 55.6713H32.255C32.255 56.9621 32.7677 58.2 33.6805 59.1128L36.1583 56.6349ZM35.7592 55.6713V44.7693H32.255V55.6713H35.7592ZM35.7592 44.7693C35.7592 44.4079 35.9028 44.0613 36.1583 43.8057L33.6805 41.3279C32.7677 42.2406 32.255 43.4785 32.255 44.7693H35.7592ZM36.1583 43.8057C36.4139 43.5502 36.7605 43.4066 37.1219 43.4066V39.9024C35.8311 39.9024 34.5932 40.4152 33.6805 41.3279L36.1583 43.8057ZM37.1219 43.4066H41.7942V39.9024H37.1219V43.4066Z" fill="white"/>
</g>
<defs>
<clipPath id="clip0_1164:5881">
<rect x="0.376709" y="0.458984" width="94.8497" height="94.8497" rx="47.4248" fill="white"/>
</clipPath>
</defs>
</svg>
