<svg width="15" height="8" viewBox="0 0 15 8" fill="none" xmlns="http://www.w3.org/2000/svg">
<path d="M0.383713 5.13278H11.7725V6.78812C11.7725 6.86286 11.7985 6.92742 11.8509 6.98211C11.9034 7.03677 11.9655 7.06403 12.0372 7.06403C12.1145 7.06403 12.178 7.03822 12.2275 6.98646L14.8761 4.22759C14.9256 4.17586 14.9504 4.10973 14.9504 4.02935C14.9504 3.94881 14.9256 3.88265 14.8759 3.83104L12.2358 1.08075C12.1696 1.02319 12.1033 0.994507 12.037 0.994507C11.9599 0.994507 11.8964 1.02036 11.8468 1.07205C11.7972 1.12384 11.7724 1.18985 11.7724 1.27036V2.9257H0.383713C0.311993 2.9257 0.249928 2.95297 0.197515 3.0076C0.145103 3.06222 0.118896 3.12685 0.118896 3.20155V4.8569C0.118896 4.93161 0.145074 4.99626 0.197515 5.05085C0.249957 5.10545 0.311993 5.13278 0.383713 5.13278Z" fill="#219653"/>
</svg>
