<svg width="1440" height="377" viewBox="0 0 1440 377" fill="none" xmlns="http://www.w3.org/2000/svg">
<path d="M1 245C478.988 245 956.976 245 1434.96 245" stroke="url(#paint0_linear)" stroke-miterlimit="10"/>
<path d="M1 238.156C243.041 238.207 484.963 236.983 726.945 235.599C831.644 234.996 937.06 235.194 1041.75 236.463C1172.8 238.05 1303.91 236.555 1434.92 238.156" stroke="url(#paint1_linear)" stroke-miterlimit="10"/>
<path d="M1 231.414C69.5813 231.414 138.183 231.657 206.754 231.538C268.036 231.432 329.179 229.137 390.441 228.741C504.561 228.005 618.66 228.861 732.77 227.992C834.054 227.219 936.383 225.172 1037.6 228.295C1096.59 230.135 1154.97 230.972 1214.01 231.731C1287.7 232.678 1361.3 230.107 1434.96 231.414" stroke="url(#paint2_linear)" stroke-miterlimit="10"/>
<path d="M1 224.762C68.5955 224.762 136.37 225.287 203.946 224.721C267.449 224.188 330.583 220.448 394.036 219.487C508.374 217.753 621.817 222.707 736.036 221.823C836.543 221.06 935.626 214.86 1036.24 220.407C1095.06 223.649 1152.05 226.188 1211.29 226.929C1285.97 227.849 1360.29 223.373 1434.96 224.762" stroke="url(#paint3_linear)" stroke-miterlimit="10"/>
<path d="M1 218.24C67.3706 218.24 134.229 219.078 200.55 217.923C266.871 216.769 332.246 211.456 398.367 209.741C458.475 208.181 517.735 208.6 577.523 211.994C631.108 215.039 683.159 217.238 737.181 216.907C784.532 216.612 828.895 213.291 875.659 210.196C929.173 206.65 984.271 208.306 1037.29 212.822C1095.64 217.799 1150.68 222.559 1210.27 223.102C1285.43 223.792 1359.75 217.049 1434.96 218.24" stroke="url(#paint4_linear)" stroke-miterlimit="10"/>
<path d="M1 211.81C65.9367 211.81 131.859 212.937 196.686 211.134C265.955 209.212 334.048 202.248 403.167 199.636C462.513 197.364 522.255 198.921 580.67 204.263C632.821 208.963 683.238 213.163 736.544 212.97C785.906 212.79 830.568 207.018 878.487 202.349C932.878 197.051 986.701 199.061 1040.27 205.486C1097.67 212.385 1150.67 219.818 1210.67 220.016C1285.96 220.269 1359.54 211.038 1434.96 211.815" stroke="url(#paint5_linear)" stroke-miterlimit="10"/>
<path d="M1 205.482C64.4031 205.454 129.36 206.862 192.544 204.401C265.079 201.6 335.94 192.957 408.206 189.347C468.851 186.32 524.895 189.135 583.389 196.738C633.468 203.251 681.974 209.773 734.503 209.787C786.444 209.787 832.65 201.117 881.942 194.788C938.096 187.581 989.878 189.678 1044.75 198.385C1100.59 207.243 1151.87 217.702 1212.19 217.472C1287.38 217.16 1359.57 205.27 1434.96 205.482" stroke="url(#paint6_linear)" stroke-miterlimit="10"/>
<path d="M1 199.254C62.7999 199.213 126.781 200.777 188.212 197.75C264.073 194.015 337.583 183.704 413.175 179.049C474.666 175.264 528.042 179.311 585.589 189.439C633.07 197.796 679.703 206.852 731.376 207.138C785.986 207.441 835.219 195.533 885.726 187.516C944.051 178.258 993.851 180.226 1050.21 191.509C1103.89 202.253 1153.94 216.047 1214.52 215.274C1289.44 214.317 1359.73 199.696 1434.94 199.254" stroke="url(#paint7_linear)" stroke-miterlimit="10"/>
<path d="M1 193.128C61.2165 193.072 124.201 194.737 183.97 191.21C263.077 186.541 339.246 174.61 417.985 168.916C480.721 164.376 531.069 169.574 587.402 182.369C631.954 192.488 676.706 204.175 727.661 204.792C784.94 205.477 838.126 190.009 889.799 180.502C916.865 175.548 945.395 170.908 974.901 171.975C1003.78 173.023 1031.12 178.639 1056.38 184.853C1107.28 197.35 1156.87 214.552 1217.45 213.236C1292.04 211.613 1359.98 194.268 1434.97 193.141" stroke="url(#paint8_linear)" stroke-miterlimit="10"/>
<path d="M1.04932 187.107C59.802 187.038 121.761 188.744 179.897 184.807C262.021 179.26 340.57 165.788 422.227 159.11C486.397 153.857 533.837 160.108 588.646 175.539C630.201 187.24 673.081 201.54 723.578 202.51C783.327 203.655 841.084 184.549 893.742 173.736C921.326 168.07 951.748 162.095 982.558 163.41C1011.44 164.643 1038.49 171.377 1062.64 178.359C1110.79 192.286 1159.87 212.96 1220.6 211.116C1294.86 208.853 1360.19 188.873 1434.98 187.107" stroke="url(#paint9_linear)" stroke-miterlimit="10"/>
<path d="M1.05933 181.192C58.4079 181.109 119.451 182.816 176.103 178.589C260.906 172.255 341.566 157.362 425.752 149.792C457.807 146.912 488.189 145.247 519.587 150.298C545.169 154.414 567.674 161.64 589.383 168.944C628.22 182.001 669.217 198.748 719.595 200.059C781.534 201.673 843.932 179.104 897.446 167.187C925.508 160.936 957.802 153.697 989.788 155.228C1018.8 156.608 1045.49 164.367 1068.61 172.03C1114.19 187.134 1162.69 211.042 1223.74 208.729C1297.74 205.919 1360.36 183.464 1435.02 181.169" stroke="url(#paint10_linear)" stroke-miterlimit="10"/>
<path d="M1.06885 175.374C57.2125 175.287 117.429 176.984 172.776 172.564C259.73 165.619 341.924 149.447 428.231 141.163C460.396 138.077 490.688 136.164 521.927 141.895C547.27 146.572 568.869 154.598 589.522 162.62C626.078 176.8 665.363 195.648 715.99 197.235C748.344 198.252 780.877 190.456 808.819 183.855C839.819 176.533 869.623 168.19 900.613 160.858C929.093 154.125 962.95 145.864 996.011 147.589C1025.23 149.111 1051.51 157.662 1073.79 165.895C1117.29 181.993 1164.87 208.605 1226.51 205.91C1300.38 202.69 1360.38 178 1435.03 175.356" stroke="url(#paint11_linear)" stroke-miterlimit="10"/>
<path d="M1.07812 169.661C56.216 169.574 115.795 171.275 170.077 166.773C258.564 159.437 341.714 142.161 429.465 133.362C461.48 130.143 492.002 128.087 522.922 134.227C548.235 139.254 569.187 147.97 589.093 156.543C624.126 171.625 661.927 192.037 713.171 193.799C746.411 194.93 779.89 186.486 808.271 179.504C840.306 171.616 871.007 162.638 903.042 154.741C931.92 147.616 966.774 138.707 1000.72 140.524C1030.25 142.106 1056.08 151.19 1077.76 159.896C1119.91 176.818 1166.03 205.339 1228.66 202.464C1302.53 199.074 1360.24 172.402 1435.04 169.679" stroke="url(#paint12_linear)" stroke-miterlimit="10"/>
<path d="M1.09961 164.05C55.4608 163.976 114.672 165.71 168.156 161.244C257.391 153.793 340.77 135.611 429.198 126.574C460.775 123.354 491.864 121.257 522.346 127.438C547.868 132.613 568.531 141.798 588.069 150.734C622.544 166.529 659.229 187.76 711.549 189.471C745.526 190.584 779.095 182.052 807.874 174.753C840.586 166.474 871.855 157.036 904.557 148.747C933.804 141.333 968.806 132.282 1003.45 134.084C1033.32 135.639 1058.72 144.889 1080.13 153.968C1121.95 171.699 1165.88 200.942 1229.97 198.095C1304.03 194.806 1359.99 166.492 1435.1 164.059" stroke="url(#paint13_linear)" stroke-miterlimit="10"/>
<path d="M1.10938 158.531C55.2714 158.374 114.293 160.324 167.549 155.771C256.176 148.177 338.489 129.453 426.22 120.203C457.708 116.887 488.777 114.9 519.239 121.008C545.13 126.21 566.201 135.506 586.027 144.553C621.14 160.577 658.214 182.08 711.221 184.085C745.437 185.377 778.806 176.951 807.714 169.537C840.476 161.129 871.685 151.507 904.437 143.095C933.824 135.543 968.647 126.615 1003.55 128.547C1033.62 130.212 1058.87 139.48 1080.32 148.66C1122.31 166.639 1165.4 195.496 1230 192.815C1304.26 189.742 1359.65 160.655 1435.07 158.531" stroke="url(#paint14_linear)" stroke-miterlimit="10"/>
<path d="M1.11865 153.136C55.5097 152.85 114.352 155.311 167.797 150.44C254.851 142.506 335.312 123.474 421.44 113.898C453.305 110.352 483.558 108.507 514.458 114.657C540.817 119.895 562.635 129.094 583.189 138.063C619.466 153.913 658.103 175.631 711.11 178.368C745.117 180.125 778.606 171.676 807.266 164.266C839.629 155.9 870.37 146.269 902.724 137.893C932.05 130.299 966.874 121.441 1001.73 123.736C1031.71 125.709 1057.32 135.11 1079.07 144.19C1121.28 161.806 1165.62 190.12 1229.44 187.516C1303.89 184.476 1359.45 155.224 1435.05 153.136" stroke="url(#paint15_linear)" stroke-miterlimit="10"/>
<path d="M1.13867 147.832C55.8384 147.492 114.521 150.638 168.295 145.482C253.576 137.304 331.936 118.023 416.251 108.227C448.386 104.483 477.932 102.813 509.18 108.884C535.948 114.086 558.642 123.046 579.962 131.946C617.455 147.584 657.874 169.224 710.832 172.623C744.53 174.79 777.76 166.515 806.16 159.138C837.976 150.859 868.07 141.287 899.866 133.013C929.103 125.405 963.598 116.8 998.292 119.422C1028.31 121.694 1054.38 131.136 1076.61 140.119C1119.38 157.367 1165.17 184.973 1228.5 182.406C1303.28 179.38 1359.15 149.939 1435.08 147.86" stroke="url(#paint16_linear)" stroke-miterlimit="10"/>
<path d="M1.15845 142.63C56.2366 142.304 114.89 146.282 169.042 140.864C252.371 132.535 328.451 113.056 410.784 103.089C443.049 99.1841 472.037 97.7169 503.544 103.613C530.789 108.71 554.33 117.412 576.477 126.151C615.533 141.508 657.367 162.836 710.473 166.86C743.773 169.381 776.415 161.465 804.537 154.138C835.656 146.025 864.983 136.536 896.082 128.414C925.209 120.801 959.037 112.624 993.522 115.535C1023.67 118.088 1050.28 127.494 1073.19 136.352C1116.81 153.218 1164.23 179.978 1227.23 177.425C1302.46 174.376 1358.76 144.737 1435.15 142.644" stroke="url(#paint17_linear)" stroke-miterlimit="10"/>
<path d="M1.16919 137.53C56.6955 137.272 115.329 142.207 169.969 136.555C251.207 128.151 324.867 108.498 405.079 98.4759C437.323 94.4376 465.913 93.182 497.58 98.8209C525.313 103.761 549.681 112.159 572.734 120.631C613.562 135.639 656.67 156.456 709.976 161.06C774.305 166.621 839.311 137.682 891.442 124.04C920.46 116.441 953.371 108.829 987.558 112.017C1017.95 114.855 1045.12 124.168 1068.81 132.894C1113.54 149.364 1162.73 175.167 1225.57 172.6C1301.36 169.51 1358.2 139.655 1435.13 137.53" stroke="url(#paint18_linear)" stroke-miterlimit="10"/>
<path d="M1.18921 132.535C57.2034 132.392 115.847 138.385 171.054 132.535C250.112 124.127 321.232 104.381 399.214 94.3271C431.349 90.1876 459.66 89.1573 491.416 94.4697C519.657 99.2025 544.871 107.229 568.83 115.434C611.431 130.014 655.824 150.137 709.398 155.311C772.752 161.419 834.96 133.317 886.125 119.895C914.415 112.486 947.397 105.016 980.647 108.834C1011.52 112.375 1038.71 120.962 1063.75 129.701C1109.76 145.753 1160.85 170.512 1223.68 167.918C1300.12 164.767 1357.57 134.687 1435.15 132.502" stroke="url(#paint19_linear)" stroke-miterlimit="10"/>
<path d="M1.20898 127.636C57.751 127.636 116.454 134.779 172.279 128.713C249.086 120.365 317.597 100.536 393.279 90.5373C524.725 73.1561 593.297 137.323 708.761 149.603C770.999 156.231 830.06 129.14 880.299 115.991C908.46 108.631 940.167 101.93 972.999 105.964C1004.26 109.804 1032.09 118.203 1058.13 126.776C1105.58 142.414 1158.65 166.046 1221.61 163.411C1298.76 160.191 1356.88 129.876 1435.18 127.636" stroke="url(#paint20_linear)" stroke-miterlimit="10"/>
<path d="M1.229 122.844C58.3187 123.037 117.121 131.353 173.613 125.107C248.13 116.869 314.022 96.9948 387.344 87.083C516.072 69.688 594.472 130.778 708.074 143.937C769.236 151.029 824.753 125.139 874.075 112.242C902.117 104.91 932.439 99.0922 964.803 103.31C996.48 107.449 1025.02 115.636 1052.11 124.03C1101.08 139.208 1156.17 161.704 1219.4 159.009C1297.3 155.693 1356.16 125.157 1435.21 122.844" stroke="url(#paint21_linear)" stroke-miterlimit="10"/>
<path d="M1.24951 118.152C58.9068 118.543 117.829 128.073 175.028 121.671C247.264 113.585 310.458 93.6877 381.509 83.9093C507.509 66.5649 595.608 124.315 707.368 138.353C767.435 145.896 819.177 121.28 867.633 108.636C895.575 101.346 924.394 96.4612 956.26 100.817C988.375 105.228 1017.65 113.235 1045.81 121.422C1096.36 136.141 1153.48 157.464 1217.03 154.708C1295.7 151.291 1355.33 120.525 1435.17 118.134" stroke="url(#paint22_linear)" stroke-miterlimit="10"/>
<path d="M1.26953 113.562C59.4845 114.155 118.576 124.904 176.532 118.368C246.537 110.467 307.122 90.5602 375.883 80.9474C499.204 63.7041 596.723 117.987 706.651 132.866C765.632 140.85 813.491 117.545 861.12 105.145C888.943 97.9009 916.358 93.9776 947.696 98.4896C980.259 103.181 1010.3 110.986 1039.52 118.971C1091.65 133.229 1150.78 153.375 1214.73 150.551C1294.23 147.037 1354.59 116.055 1435.23 113.562" stroke="url(#paint23_linear)" stroke-miterlimit="10"/>
<path d="M1.28955 109.077C60.0423 109.869 119.333 121.809 177.956 115.162C245.81 107.468 303.836 87.5659 370.406 78.1416C491.287 61.0318 597.849 111.782 705.993 127.494C763.9 135.911 807.865 113.916 854.717 101.737C882.421 94.5386 908.491 91.5766 939.232 96.2174C972.243 101.194 1003.04 108.82 1033.31 116.584C1086.97 130.354 1148.07 149.364 1212.46 146.48C1292.75 142.869 1353.87 111.635 1435.29 109.087" stroke="url(#paint24_linear)" stroke-miterlimit="10"/>
<path d="M1.30957 104.69C60.6498 105.669 120.08 118.755 179.42 112.017C245.233 104.542 300.809 84.6545 365.307 75.4327C483.868 58.4791 598.954 105.706 705.287 122.25C762.227 131.109 802.258 110.333 848.464 98.3976C876.078 91.2685 900.784 89.1988 931.006 93.973C964.446 99.2347 995.993 106.709 1027.24 114.247C1082.38 127.544 1145.36 145.436 1210.2 142.479C1291.25 138.776 1353.08 107.316 1435.25 104.69" stroke="url(#paint25_linear)" stroke-miterlimit="10"/>
<path d="M1.32959 100.407C61.2275 101.548 120.827 115.71 180.834 108.903C244.765 101.654 298.041 81.766 360.607 72.7603C421.302 64.0213 485.87 73.8871 542.562 84.429C597.231 94.5984 649.203 107.937 704.689 117.159C760.913 126.505 796.772 106.709 842.629 95.0813C903.522 79.6502 965.89 99.2208 1021.63 111.911C1078.1 124.752 1142.85 141.577 1208.12 138.555C1289.89 134.774 1352.39 103.094 1435.29 100.403" stroke="url(#paint26_linear)" stroke-miterlimit="10"/>
<path d="M1.34961 96.2222C61.8051 97.4963 121.414 112.638 182.188 105.78C244.417 98.7519 295.571 78.8777 356.455 70.0698C416.592 61.3585 482.863 70.8195 539.823 80.4737C595.598 89.9302 648.685 102.418 704.161 112.242C759.638 122.066 792.042 103.241 837.311 91.7792C896.821 76.716 961.787 97.7584 1016.56 109.556C1074.21 121.974 1140.61 137.778 1206.24 134.715C1288.64 130.865 1351.77 98.9727 1435.27 96.2222" stroke="url(#paint27_linear)" stroke-miterlimit="10"/>
<path d="M1.36865 92.1424C62.3918 93.5223 121.951 109.51 183.432 102.611C244.177 95.799 293.449 75.934 352.72 67.2963C412.399 58.6263 480.183 67.701 537.402 76.5549C594.164 85.3445 648.316 97.0822 703.703 107.509C729.833 112.426 748.982 112.628 774.246 106.286C794.779 101.13 812.146 93.6418 832.65 88.4491C860.005 81.5131 881.793 81.7063 910.442 86.8623C944.868 93.0669 978.406 100.201 1012.18 107.132C1070.81 119.127 1138.65 134.011 1204.57 130.92C1287.55 127.029 1351.2 94.9251 1435.3 92.1424" stroke="url(#paint28_linear)" stroke-miterlimit="10"/>
<path d="M1.38818 88.1593C62.9789 89.5392 122.359 106.29 184.557 99.3682C244.097 92.7404 291.686 72.8018 349.762 64.3849C409.132 55.7793 478.161 64.4768 535.61 72.6638C593.058 80.8508 648.216 91.9815 703.423 103.02C728.936 108.121 747.587 108.843 772.632 102.533C792.488 97.5284 809.059 90.1417 828.865 85.1007C856.071 78.174 877.521 78.9099 905.672 84.236C940.266 90.781 974.323 97.9009 1008.74 104.639C1068.1 116.257 1137.27 130.313 1203.29 127.213C1286.72 123.299 1350.8 91.0018 1435.31 88.2007" stroke="url(#paint29_linear)" stroke-miterlimit="10"/>
<path d="M1.4082 84.2867C63.5765 85.6297 122.618 102.96 185.513 96.0198C244.166 89.5392 290.272 69.4489 347.541 61.2803C406.832 52.8127 476.608 61.1147 534.415 68.7176C592.689 76.3756 648.325 87.0417 703.304 98.6875C728.299 103.977 746.741 105.09 771.597 98.7795C790.915 93.8811 806.818 86.5404 826.077 81.596C853.153 74.6462 874.583 75.7731 902.306 81.3016C936.95 88.2008 971.405 95.3391 1006.35 101.935C1066.1 113.217 1136.42 126.546 1202.39 123.469C1286.15 119.56 1350.54 87.0785 1435.41 84.2867" stroke="url(#paint30_linear)" stroke-miterlimit="10"/>
<path d="M1.42822 80.5104C64.1642 81.7293 122.698 99.4785 186.29 92.5196C244.336 86.1677 289.446 65.99 346.028 57.918C405.129 49.4919 475.822 57.6145 533.778 64.7436C592.65 71.9877 648.535 82.364 703.254 94.6399C727.841 100.159 746.383 101.493 771.109 95.1412C790.029 90.2796 805.434 82.9343 824.325 78.0267C851.301 71.0172 873.03 72.3418 900.424 78.1233C934.999 85.418 969.713 92.607 1005.04 99.0922C1064.97 110.089 1136.11 122.821 1201.82 119.79C1285.77 115.921 1350.32 83.2655 1435.39 80.5104" stroke="url(#paint31_linear)" stroke-miterlimit="10"/>
<path d="M1.45825 76.8308C64.5129 77.9254 122.638 95.8678 186.619 88.8445C244.465 82.4973 289.307 62.3379 345.709 54.3119C404.751 45.9134 475.762 54.2015 533.738 61.1789C592.819 68.2896 648.525 78.5877 703.314 90.9188C727.811 96.4382 746.612 97.588 771.169 91.2776C789.959 86.4482 805.265 79.1673 824.056 74.3241C850.943 67.3973 873.07 68.6852 900.205 74.6322C934.631 82.1753 969.384 89.4194 1004.86 95.8402C1064.5 106.635 1136.57 119.224 1201.77 116.078C1285.6 112.039 1350.57 79.9354 1435.42 76.8446" stroke="url(#paint32_linear)" stroke-miterlimit="10"/>
<path d="M1.47803 73.211C64.672 74.2505 122.628 92.3125 186.758 85.2063C244.515 78.8039 289.585 58.8148 346.028 50.8394C405.069 42.496 475.921 51.1475 533.807 58.1709C592.7 65.3184 648.166 75.5981 703.334 87.3451C755.554 98.4619 781.435 81.3658 824.444 70.7043C851.331 64.0397 873.597 65.254 900.484 71.224C934.76 78.8361 969.454 86.0618 1004.92 92.409C1064.21 103.015 1137.22 115.664 1201.95 112.251C1285.42 107.845 1351.19 77.0469 1435.47 73.28" stroke="url(#paint33_linear)" stroke-miterlimit="10"/>
<path d="M1.49805 69.6466C64.8813 70.6493 122.698 88.8446 187.027 81.6787C244.784 75.2395 290.034 55.4619 346.506 47.5601C405.547 39.2811 476.19 48.2638 533.987 55.3102C592.65 62.4623 647.907 72.696 703.394 83.8497C755.176 94.2628 781.983 77.4702 825.022 67.2917C851.909 60.9169 874.374 62.0943 901.022 68.0736C935.138 75.7271 969.733 82.8976 1005.19 89.1344C1064.24 99.5245 1137.97 112.04 1202.16 108.397C1285.22 103.687 1351.79 74.2276 1435.46 69.8628" stroke="url(#paint34_linear)" stroke-miterlimit="10"/>
<path d="M1.51782 66.1463C65.1201 67.1214 122.847 85.4639 187.415 78.2658C245.103 71.8358 290.621 52.2836 347.133 44.4646C406.175 36.3236 476.588 45.5317 534.275 52.5826C592.66 59.7117 647.798 69.8673 703.483 80.4046C754.897 90.1232 782.62 73.7032 825.768 63.9984C852.725 57.9409 875.36 59.1184 901.808 65.0931C935.736 72.7603 970.26 79.848 1005.66 85.9377C1064.56 96.0794 1138.74 108.286 1202.49 104.455C1285.15 99.4922 1352.48 71.4173 1435.51 66.5143" stroke="url(#paint35_linear)" stroke-miterlimit="10"/>
<path d="M1.5376 62.7058C65.4088 63.6717 123.026 82.1568 187.923 74.9541C245.561 68.5609 291.358 49.2295 347.92 41.5668C406.941 33.5684 476.996 42.9834 534.664 50.0114C592.729 57.0945 647.698 67.1443 703.613 77.0468C754.638 86.0847 783.337 70.0971 826.685 60.9166C853.731 55.1857 876.545 56.4046 902.824 62.3609C936.486 70.067 971.028 76.9241 1006.3 82.9019C1065.15 92.7631 1139.54 104.519 1202.92 100.513C1285.04 95.348 1353.2 68.6897 1435.5 63.3221" stroke="url(#paint36_linear)" stroke-miterlimit="10"/>
<path d="M1.56787 59.33C65.7278 60.2959 123.325 78.942 188.541 71.7485C246.129 65.4058 292.234 46.332 348.866 38.8257C407.868 31.0067 477.624 40.5689 535.182 47.5646C592.939 54.5742 647.758 64.486 703.802 73.7446C754.449 82.1156 784.184 66.6017 827.79 57.9778C854.966 52.601 877.949 53.8889 904.079 59.8175C937.539 67.4727 971.955 74.2013 1007.15 79.9677C1066.03 89.5207 1140.4 100.638 1203.45 96.5256C1285.04 91.2041 1353.98 66.0038 1435.56 60.2177" stroke="url(#paint37_linear)" stroke-miterlimit="10"/>
<path d="M1.5874 56.0277C66.076 56.9982 123.664 75.8053 189.248 68.667C246.795 62.4025 293.23 43.6047 349.881 36.2778C408.853 28.6519 478.241 38.3291 535.749 45.2651C593.078 52.1642 647.877 61.9196 703.981 70.5205C754.269 78.2338 785.099 63.2488 829.005 55.209C856.33 50.2048 879.492 51.5893 905.513 57.5087C938.743 65.0907 973.005 71.668 1008.08 77.1989C1067.06 86.3978 1141.21 96.7741 1203.99 92.5656C1285.01 87.1383 1354.69 63.4236 1435.54 57.2834" stroke="url(#paint38_linear)" stroke-miterlimit="10"/>
<path d="M1.60742 52.7895C66.4545 53.783 124.092 72.7695 190.054 65.668C247.562 59.5139 294.335 41.015 351.047 33.8859C409.979 26.4808 478.988 36.227 536.367 43.0847C593.297 49.8919 648.037 59.4265 704.16 67.3651C754.1 74.4253 786.086 60.0061 830.319 52.5826C857.814 47.9831 881.155 49.4733 907.096 55.3422C940.107 62.8343 974.226 69.2359 1009.2 74.4989C1068.37 83.3436 1142.1 92.8414 1204.64 88.5593C1285.08 83.04 1355.48 60.8661 1435.57 54.4085" stroke="url(#paint39_linear)" stroke-miterlimit="10"/>
<path d="M1.62744 49.6251C66.8629 50.6462 124.49 69.8167 190.941 62.8117C248.409 56.7497 295.55 38.5635 352.321 31.6552C411.204 24.4938 479.785 34.2722 537.084 41.0426C593.616 47.7256 648.306 57.021 704.38 64.2881C753.981 70.7274 787.191 56.8968 831.773 50.1127C859.457 45.9042 882.978 47.5554 908.859 53.3323C941.639 60.7108 975.596 66.9168 1010.43 71.8956C1069.83 80.3356 1142.96 88.8537 1205.33 84.5211C1285.16 79.0017 1356.24 58.3503 1435.57 51.6259" stroke="url(#paint40_linear)" stroke-miterlimit="10"/>
<path d="M1.64746 46.5391C67.2912 47.597 124.978 66.9514 191.847 60.043C249.345 54.1236 296.855 36.2502 353.696 29.581C412.518 22.6818 480.621 32.4556 537.92 39.1248C594.034 45.6652 648.684 54.6939 704.698 61.2849C753.961 67.0848 788.466 53.8982 833.417 47.7855C861.299 43.9956 884.989 45.8078 910.851 51.5571C943.392 58.806 977.179 64.7951 1011.87 69.4627C1071.49 77.4703 1143.89 84.9398 1206.12 80.5565C1285.32 75.005 1357.03 55.9633 1435.61 49.009" stroke="url(#paint41_linear)" stroke-miterlimit="10"/>
<path d="M1.66724 43.5448C67.7192 44.6349 125.476 64.1733 192.932 57.3799C250.341 51.5938 298.249 34.07 355.149 27.6538C413.902 21.026 481.537 30.7768 538.707 37.3126C594.412 43.6966 649.023 52.4263 704.917 58.3458C753.871 63.534 789.74 50.9867 835.04 45.5778C863.121 42.2156 887.001 44.198 912.872 49.9059C945.167 57.0098 978.774 62.7652 1013.29 67.1031C1073.31 74.6462 1144.81 80.9474 1206.93 76.5734C1285.52 71.0541 1357.8 53.613 1435.63 46.4609" stroke="url(#paint42_linear)" stroke-miterlimit="10"/>
<path d="M1.68701 40.6012C68.217 41.7556 126.083 61.4826 194.017 54.818C251.416 49.1929 299.742 32.0186 356.683 25.8692C415.386 19.5358 482.513 29.2314 539.603 35.6568C594.89 41.8798 649.461 50.2784 705.206 55.5264C753.871 60.1258 791.154 48.2546 836.792 43.5678C865.083 40.6472 889.142 42.8411 915.053 48.4708C947.102 55.4155 980.523 60.9218 1014.85 64.9138C1075.24 71.9601 1145.74 77.0517 1207.79 72.673C1285.76 67.1767 1358.56 51.4007 1435.65 44.083" stroke="url(#paint43_linear)" stroke-miterlimit="10"/>
<path d="M1.70703 37.754C68.715 38.9682 126.681 58.8838 195.183 52.3664C252.531 46.9069 301.246 30.0959 358.286 24.2271C416.909 18.1926 483.519 27.8192 540.519 34.102C595.408 40.1503 649.909 48.1947 705.475 52.7711C753.891 56.7589 792.618 45.6052 838.605 41.6175C867.095 39.1476 891.323 41.5577 917.323 47.1368C949.123 53.9088 982.35 59.1492 1016.48 62.7749C1077.22 69.2877 1146.65 73.1144 1208.67 68.7542C1286.03 63.3222 1359.28 49.2112 1435.67 41.7463" stroke="url(#paint44_linear)" stroke-miterlimit="10"/>
<path d="M1.72705 34.9942C69.203 36.2729 127.318 56.377 196.348 50.016C253.706 44.7312 302.83 28.2929 359.939 22.7138C418.483 16.9967 484.565 26.5267 541.525 32.6623C596.026 38.5358 650.447 46.1939 705.833 50.1034C754.041 53.5024 794.241 43.0755 840.556 39.8237C869.256 37.8045 893.653 40.4446 919.753 45.9409C951.306 52.5377 984.337 57.5075 1018.25 60.7603C1079.4 66.7073 1147.64 69.2278 1209.64 64.8998C1286.32 59.5368 1360.01 47.1276 1435.69 39.5385" stroke="url(#paint45_linear)" stroke-miterlimit="10"/>
<path d="M1.74658 32.3223C69.7105 33.6699 127.975 53.9396 197.572 47.7718C254.931 42.671 304.462 26.6052 361.642 21.3296C420.106 15.9483 485.65 25.3587 542.54 31.338C596.672 37.0275 650.994 44.2762 706.142 47.5234C754.18 50.3521 795.844 40.6657 842.458 38.1498C871.336 36.5906 895.923 39.4698 922.123 44.8971C953.43 51.3063 986.262 55.9916 1019.94 58.8564C1081.48 64.2056 1148.52 65.3968 1210.52 61.101C1286.64 55.83 1360.62 45.1363 1435.64 37.4369" stroke="url(#paint46_linear)" stroke-miterlimit="10"/>
<path d="M1.76685 29.7465C70.2287 31.1631 128.663 51.6398 198.817 45.6329C256.166 40.7161 306.136 25.0366 363.385 20.0876C421.749 15.0283 486.746 24.3329 543.626 30.1466C597.4 35.6659 651.602 42.4685 706.521 45.058C754.469 47.3209 797.557 38.3888 844.53 36.6134C873.617 35.5142 898.303 38.6464 924.752 44.0001C955.818 50.2183 988.45 54.6129 1021.88 57.0809C1162.29 67.793 1299.88 49.7218 1435.78 35.4636" stroke="url(#paint47_linear)" stroke-miterlimit="10"/>
<path d="M1.78662 27.2534C70.7563 28.7482 129.36 49.4043 200.092 43.586C257.441 38.867 307.838 23.5784 365.157 18.9192C423.422 14.1818 487.871 23.3715 544.632 29.015C598.097 34.3457 652.139 40.7067 706.809 42.6247C754.747 44.3219 799.19 36.1855 846.511 35.1276C875.768 34.4837 900.663 37.8873 927.261 43.1628C957.972 49.2939 990.585 53.2034 1023.7 55.3651C1160.53 64.3018 1303.25 47.7117 1435.75 33.55" stroke="url(#paint48_linear)" stroke-miterlimit="10"/>
<path d="M1.80664 24.8619C71.2842 26.4349 130.067 47.2704 201.377 41.6453C258.735 37.1056 309.551 22.2264 366.94 17.88C425.105 13.4783 488.996 22.5438 545.697 27.9987C598.874 33.1271 652.727 39.0374 707.148 40.3298C755.176 41.4705 800.873 34.1022 848.553 33.794C877.979 33.6054 903.033 37.2758 929.841 42.487C960.352 48.4156 992.746 51.9894 1025.58 53.7648C1088.12 57.1454 1151.55 54.2661 1213.58 50.1312C1288 45.1684 1362.54 39.7227 1435.77 31.7335" stroke="url(#paint49_linear)" stroke-miterlimit="10"/>
<path d="M1.82666 22.5669C71.2146 24.1905 129.918 45.0627 201.158 39.9205C258.287 35.7811 309.203 21.4814 366.143 17.1441C423.701 12.7609 486.307 21.4584 542.511 26.711C596.842 31.7703 651.881 37.423 707.496 38.1314C756.869 38.7615 804.976 31.7979 854.239 32.612C883.974 33.1042 908.759 37.5932 936.015 42.579C964.325 47.758 994.22 50.7246 1024.45 52.1274C1088.8 55.1125 1152.62 50.7108 1216.21 46.5575C1289.6 41.7649 1363.64 38.0762 1435.82 30.064" stroke="url(#paint50_linear)" stroke-miterlimit="10"/>
<path d="M1.83643 20.3729C71.7024 22.0747 130.644 43.1217 202.412 38.1773C259.552 34.2402 310.876 20.3177 367.906 16.2978C425.344 12.2687 487.452 20.842 543.576 25.9244C597.649 30.8274 652.478 36.0432 707.805 36.0432C757.466 36.0432 806.639 30.0041 856.31 31.5449C886.085 32.4648 911.079 37.2114 938.544 42.0914C966.665 47.0864 996.361 49.7403 1026.33 50.789C1090.89 53.0473 1153.61 47.2382 1217.18 43.1999C1290.09 38.5683 1364.13 36.5951 1435.8 28.4817" stroke="url(#paint51_linear)" stroke-miterlimit="10"/>
<path d="M1.85645 18.2847C72.2502 20.0647 131.312 41.2819 203.687 36.5307C260.846 32.7775 312.569 19.246 369.678 15.5388C426.997 11.8087 488.618 20.3222 544.712 25.239C598.485 29.9627 653.105 34.7093 708.144 34.0378C758.163 33.426 808.302 28.2931 858.391 30.5514C888.206 31.899 913.4 36.8986 941.043 41.6728C968.926 46.4884 998.482 48.8295 1028.18 49.5241C1092.9 51.0465 1154.58 43.8576 1218.14 39.9296C1290.59 35.4498 1364.52 35.2014 1435.77 26.9868" stroke="url(#paint52_linear)" stroke-miterlimit="10"/>
<path d="M1.87646 16.3023C72.7581 18.1421 132.068 39.5387 204.952 34.9852C262.121 31.4115 314.242 18.2479 371.441 14.8719C428.64 11.4959 489.763 19.8945 545.707 24.6411C599.352 29.1945 653.713 33.495 708.452 32.1474C758.91 30.9055 809.906 26.6925 860.413 29.6591C890.287 31.4115 915.66 36.6824 943.563 41.3462C971.466 46.0101 1000.64 48.0154 1030.06 48.365C1094.79 49.1423 1155.65 40.6057 1219.13 36.7882C1291.17 32.4555 1365.04 33.9274 1435.81 25.5932" stroke="url(#paint53_linear)" stroke-miterlimit="10"/>
<path d="M1.88623 14.4258C73.2558 16.3576 132.775 37.8829 206.176 33.5411C263.376 30.1421 315.875 17.3786 373.154 14.2878C430.193 11.2108 490.938 19.5542 546.783 24.1398C600.268 28.5277 654.33 32.3774 708.801 30.3674C759.756 28.4863 811.509 25.1885 862.464 28.8496C892.249 30.993 917.921 36.5399 946.022 41.0979C973.606 45.5686 1002.78 47.2888 1031.88 47.3026C1096.61 47.3394 1156.7 37.4966 1220.09 33.7802C1291.79 29.5763 1365.48 32.7637 1435.81 24.2962" stroke="url(#paint54_linear)" stroke-miterlimit="10"/>
<path d="M1.89624 12.6641C73.7438 14.6602 133.443 36.3649 207.371 32.1887C264.601 28.9691 317.478 16.5506 374.827 13.7909C431.807 11.0313 491.944 19.3102 547.798 23.7349C601.174 27.948 654.967 31.3654 709.119 28.7023C760.623 26.1726 813.042 23.7901 864.466 28.132C894.24 30.6387 920.131 36.4661 948.442 40.9184C975.897 45.2327 1004.82 46.6447 1033.65 46.3319C1098.28 45.6374 1157.74 34.5344 1221.04 30.9054C1292.33 26.8211 1365.84 31.7241 1435.84 23.0864" stroke="url(#paint55_linear)" stroke-miterlimit="10"/>
<path d="M1.91602 11.0129C74.2117 13.0781 134.12 34.93 208.536 30.9377C265.795 27.8607 319.071 15.8423 376.45 13.3449C433.31 10.8704 492.959 19.1355 548.784 23.3946C602.06 27.4467 655.585 30.4364 709.428 27.134C761.509 23.942 814.576 22.4609 866.358 27.4697C896.102 30.3444 922.212 36.4478 950.772 40.8081C978.057 44.9476 1006.84 46.0882 1035.42 45.4581C1099.87 44.0461 1158.83 31.738 1222.02 28.1872C1292.97 24.1995 1366.25 30.8043 1435.92 21.9964" stroke="url(#paint56_linear)" stroke-miterlimit="10"/>
<path d="M1.92627 9.47681C74.6203 11.6063 134.747 33.6146 209.642 29.7833C266.931 26.8489 320.505 15.1939 378.013 12.9724C434.774 10.783 493.985 19.0344 549.721 23.1463C602.927 27.0788 656.182 29.6177 709.707 25.6898C762.395 21.8263 815.94 21.2284 868.17 26.8857C897.855 30.1053 924.214 36.4847 952.963 40.7438C980.109 44.7637 1008.73 45.5962 1037.01 44.6671C1101.24 42.5559 1159.78 29.1118 1222.86 25.607C1293.56 21.6929 1366.54 29.9903 1435.9 20.9708" stroke="url(#paint57_linear)" stroke-miterlimit="10"/>
<path d="M1.93604 8.0647C75.0881 10.2448 135.374 32.4003 210.687 28.7208C268.026 25.9243 321.929 14.6143 379.497 12.6641C436.168 10.7462 494.921 18.9976 550.607 22.9807C603.763 26.7844 656.76 28.9001 709.986 24.3605C763.212 19.8209 817.284 20.0876 869.923 26.3704C899.538 29.9074 926.156 36.4892 955.064 40.7299C981.951 44.6808 1010.61 45.1775 1038.54 43.9495C1102.51 41.1898 1160.73 26.6602 1223.67 23.2014C1294.07 19.3333 1366.84 29.3095 1435.9 20.0462" stroke="url(#paint58_linear)" stroke-miterlimit="10"/>
<path d="M1.99585 6.74927C75.5463 8.97539 135.962 31.2781 211.723 27.7411C269.042 25.078 323.264 14.1084 380.901 12.4112C437.443 10.7462 495.817 19.0252 551.443 22.8933C604.57 26.5728 657.318 28.2884 710.235 23.1509C764.148 17.9213 818.539 19.0114 871.556 25.9105C901.111 29.7464 927.958 36.5766 957.036 40.7575C983.813 44.6072 1012.32 44.828 1039.97 43.3516C1070.13 41.7372 1099.54 38.0392 1128.49 33.9365C1159.74 29.5165 1191.9 22.7737 1224.45 20.9891C1294.61 17.1394 1367.13 28.7714 1435.91 19.2321" stroke="url(#paint59_linear)" stroke-miterlimit="10"/>
<path d="M1.99585 5.59937C75.9048 7.86229 136.43 30.3075 212.629 26.8901C269.998 24.3145 324.508 13.6484 382.216 12.2042C438.668 10.7737 496.624 19.1033 552.2 22.8748C605.326 26.4716 657.865 27.7824 710.474 22.0653C764.975 16.1413 819.724 18.0224 873.129 25.5195C902.555 29.659 929.631 36.6961 958.858 40.8172C985.526 44.575 1013.91 44.5474 1041.28 42.818C1071.38 40.923 1100.62 36.9031 1129.41 32.5383C1160.43 27.8376 1192.63 20.7453 1225.18 18.9469C1295.11 15.088 1367.41 28.3528 1435.92 18.487" stroke="url(#paint60_linear)" stroke-miterlimit="10"/>
<path d="M1.99585 4.55542C76.2433 6.85514 136.928 29.4338 213.456 26.1176C270.864 23.6247 325.634 13.2805 383.391 12.0433C439.763 10.8336 497.331 19.2598 552.867 22.9348C606.004 26.4441 658.353 27.387 710.653 21.095C765.781 14.4856 820.779 17.1073 874.563 25.1793C903.88 29.5763 931.155 36.8297 960.531 40.9047C987.089 44.5843 1015.3 44.3267 1042.48 42.372C1072.51 40.2102 1101.6 35.8868 1130.24 31.2827C1161.05 26.3291 1193.29 18.9241 1225.83 17.0981C1295.54 13.1886 1367.67 28.0677 1435.95 17.8478" stroke="url(#paint61_linear)" stroke-miterlimit="10"/>
<path d="M1.99585 3.64014C76.552 5.93985 137.336 28.6749 214.193 25.4369C271.671 23.013 326.719 12.954 384.536 11.9191C440.849 10.9072 498.058 19.4576 553.534 23.0589C606.691 26.5039 658.891 27.0973 710.872 20.2671C766.568 12.9494 821.706 16.261 875.868 24.8665C905.085 29.5166 932.539 36.9584 962.035 40.9967C988.504 44.6165 1016.62 44.1566 1043.53 41.9948C1073.53 39.5847 1102.45 34.9853 1130.96 30.1605C1161.6 24.9677 1193.87 17.3097 1226.45 15.4423C1296.02 11.45 1367.97 27.9068 1435.95 17.2821" stroke="url(#paint62_linear)" stroke-miterlimit="10"/>
<path d="M1.99585 2.85815C76.8408 5.15787 137.685 28.0355 214.84 24.848C272.328 22.4747 327.625 12.6825 385.492 11.8087C441.745 10.9762 498.576 19.6783 554.052 23.229C607.238 26.6326 659.339 26.9086 711.022 19.5495C767.295 11.5327 822.463 15.4698 877.023 24.6089C906.11 29.4843 933.724 37.0963 963.33 41.107C989.719 44.6854 1017.69 44.0507 1044.42 41.705C1074.37 39.0695 1103.17 34.2217 1131.56 29.1945C1162.06 23.7902 1194.3 15.9343 1226.97 14.0164C1296.39 9.89989 1368.25 27.9067 1435.96 16.8128" stroke="url(#paint63_linear)" stroke-miterlimit="10"/>
<path d="M1.99585 2.20508C76.4724 4.5048 137.117 27.3824 213.824 24.4158C274.439 22.0746 333.032 11.5005 394.195 11.7167C446.485 11.9007 498.954 19.8347 550.607 23.2475C605.486 26.8718 658.015 26.7707 711.161 19.0114C770.093 10.4289 825.31 14.9409 882.111 25.1471C907.574 29.7189 931.832 35.9557 957.484 40.2378C984.63 44.7682 1014.43 44.3267 1042.37 41.8108C1074.06 38.9592 1104.41 33.5318 1134.3 28.0125C1164.43 22.4288 1196.47 14.5684 1228.96 12.7286C1297.67 8.86046 1369.13 27.9573 1435.95 16.4403" stroke="url(#paint64_linear)" stroke-miterlimit="10"/>
<path d="M1.99585 1.6897C76.6815 3.95722 137.326 26.9866 214.243 24.0154C274.877 21.6696 333.74 11.3439 394.882 11.6889C447.132 11.9878 499.333 20.1426 550.955 23.56C605.874 27.1936 658.393 26.8348 711.281 18.5696C770.81 9.26037 825.739 14.3013 883.008 25.0088C908.351 29.7462 932.679 36.0383 958.4 40.3249C985.486 44.86 1015.16 44.3265 1042.93 41.668C1074.61 38.637 1104.83 32.9751 1134.64 27.3085C1164.73 21.5869 1196.76 13.639 1229.33 11.7073C1297.91 7.66896 1369.45 28.1962 1435.96 16.1227" stroke="url(#paint65_linear)" stroke-miterlimit="10"/>
<path d="M1.99585 1.32202C76.8309 3.55275 137.426 26.7201 214.561 23.7029C275.206 21.3296 334.198 11.2246 395.42 11.6799C447.65 12.0663 499.601 20.4833 551.204 23.9282C606.153 27.6078 658.752 27.0237 711.3 18.2617C771.407 8.24417 825.898 13.7083 883.655 24.8665C908.939 29.7465 933.326 36.1029 959.068 40.4402C986.134 44.9983 1015.55 44.4233 1043.3 41.6407C1107.42 35.2015 1164.87 15.0421 1229.61 10.9762C1298.07 6.67576 1369.8 28.5875 1435.96 15.9068" stroke="url(#paint66_linear)" stroke-miterlimit="10"/>
<path d="M1.99585 1.08813C76.9504 3.27287 137.525 26.5782 214.75 23.4874C275.405 21.0543 334.596 11.1471 395.788 11.676C448.029 12.136 499.751 20.8473 551.334 24.3521C606.302 28.0868 659.08 27.3325 711.33 18.0968C771.965 7.37556 825.848 13.157 884.153 24.766C909.227 29.7472 933.674 36.3474 959.476 40.5145C986.88 44.9345 1015.41 44.5758 1043.46 41.6689C1107.69 35.009 1164.82 14.8312 1229.79 10.471C1298.16 5.87155 1370.2 29.1217 1435.92 15.7695" stroke="url(#paint67_linear)" stroke-miterlimit="10"/>
<path d="M1.99585 1C77.03 3.12034 137.496 26.5637 214.8 23.3578C275.455 20.842 334.725 11.1004 396.037 11.6707C448.287 12.1582 499.811 21.2375 551.383 24.8251C606.352 28.6472 659.409 27.7687 711.35 18.0685C772.453 6.64811 825.579 12.6366 884.442 24.6871C938.215 35.6889 982.519 48.2132 1043.41 41.7648C1107.81 34.9438 1164.67 14.9363 1229.87 10.2265C1298.16 5.29127 1370.58 29.7971 1436 15.7458" stroke="url(#paint68_linear)" stroke-miterlimit="10"/>
<path d="M-11.6714 202.827C-11.6714 202.827 -5.51114 244.267 244.593 219.995C494.697 195.723 695.519 61.34 1007.84 202.827C1320.16 344.314 1472.32 283.339 1472.32 283.339L1441.52 376.305L-32 343.746" fill="white"/>
<defs>
<linearGradient id="paint0_linear" x1="1.0338e+06" y1="346.67" x2="1.0338e+06" y2="272.45" gradientUnits="userSpaceOnUse">
<stop stop-color="#592CB8"/>
<stop offset="1" stop-color="#2C66B8"/>
</linearGradient>
<linearGradient id="paint1_linear" x1="1.03377e+06" y1="528.668" x2="1.03377e+06" y2="314.486" gradientUnits="userSpaceOnUse">
<stop stop-color="#592CB8"/>
<stop offset="1" stop-color="#2C66B8"/>
</linearGradient>
<linearGradient id="paint2_linear" x1="1.0338e+06" y1="768.447" x2="1.0338e+06" y2="372.906" gradientUnits="userSpaceOnUse">
<stop stop-color="#592CB8"/>
<stop offset="1" stop-color="#2C66B8"/>
</linearGradient>
<linearGradient id="paint3_linear" x1="1.0338e+06" y1="1126.29" x2="1.0338e+06" y2="463.319" gradientUnits="userSpaceOnUse">
<stop stop-color="#592CB8"/>
<stop offset="1" stop-color="#2C66B8"/>
</linearGradient>
<linearGradient id="paint4_linear" x1="1.0338e+06" y1="1720.53" x2="1.0338e+06" y2="616.573" gradientUnits="userSpaceOnUse">
<stop stop-color="#592CB8"/>
<stop offset="1" stop-color="#2C66B8"/>
</linearGradient>
<linearGradient id="paint5_linear" x1="1.0338e+06" y1="2374.1" x2="1.0338e+06" y2="785.983" gradientUnits="userSpaceOnUse">
<stop stop-color="#592CB8"/>
<stop offset="1" stop-color="#2C66B8"/>
</linearGradient>
<linearGradient id="paint6_linear" x1="1.0338e+06" y1="3169.55" x2="1.0338e+06" y2="993.103" gradientUnits="userSpaceOnUse">
<stop stop-color="#592CB8"/>
<stop offset="1" stop-color="#2C66B8"/>
</linearGradient>
<linearGradient id="paint7_linear" x1="1.03379e+06" y1="4005.93" x2="1.03379e+06" y2="1211.25" gradientUnits="userSpaceOnUse">
<stop stop-color="#592CB8"/>
<stop offset="1" stop-color="#2C66B8"/>
</linearGradient>
<linearGradient id="paint8_linear" x1="1.03381e+06" y1="4844.82" x2="1.03381e+06" y2="1430.19" gradientUnits="userSpaceOnUse">
<stop stop-color="#592CB8"/>
<stop offset="1" stop-color="#2C66B8"/>
</linearGradient>
<linearGradient id="paint9_linear" x1="1.03378e+06" y1="5642.24" x2="1.03378e+06" y2="1638.17" gradientUnits="userSpaceOnUse">
<stop stop-color="#592CB8"/>
<stop offset="1" stop-color="#2C66B8"/>
</linearGradient>
<linearGradient id="paint10_linear" x1="1.0338e+06" y1="6433.27" x2="1.0338e+06" y2="1844.28" gradientUnits="userSpaceOnUse">
<stop stop-color="#592CB8"/>
<stop offset="1" stop-color="#2C66B8"/>
</linearGradient>
<linearGradient id="paint11_linear" x1="1.0338e+06" y1="7040.75" x2="1.0338e+06" y2="2001.83" gradientUnits="userSpaceOnUse">
<stop stop-color="#592CB8"/>
<stop offset="1" stop-color="#2C66B8"/>
</linearGradient>
<linearGradient id="paint12_linear" x1="1.0338e+06" y1="7490.69" x2="1.0338e+06" y2="2117.52" gradientUnits="userSpaceOnUse">
<stop stop-color="#592CB8"/>
<stop offset="1" stop-color="#2C66B8"/>
</linearGradient>
<linearGradient id="paint13_linear" x1="1.03383e+06" y1="7730.69" x2="1.03383e+06" y2="2177.35" gradientUnits="userSpaceOnUse">
<stop stop-color="#592CB8"/>
<stop offset="1" stop-color="#2C66B8"/>
</linearGradient>
<linearGradient id="paint14_linear" x1="1.0338e+06" y1="7836.96" x2="1.0338e+06" y2="2201.36" gradientUnits="userSpaceOnUse">
<stop stop-color="#592CB8"/>
<stop offset="1" stop-color="#2C66B8"/>
</linearGradient>
<linearGradient id="paint15_linear" x1="1.03378e+06" y1="7944.69" x2="1.03378e+06" y2="2225.76" gradientUnits="userSpaceOnUse">
<stop stop-color="#592CB8"/>
<stop offset="1" stop-color="#2C66B8"/>
</linearGradient>
<linearGradient id="paint16_linear" x1="1.03379e+06" y1="8005.46" x2="1.03379e+06" y2="2237.95" gradientUnits="userSpaceOnUse">
<stop stop-color="#592CB8"/>
<stop offset="1" stop-color="#2C66B8"/>
</linearGradient>
<linearGradient id="paint17_linear" x1="1.03382e+06" y1="8022.6" x2="1.03382e+06" y2="2238.79" gradientUnits="userSpaceOnUse">
<stop stop-color="#592CB8"/>
<stop offset="1" stop-color="#2C66B8"/>
</linearGradient>
<linearGradient id="paint18_linear" x1="1.0338e+06" y1="8001.56" x2="1.0338e+06" y2="2229.71" gradientUnits="userSpaceOnUse">
<stop stop-color="#592CB8"/>
<stop offset="1" stop-color="#2C66B8"/>
</linearGradient>
<linearGradient id="paint19_linear" x1="1.0338e+06" y1="7945.91" x2="1.0338e+06" y2="2211.64" gradientUnits="userSpaceOnUse">
<stop stop-color="#592CB8"/>
<stop offset="1" stop-color="#2C66B8"/>
</linearGradient>
<linearGradient id="paint20_linear" x1="1.03381e+06" y1="7818.77" x2="1.03381e+06" y2="2174.93" gradientUnits="userSpaceOnUse">
<stop stop-color="#592CB8"/>
<stop offset="1" stop-color="#2C66B8"/>
</linearGradient>
<linearGradient id="paint21_linear" x1="1.03382e+06" y1="7733.57" x2="1.03382e+06" y2="2149.31" gradientUnits="userSpaceOnUse">
<stop stop-color="#592CB8"/>
<stop offset="1" stop-color="#2C66B8"/>
</linearGradient>
<linearGradient id="paint22_linear" x1="1.03377e+06" y1="7630.71" x2="1.03377e+06" y2="2119.13" gradientUnits="userSpaceOnUse">
<stop stop-color="#592CB8"/>
<stop offset="1" stop-color="#2C66B8"/>
</linearGradient>
<linearGradient id="paint23_linear" x1="1.0338e+06" y1="7521.53" x2="1.0338e+06" y2="2087.4" gradientUnits="userSpaceOnUse">
<stop stop-color="#592CB8"/>
<stop offset="1" stop-color="#2C66B8"/>
</linearGradient>
<linearGradient id="paint24_linear" x1="1.03383e+06" y1="7406.1" x2="1.03383e+06" y2="2054.09" gradientUnits="userSpaceOnUse">
<stop stop-color="#592CB8"/>
<stop offset="1" stop-color="#2C66B8"/>
</linearGradient>
<linearGradient id="paint25_linear" x1="1.03379e+06" y1="7289.14" x2="1.03379e+06" y2="2020.43" gradientUnits="userSpaceOnUse">
<stop stop-color="#592CB8"/>
<stop offset="1" stop-color="#2C66B8"/>
</linearGradient>
<linearGradient id="paint26_linear" x1="1.0338e+06" y1="7136.87" x2="1.0338e+06" y2="1977.55" gradientUnits="userSpaceOnUse">
<stop stop-color="#592CB8"/>
<stop offset="1" stop-color="#2C66B8"/>
</linearGradient>
<linearGradient id="paint27_linear" x1="1.03377e+06" y1="7027.89" x2="1.03377e+06" y2="1946.11" gradientUnits="userSpaceOnUse">
<stop stop-color="#592CB8"/>
<stop offset="1" stop-color="#2C66B8"/>
</linearGradient>
<linearGradient id="paint28_linear" x1="1.03378e+06" y1="6930.76" x2="1.03378e+06" y2="1917.81" gradientUnits="userSpaceOnUse">
<stop stop-color="#592CB8"/>
<stop offset="1" stop-color="#2C66B8"/>
</linearGradient>
<linearGradient id="paint29_linear" x1="1.03377e+06" y1="6854.43" x2="1.03377e+06" y2="1895.04" gradientUnits="userSpaceOnUse">
<stop stop-color="#592CB8"/>
<stop offset="1" stop-color="#2C66B8"/>
</linearGradient>
<linearGradient id="paint30_linear" x1="1.03383e+06" y1="6788.58" x2="1.03383e+06" y2="1874.99" gradientUnits="userSpaceOnUse">
<stop stop-color="#592CB8"/>
<stop offset="1" stop-color="#2C66B8"/>
</linearGradient>
<linearGradient id="paint31_linear" x1="1.0338e+06" y1="6755.91" x2="1.0338e+06" y2="1863.7" gradientUnits="userSpaceOnUse">
<stop stop-color="#592CB8"/>
<stop offset="1" stop-color="#2C66B8"/>
</linearGradient>
<linearGradient id="paint32_linear" x1="1.0338e+06" y1="6740.25" x2="1.0338e+06" y2="1856.87" gradientUnits="userSpaceOnUse">
<stop stop-color="#592CB8"/>
<stop offset="1" stop-color="#2C66B8"/>
</linearGradient>
<linearGradient id="paint33_linear" x1="1.03383e+06" y1="6697.11" x2="1.03383e+06" y2="1842.77" gradientUnits="userSpaceOnUse">
<stop stop-color="#592CB8"/>
<stop offset="1" stop-color="#2C66B8"/>
</linearGradient>
<linearGradient id="paint34_linear" x1="1.0338e+06" y1="6632.3" x2="1.0338e+06" y2="1822.96" gradientUnits="userSpaceOnUse">
<stop stop-color="#592CB8"/>
<stop offset="1" stop-color="#2C66B8"/>
</linearGradient>
<linearGradient id="paint35_linear" x1="1.03383e+06" y1="6537.75" x2="1.03383e+06" y2="1795.27" gradientUnits="userSpaceOnUse">
<stop stop-color="#592CB8"/>
<stop offset="1" stop-color="#2C66B8"/>
</linearGradient>
<linearGradient id="paint36_linear" x1="1.0338e+06" y1="6424.5" x2="1.0338e+06" y2="1762.67" gradientUnits="userSpaceOnUse">
<stop stop-color="#592CB8"/>
<stop offset="1" stop-color="#2C66B8"/>
</linearGradient>
<linearGradient id="paint37_linear" x1="1.03383e+06" y1="6289.11" x2="1.03383e+06" y2="1724.21" gradientUnits="userSpaceOnUse">
<stop stop-color="#592CB8"/>
<stop offset="1" stop-color="#2C66B8"/>
</linearGradient>
<linearGradient id="paint38_linear" x1="1.0338e+06" y1="6138.16" x2="1.0338e+06" y2="1681.69" gradientUnits="userSpaceOnUse">
<stop stop-color="#592CB8"/>
<stop offset="1" stop-color="#2C66B8"/>
</linearGradient>
<linearGradient id="paint39_linear" x1="1.0338e+06" y1="5967.24" x2="1.0338e+06" y2="1633.9" gradientUnits="userSpaceOnUse">
<stop stop-color="#592CB8"/>
<stop offset="1" stop-color="#2C66B8"/>
</linearGradient>
<linearGradient id="paint40_linear" x1="1.03379e+06" y1="5777.54" x2="1.03379e+06" y2="1581.16" gradientUnits="userSpaceOnUse">
<stop stop-color="#592CB8"/>
<stop offset="1" stop-color="#2C66B8"/>
</linearGradient>
<linearGradient id="paint41_linear" x1="1.0338e+06" y1="5581.88" x2="1.0338e+06" y2="1526.93" gradientUnits="userSpaceOnUse">
<stop stop-color="#592CB8"/>
<stop offset="1" stop-color="#2C66B8"/>
</linearGradient>
<linearGradient id="paint42_linear" x1="1.0338e+06" y1="5370.41" x2="1.0338e+06" y2="1468.54" gradientUnits="userSpaceOnUse">
<stop stop-color="#592CB8"/>
<stop offset="1" stop-color="#2C66B8"/>
</linearGradient>
<linearGradient id="paint43_linear" x1="1.0338e+06" y1="5157.33" x2="1.0338e+06" y2="1409.81" gradientUnits="userSpaceOnUse">
<stop stop-color="#592CB8"/>
<stop offset="1" stop-color="#2C66B8"/>
</linearGradient>
<linearGradient id="paint44_linear" x1="1.0338e+06" y1="4933.09" x2="1.0338e+06" y2="1348.18" gradientUnits="userSpaceOnUse">
<stop stop-color="#592CB8"/>
<stop offset="1" stop-color="#2C66B8"/>
</linearGradient>
<linearGradient id="paint45_linear" x1="1.0338e+06" y1="4709.88" x2="1.0338e+06" y2="1286.92" gradientUnits="userSpaceOnUse">
<stop stop-color="#592CB8"/>
<stop offset="1" stop-color="#2C66B8"/>
</linearGradient>
<linearGradient id="paint46_linear" x1="1.03375e+06" y1="4491.36" x2="1.03375e+06" y2="1227.03" gradientUnits="userSpaceOnUse">
<stop stop-color="#592CB8"/>
<stop offset="1" stop-color="#2C66B8"/>
</linearGradient>
<linearGradient id="paint47_linear" x1="1.03384e+06" y1="4257.32" x2="1.03384e+06" y2="1163.04" gradientUnits="userSpaceOnUse">
<stop stop-color="#592CB8"/>
<stop offset="1" stop-color="#2C66B8"/>
</linearGradient>
<linearGradient id="paint48_linear" x1="1.0338e+06" y1="4113.03" x2="1.0338e+06" y2="1123.34" gradientUnits="userSpaceOnUse">
<stop stop-color="#592CB8"/>
<stop offset="1" stop-color="#2C66B8"/>
</linearGradient>
<linearGradient id="paint49_linear" x1="1.0338e+06" y1="3935.22" x2="1.0338e+06" y2="1074.68" gradientUnits="userSpaceOnUse">
<stop stop-color="#592CB8"/>
<stop offset="1" stop-color="#2C66B8"/>
</linearGradient>
<linearGradient id="paint50_linear" x1="1.03383e+06" y1="3793.88" x2="1.03383e+06" y2="1035.96" gradientUnits="userSpaceOnUse">
<stop stop-color="#592CB8"/>
<stop offset="1" stop-color="#2C66B8"/>
</linearGradient>
<linearGradient id="paint51_linear" x1="1.0338e+06" y1="3679.55" x2="1.0338e+06" y2="1004.58" gradientUnits="userSpaceOnUse">
<stop stop-color="#592CB8"/>
<stop offset="1" stop-color="#2C66B8"/>
</linearGradient>
<linearGradient id="paint52_linear" x1="1.03377e+06" y1="3584.49" x2="1.03377e+06" y2="978.452" gradientUnits="userSpaceOnUse">
<stop stop-color="#592CB8"/>
<stop offset="1" stop-color="#2C66B8"/>
</linearGradient>
<linearGradient id="paint53_linear" x1="1.03378e+06" y1="3503.63" x2="1.03378e+06" y2="956.236" gradientUnits="userSpaceOnUse">
<stop stop-color="#592CB8"/>
<stop offset="1" stop-color="#2C66B8"/>
</linearGradient>
<linearGradient id="paint54_linear" x1="1.03378e+06" y1="3437.85" x2="1.03378e+06" y2="938.135" gradientUnits="userSpaceOnUse">
<stop stop-color="#592CB8"/>
<stop offset="1" stop-color="#2C66B8"/>
</linearGradient>
<linearGradient id="paint55_linear" x1="1.03379e+06" y1="3439.91" x2="1.03379e+06" y2="937.991" gradientUnits="userSpaceOnUse">
<stop stop-color="#592CB8"/>
<stop offset="1" stop-color="#2C66B8"/>
</linearGradient>
<linearGradient id="paint56_linear" x1="1.03383e+06" y1="3529.51" x2="1.03383e+06" y2="960.975" gradientUnits="userSpaceOnUse">
<stop stop-color="#592CB8"/>
<stop offset="1" stop-color="#2C66B8"/>
</linearGradient>
<linearGradient id="paint57_linear" x1="1.03381e+06" y1="3622.33" x2="1.03381e+06" y2="984.915" gradientUnits="userSpaceOnUse">
<stop stop-color="#592CB8"/>
<stop offset="1" stop-color="#2C66B8"/>
</linearGradient>
<linearGradient id="paint58_linear" x1="1.0338e+06" y1="3716.79" x2="1.0338e+06" y2="1009.39" gradientUnits="userSpaceOnUse">
<stop stop-color="#592CB8"/>
<stop offset="1" stop-color="#2C66B8"/>
</linearGradient>
<linearGradient id="paint59_linear" x1="1.03377e+06" y1="3813.97" x2="1.03377e+06" y2="1034.66" gradientUnits="userSpaceOnUse">
<stop stop-color="#592CB8"/>
<stop offset="1" stop-color="#2C66B8"/>
</linearGradient>
<linearGradient id="paint60_linear" x1="1.03378e+06" y1="3904.04" x2="1.03378e+06" y2="1058.14" gradientUnits="userSpaceOnUse">
<stop stop-color="#592CB8"/>
<stop offset="1" stop-color="#2C66B8"/>
</linearGradient>
<linearGradient id="paint61_linear" x1="1.0338e+06" y1="3992.1" x2="1.0338e+06" y2="1081.16" gradientUnits="userSpaceOnUse">
<stop stop-color="#592CB8"/>
<stop offset="1" stop-color="#2C66B8"/>
</linearGradient>
<linearGradient id="paint62_linear" x1="1.0338e+06" y1="4073.33" x2="1.0338e+06" y2="1102.42" gradientUnits="userSpaceOnUse">
<stop stop-color="#592CB8"/>
<stop offset="1" stop-color="#2C66B8"/>
</linearGradient>
<linearGradient id="paint63_linear" x1="1.0338e+06" y1="4147.88" x2="1.0338e+06" y2="1121.98" gradientUnits="userSpaceOnUse">
<stop stop-color="#592CB8"/>
<stop offset="1" stop-color="#2C66B8"/>
</linearGradient>
<linearGradient id="paint64_linear" x1="1.0338e+06" y1="4219.36" x2="1.0338e+06" y2="1140.8" gradientUnits="userSpaceOnUse">
<stop stop-color="#592CB8"/>
<stop offset="1" stop-color="#2C66B8"/>
</linearGradient>
<linearGradient id="paint65_linear" x1="1.0338e+06" y1="4273.15" x2="1.0338e+06" y2="1154.94" gradientUnits="userSpaceOnUse">
<stop stop-color="#592CB8"/>
<stop offset="1" stop-color="#2C66B8"/>
</linearGradient>
<linearGradient id="paint66_linear" x1="1.0338e+06" y1="4319.88" x2="1.0338e+06" y2="1167.29" gradientUnits="userSpaceOnUse">
<stop stop-color="#592CB8"/>
<stop offset="1" stop-color="#2C66B8"/>
</linearGradient>
<linearGradient id="paint67_linear" x1="1.03378e+06" y1="4348.43" x2="1.03378e+06" y2="1174.83" gradientUnits="userSpaceOnUse">
<stop stop-color="#592CB8"/>
<stop offset="1" stop-color="#2C66B8"/>
</linearGradient>
<linearGradient id="paint68_linear" x1="1.03383e+06" y1="4324.64" x2="1.03383e+06" y2="1168.34" gradientUnits="userSpaceOnUse">
<stop stop-color="#592CB8"/>
<stop offset="1" stop-color="#2C66B8"/>
</linearGradient>
</defs>
</svg>
