<svg width="1458" height="1523" viewBox="0 0 1458 1523" fill="none" xmlns="http://www.w3.org/2000/svg">
<rect x="0.558594" y="19.7292" width="1440" height="1415.35" fill="#010066"/>
<mask id="mask0_617:4406" style="mask-type:alpha" maskUnits="userSpaceOnUse" x="1" y="20" width="1440" height="1391">
<rect opacity="0.5" x="1" y="20" width="1440" height="1391" fill="white"/>
</mask>
<g mask="url(#mask0_617:4406)">
<g opacity="0.3">
<path d="M152.37 498.865C117.679 498.865 65.9997 490.317 65.9997 454.179C65.9997 418.042 117.679 368 152.37 368C187.062 368 215.186 397.295 215.186 433.432C215.186 469.57 187.062 498.865 152.37 498.865Z" fill="#333333"/>
<mask id="mask1_617:4406" style="mask-type:alpha" maskUnits="userSpaceOnUse" x="66" y="368" width="150" height="131">
<path d="M152.37 498.865C117.679 498.865 65.9997 490.317 65.9997 454.179C65.9997 418.042 117.679 368 152.37 368C187.062 368 215.186 397.295 215.186 433.432C215.186 469.57 187.062 498.865 152.37 498.865Z" fill="white"/>
</mask>
<g mask="url(#mask1_617:4406)">
</g>
</g>
<g opacity="0.5">
<path d="M1193.85 1156.86C1173.47 1156.86 1143.12 1151.84 1143.12 1130.62C1143.12 1109.39 1173.47 1080 1193.85 1080C1214.23 1080 1230.74 1097.21 1230.74 1118.43C1230.74 1139.66 1214.23 1156.86 1193.85 1156.86Z" fill="#333333"/>
<mask id="mask2_617:4406" style="mask-type:alpha" maskUnits="userSpaceOnUse" x="1143" y="1080" width="88" height="77">
<path d="M1193.85 1156.86C1173.47 1156.86 1143.12 1151.84 1143.12 1130.62C1143.12 1109.39 1173.47 1080 1193.85 1080C1214.23 1080 1230.74 1097.21 1230.74 1118.43C1230.74 1139.66 1214.23 1156.86 1193.85 1156.86Z" fill="white"/>
</mask>
<g mask="url(#mask2_617:4406)">
</g>
</g>
</g>
<path d="M1 305.552C1 305.552 26.6556 251.373 268.892 283.106C511.129 314.84 705.634 490.533 1008.13 305.552C1310.63 120.57 1458 200.29 1458 200.29L1440.5 0.5L1 7.56903" fill="white"/>
<path d="M1438.31 1318.01C1438.31 1318.01 1432.34 1349.82 1190.11 1331.19C947.871 1312.55 753.366 1209.37 450.868 1318.01C148.371 1426.64 1 1379.82 1 1379.82V1522.5L1458 1493" fill="white"/>
</svg>
